<ttFont>
    <TTGlyph name=".notdef" xMin="193" yMin="0" xMax="1034" yMax="1462">
      <contour>
        <pt x="193" y="1462" on="1"/>
        <pt x="1034" y="1462" on="1"/>
        <pt x="1034" y="0" on="1"/>
        <pt x="193" y="0" on="1"/>
      </contour>
      <contour>
        <pt x="297" y="104" on="1"/>
        <pt x="930" y="104" on="1"/>
        <pt x="930" y="1358" on="1"/>
        <pt x="297" y="1358" on="1"/>
      </contour>
    </TTGlyph>
    <TTGlyph name="afii301" xMin="-299" yMin="-338" xMax="299" yMax="1613">
      <contour>
        <pt x="74" y="1323" on="1"/>
        <pt x="299" y="1103" on="1"/>
        <pt x="224" y="1030" on="1"/>
        <pt x="54" y="1199" on="1"/>
        <pt x="54" y="-338" on="1"/>
        <pt x="-54" y="-338" on="1"/>
        <pt x="-54" y="1199" on="1"/>
        <pt x="-224" y="1030" on="1"/>
        <pt x="-299" y="1103" on="1"/>
        <pt x="-74" y="1323" on="1"/>
        <pt x="-299" y="1540" on="1"/>
        <pt x="-224" y="1613" on="1"/>
        <pt x="0" y="1393" on="1"/>
        <pt x="224" y="1613" on="1"/>
        <pt x="299" y="1539" on="1"/>
      </contour>
    </TTGlyph>
    <TTGlyph name="afii61664" xMin="-54" yMin="-339" xMax="54" yMax="1613">
      <contour>
        <pt x="-54" y="-339" on="1"/>
        <pt x="-54" y="1613" on="1"/>
        <pt x="54" y="1613" on="1"/>
        <pt x="54" y="-339" on="1"/>
      </contour>
    </TTGlyph>
    <TTGlyph name="asciicircum" xMin="63" yMin="520" xMax="1220" yMax="1470">
      <contour>
        <pt x="63" y="520" on="1"/>
        <pt x="541" y="1470" on="1"/>
        <pt x="685" y="1470" on="1"/>
        <pt x="1220" y="520" on="1"/>
        <pt x="981" y="520" on="1"/>
        <pt x="619" y="1163" on="1"/>
        <pt x="299" y="520" on="1"/>
      </contour>
    </TTGlyph>
    <TTGlyph name="asciitilde" xMin="88" yMin="496" xMax="1081" yMax="838">
      <contour>
        <pt x="88" y="496" on="1"/>
        <pt x="88" y="727" on="1"/>
        <pt x="191" y="836" on="0"/>
        <pt x="344" y="836" on="1"/>
        <pt x="413" y="836" on="0"/>
        <pt x="531" y="809" on="0"/>
        <pt x="621" y="772" on="1"/>
        <pt x="689" y="743" on="0"/>
        <pt x="795" y="717" on="0"/>
        <pt x="848" y="717" on="1"/>
        <pt x="903" y="717" on="0"/>
        <pt x="1027" y="783" on="0"/>
        <pt x="1081" y="838" on="1"/>
        <pt x="1081" y="607" on="1"/>
        <pt x="980" y="498" on="0"/>
        <pt x="825" y="498" on="1"/>
        <pt x="748" y="498" on="0"/>
        <pt x="620" y="531" on="0"/>
        <pt x="549" y="561" on="1"/>
        <pt x="472" y="593" on="0"/>
        <pt x="370" y="617" on="0"/>
        <pt x="322" y="617" on="1"/>
        <pt x="269" y="617" on="0"/>
        <pt x="146" y="553" on="0"/>
      </contour>
    </TTGlyph>
    <TTGlyph name="asterisk" xMin="83" yMin="625" xMax="1073" yMax="1583">
      <contour>
        <pt x="708" y="1583" on="1"/>
        <pt x="667" y="1215" on="1"/>
        <pt x="1040" y="1319" on="1"/>
        <pt x="1073" y="1067" on="1"/>
        <pt x="733" y="1043" on="1"/>
        <pt x="956" y="746" on="1"/>
        <pt x="729" y="625" on="1"/>
        <pt x="573" y="938" on="1"/>
        <pt x="436" y="627" on="1"/>
        <pt x="200" y="746" on="1"/>
        <pt x="421" y="1043" on="1"/>
        <pt x="83" y="1069" on="1"/>
        <pt x="122" y="1319" on="1"/>
        <pt x="487" y="1215" on="1"/>
        <pt x="446" y="1583" on="1"/>
      </contour>
    </TTGlyph>
    <TTGlyph name="backslash" xMin="55" yMin="-739" xMax="907" yMax="1583">
      <contour>
        <pt x="312" y="1583" on="1"/>
        <pt x="907" y="-739" on="1"/>
        <pt x="650" y="-739" on="1"/>
        <pt x="55" y="1583" on="1"/>
      </contour>
    </TTGlyph>
    <TTGlyph name="bar" xMin="440" yMin="-739" xMax="689" yMax="1583">
      <contour>
        <pt x="440" y="1583" on="1"/>
        <pt x="689" y="1583" on="1"/>
        <pt x="689" y="-739" on="1"/>
        <pt x="440" y="-739" on="1"/>
      </contour>
    </TTGlyph>
    <TTGlyph name="braceleft" xMin="51" yMin="-739" xMax="745" yMax="1583">
      <contour>
        <pt x="307" y="123" on="1"/>
        <pt x="307" y="214" on="0"/>
        <pt x="184" y="302" on="0"/>
        <pt x="51" y="302" on="1"/>
        <pt x="51" y="541" on="1"/>
        <pt x="183" y="541" on="0"/>
        <pt x="307" y="628" on="0"/>
        <pt x="307" y="719" on="1"/>
        <pt x="307" y="1305" on="1"/>
        <pt x="307" y="1424" on="0"/>
        <pt x="403" y="1539" on="0"/>
        <pt x="594" y="1583" on="0"/>
        <pt x="745" y="1583" on="1"/>
        <pt x="745" y="1358" on="1"/>
        <pt x="646" y="1356" on="0"/>
        <pt x="571" y="1288" on="0"/>
        <pt x="571" y="1217" on="1"/>
        <pt x="571" y="650" on="1"/>
        <pt x="571" y="464" on="0"/>
        <pt x="337" y="428" on="1"/>
        <pt x="337" y="416" on="1"/>
        <pt x="571" y="381" on="0"/>
        <pt x="571" y="195" on="1"/>
        <pt x="571" y="-372" on="1"/>
        <pt x="571" y="-445" on="0"/>
        <pt x="648" y="-512" on="0"/>
        <pt x="745" y="-513" on="1"/>
        <pt x="745" y="-739" on="1"/>
        <pt x="593" y="-739" on="0"/>
        <pt x="402" y="-694" on="0"/>
        <pt x="307" y="-579" on="0"/>
        <pt x="307" y="-460" on="1"/>
      </contour>
    </TTGlyph>
    <TTGlyph name="braceright" xMin="62" yMin="-739" xMax="756" yMax="1583">
      <contour>
        <pt x="500" y="721" on="1"/>
        <pt x="500" y="630" on="0"/>
        <pt x="622" y="542" on="0"/>
        <pt x="756" y="542" on="1"/>
        <pt x="756" y="303" on="1"/>
        <pt x="623" y="303" on="0"/>
        <pt x="500" y="216" on="0"/>
        <pt x="500" y="125" on="1"/>
        <pt x="500" y="-461" on="1"/>
        <pt x="500" y="-580" on="0"/>
        <pt x="404" y="-695" on="0"/>
        <pt x="213" y="-739" on="0"/>
        <pt x="62" y="-739" on="1"/>
        <pt x="62" y="-514" on="1"/>
        <pt x="157" y="-513" on="0"/>
        <pt x="236" y="-447" on="0"/>
        <pt x="236" y="-373" on="1"/>
        <pt x="236" y="194" on="1"/>
        <pt x="236" y="380" on="0"/>
        <pt x="470" y="416" on="1"/>
        <pt x="470" y="428" on="1"/>
        <pt x="236" y="463" on="0"/>
        <pt x="236" y="649" on="1"/>
        <pt x="236" y="1216" on="1"/>
        <pt x="236" y="1287" on="0"/>
        <pt x="162" y="1355" on="0"/>
        <pt x="62" y="1357" on="1"/>
        <pt x="62" y="1583" on="1"/>
        <pt x="220" y="1583" on="0"/>
        <pt x="410" y="1535" on="0"/>
        <pt x="500" y="1420" on="0"/>
        <pt x="500" y="1304" on="1"/>
      </contour>
    </TTGlyph>
    <TTGlyph name="bracketleft" xMin="140" yMin="-739" xMax="624" yMax="1583">
      <contour>
        <pt x="624" y="-739" on="1"/>
        <pt x="140" y="-739" on="1"/>
        <pt x="140" y="1583" on="1"/>
        <pt x="624" y="1583" on="1"/>
        <pt x="624" y="1372" on="1"/>
        <pt x="400" y="1372" on="1"/>
        <pt x="400" y="-528" on="1"/>
        <pt x="624" y="-528" on="1"/>
      </contour>
    </TTGlyph>
    <TTGlyph name="bracketright" xMin="94" yMin="-739" xMax="578" yMax="1583">
      <contour>
        <pt x="94" y="-528" on="1"/>
        <pt x="318" y="-528" on="1"/>
        <pt x="318" y="1372" on="1"/>
        <pt x="94" y="1372" on="1"/>
        <pt x="94" y="1583" on="1"/>
        <pt x="578" y="1583" on="1"/>
        <pt x="578" y="-739" on="1"/>
        <pt x="94" y="-739" on="1"/>
      </contour>
    </TTGlyph>
    <TTGlyph name="colon" xMin="117" yMin="-26" xMax="467" yMax="993">
      <contour>
        <pt x="293" y="993" on="1"/>
        <pt x="375" y="993" on="0"/>
        <pt x="467" y="906" on="0"/>
        <pt x="467" y="823" on="1"/>
        <pt x="467" y="741" on="0"/>
        <pt x="374" y="653" on="0"/>
        <pt x="293" y="653" on="1"/>
        <pt x="210" y="653" on="0"/>
        <pt x="117" y="741" on="0"/>
        <pt x="117" y="823" on="1"/>
        <pt x="117" y="906" on="0"/>
        <pt x="208" y="993" on="0"/>
      </contour>
      <contour>
        <pt x="293" y="314" on="1"/>
        <pt x="375" y="314" on="0"/>
        <pt x="467" y="227" on="0"/>
        <pt x="467" y="144" on="1"/>
        <pt x="467" y="62" on="0"/>
        <pt x="372" y="-26" on="0"/>
        <pt x="293" y="-26" on="1"/>
        <pt x="211" y="-26" on="0"/>
        <pt x="117" y="62" on="0"/>
        <pt x="117" y="144" on="1"/>
        <pt x="117" y="227" on="0"/>
        <pt x="208" y="314" on="0"/>
      </contour>
    </TTGlyph>
    <TTGlyph name="comma" xMin="63" yMin="-264" xMax="459" yMax="238">
      <contour>
        <pt x="459" y="215" on="1"/>
        <pt x="407" y="14" on="0"/>
        <pt x="283" y="-264" on="1"/>
        <pt x="63" y="-264" on="1"/>
        <pt x="131" y="22" on="0"/>
        <pt x="164" y="238" on="1"/>
        <pt x="444" y="238" on="1"/>
      </contour>
    </TTGlyph>
    <TTGlyph name="divide" xMin="88" yMin="166" xMax="1081" yMax="1168">
      <contour>
        <pt x="584" y="1168" on="1"/>
        <pt x="650" y="1168" on="0"/>
        <pt x="723" y="1089" on="0"/>
        <pt x="723" y="1016" on="1"/>
        <pt x="723" y="944" on="0"/>
        <pt x="646" y="865" on="0"/>
        <pt x="584" y="865" on="1"/>
        <pt x="520" y="865" on="0"/>
        <pt x="444" y="944" on="0"/>
        <pt x="444" y="1016" on="1"/>
        <pt x="444" y="1090" on="0"/>
        <pt x="516" y="1168" on="0"/>
      </contour>
      <contour>
        <pt x="88" y="557" on="1"/>
        <pt x="88" y="776" on="1"/>
        <pt x="1081" y="776" on="1"/>
        <pt x="1081" y="557" on="1"/>
      </contour>
      <contour>
        <pt x="584" y="469" on="1"/>
        <pt x="650" y="469" on="0"/>
        <pt x="723" y="391" on="0"/>
        <pt x="723" y="318" on="1"/>
        <pt x="723" y="246" on="0"/>
        <pt x="646" y="166" on="0"/>
        <pt x="584" y="166" on="1"/>
        <pt x="519" y="166" on="0"/>
        <pt x="444" y="246" on="0"/>
        <pt x="444" y="318" on="1"/>
        <pt x="444" y="391" on="0"/>
        <pt x="516" y="469" on="0"/>
      </contour>
    </TTGlyph>
    <TTGlyph name="eight" xMin="72" yMin="-20" xMax="1098" yMax="1354">
      <contour>
        <pt x="791" y="709" on="1"/>
        <pt x="947" y="634" on="0"/>
        <pt x="1098" y="455" on="0"/>
        <pt x="1098" y="347" on="1"/>
        <pt x="1098" y="179" on="0"/>
        <pt x="824" y="-20" on="0"/>
        <pt x="586" y="-20" on="1"/>
        <pt x="335" y="-20" on="0"/>
        <pt x="72" y="167" on="0"/>
        <pt x="72" y="340" on="1"/>
        <pt x="72" y="457" on="0"/>
        <pt x="207" y="635" on="0"/>
        <pt x="352" y="701" on="1"/>
        <pt x="231" y="770" on="0"/>
        <pt x="117" y="933" on="0"/>
        <pt x="117" y="1034" on="1"/>
        <pt x="117" y="1182" on="0"/>
        <pt x="374" y="1354" on="0"/>
        <pt x="586" y="1354" on="1"/>
        <pt x="799" y="1354" on="0"/>
        <pt x="1053" y="1184" on="0"/>
        <pt x="1053" y="1033" on="1"/>
        <pt x="1053" y="929" on="0"/>
        <pt x="922" y="767" on="0"/>
      </contour>
      <contour>
        <pt x="586" y="833" on="1"/>
        <pt x="681" y="870" on="0"/>
        <pt x="762" y="950" on="0"/>
        <pt x="762" y="1004" on="1"/>
        <pt x="762" y="1062" on="0"/>
        <pt x="668" y="1128" on="0"/>
        <pt x="584" y="1128" on="1"/>
        <pt x="502" y="1128" on="0"/>
        <pt x="408" y="1062" on="0"/>
        <pt x="408" y="1004" on="1"/>
        <pt x="408" y="953" on="0"/>
        <pt x="490" y="872" on="0"/>
      </contour>
      <contour>
        <pt x="571" y="579" on="1"/>
        <pt x="358" y="494" on="0"/>
        <pt x="358" y="364" on="1"/>
        <pt x="358" y="288" on="0"/>
        <pt x="471" y="207" on="0"/>
        <pt x="582" y="207" on="1"/>
        <pt x="693" y="207" on="0"/>
        <pt x="811" y="285" on="0"/>
        <pt x="811" y="363" on="1"/>
        <pt x="811" y="415" on="0"/>
        <pt x="720" y="512" on="0"/>
        <pt x="598" y="567" on="1"/>
      </contour>
    </TTGlyph>
    <TTGlyph name="ellipsis" xMin="117" yMin="-26" xMax="1634" yMax="314">
      <contour>
        <pt x="293" y="314" on="1"/>
        <pt x="375" y="314" on="0"/>
        <pt x="467" y="227" on="0"/>
        <pt x="467" y="144" on="1"/>
        <pt x="467" y="62" on="0"/>
        <pt x="372" y="-26" on="0"/>
        <pt x="293" y="-26" on="1"/>
        <pt x="211" y="-26" on="0"/>
        <pt x="117" y="62" on="0"/>
        <pt x="117" y="144" on="1"/>
        <pt x="117" y="227" on="0"/>
        <pt x="208" y="314" on="0"/>
      </contour>
      <contour>
        <pt x="877" y="314" on="1"/>
        <pt x="959" y="314" on="0"/>
        <pt x="1051" y="227" on="0"/>
        <pt x="1051" y="144" on="1"/>
        <pt x="1051" y="62" on="0"/>
        <pt x="956" y="-26" on="0"/>
        <pt x="877" y="-26" on="1"/>
        <pt x="795" y="-26" on="0"/>
        <pt x="700" y="62" on="0"/>
        <pt x="700" y="144" on="1"/>
        <pt x="700" y="227" on="0"/>
        <pt x="792" y="314" on="0"/>
      </contour>
      <contour>
        <pt x="1460" y="314" on="1"/>
        <pt x="1542" y="314" on="0"/>
        <pt x="1634" y="227" on="0"/>
        <pt x="1634" y="144" on="1"/>
        <pt x="1634" y="62" on="0"/>
        <pt x="1539" y="-26" on="0"/>
        <pt x="1460" y="-26" on="1"/>
        <pt x="1378" y="-26" on="0"/>
        <pt x="1284" y="62" on="0"/>
        <pt x="1284" y="144" on="1"/>
        <pt x="1284" y="227" on="0"/>
        <pt x="1375" y="314" on="0"/>
      </contour>
    </TTGlyph>
    <TTGlyph name="emdash" xMin="82" yMin="394" xMax="1966" yMax="644">
      <contour>
        <pt x="82" y="394" on="1"/>
        <pt x="82" y="644" on="1"/>
        <pt x="1966" y="644" on="1"/>
        <pt x="1966" y="394" on="1"/>
      </contour>
    </TTGlyph>
    <TTGlyph name="endash" xMin="82" yMin="394" xMax="942" yMax="644">
      <contour>
        <pt x="82" y="394" on="1"/>
        <pt x="82" y="644" on="1"/>
        <pt x="942" y="644" on="1"/>
        <pt x="942" y="394" on="1"/>
      </contour>
    </TTGlyph>
    <TTGlyph name="equal" xMin="88" yMin="363" xMax="1081" yMax="969">
      <contour>
        <pt x="88" y="752" on="1"/>
        <pt x="88" y="969" on="1"/>
        <pt x="1081" y="969" on="1"/>
        <pt x="1081" y="752" on="1"/>
      </contour>
      <contour>
        <pt x="88" y="363" on="1"/>
        <pt x="88" y="582" on="1"/>
        <pt x="1081" y="582" on="1"/>
        <pt x="1081" y="363" on="1"/>
      </contour>
    </TTGlyph>
    <TTGlyph name="exclam" xMin="158" yMin="-26" xMax="508" yMax="1333">
      <contour>
        <pt x="457" y="455" on="1"/>
        <pt x="213" y="455" on="1"/>
        <pt x="162" y="1333" on="1"/>
        <pt x="508" y="1333" on="1"/>
      </contour>
      <contour>
        <pt x="334" y="314" on="1"/>
        <pt x="416" y="314" on="0"/>
        <pt x="508" y="227" on="0"/>
        <pt x="508" y="144" on="1"/>
        <pt x="508" y="62" on="0"/>
        <pt x="413" y="-26" on="0"/>
        <pt x="334" y="-26" on="1"/>
        <pt x="252" y="-26" on="0"/>
        <pt x="158" y="62" on="0"/>
        <pt x="158" y="144" on="1"/>
        <pt x="158" y="227" on="0"/>
        <pt x="249" y="314" on="0"/>
      </contour>
    </TTGlyph>
    <TTGlyph name="five" xMin="100" yMin="-20" xMax="1077" yMax="1333">
      <contour>
        <pt x="100" y="59" on="1"/>
        <pt x="100" y="326" on="1"/>
        <pt x="178" y="284" on="0"/>
        <pt x="392" y="231" on="0"/>
        <pt x="483" y="231" on="1"/>
        <pt x="630" y="231" on="0"/>
        <pt x="766" y="325" on="0"/>
        <pt x="766" y="426" on="1"/>
        <pt x="766" y="611" on="0"/>
        <pt x="490" y="611" on="1"/>
        <pt x="375" y="611" on="0"/>
        <pt x="252" y="578" on="1"/>
        <pt x="129" y="644" on="1"/>
        <pt x="184" y="1333" on="1"/>
        <pt x="977" y="1333" on="1"/>
        <pt x="977" y="1071" on="1"/>
        <pt x="444" y="1071" on="1"/>
        <pt x="425" y="840" on="1"/>
        <pt x="517" y="861" on="0"/>
        <pt x="614" y="861" on="1"/>
        <pt x="829" y="861" on="0"/>
        <pt x="1077" y="644" on="0"/>
        <pt x="1077" y="450" on="1"/>
        <pt x="1077" y="220" on="0"/>
        <pt x="780" y="-20" on="0"/>
        <pt x="494" y="-20" on="1"/>
        <pt x="250" y="-20" on="0"/>
      </contour>
    </TTGlyph>
    <TTGlyph name="four" xMin="35" yMin="0" xMax="1137" yMax="1333">
      <contour>
        <pt x="1137" y="267" on="1"/>
        <pt x="961" y="267" on="1"/>
        <pt x="961" y="0" on="1"/>
        <pt x="659" y="0" on="1"/>
        <pt x="659" y="267" on="1"/>
        <pt x="35" y="267" on="1"/>
        <pt x="35" y="482" on="1"/>
        <pt x="676" y="1333" on="1"/>
        <pt x="961" y="1333" on="1"/>
        <pt x="961" y="507" on="1"/>
        <pt x="1137" y="507" on="1"/>
      </contour>
      <contour>
        <pt x="659" y="507" on="1"/>
        <pt x="659" y="724" on="1"/>
        <pt x="659" y="779" on="0"/>
        <pt x="668" y="960" on="0"/>
        <pt x="672" y="1002" on="1"/>
        <pt x="664" y="1002" on="1"/>
        <pt x="625" y="928" on="0"/>
        <pt x="575" y="862" on="1"/>
        <pt x="307" y="507" on="1"/>
      </contour>
    </TTGlyph>
    <TTGlyph name="glyph00101" xMin="20" yMin="-559" xMax="1322" yMax="1487">
      <component glyphName="glyph00666" x="0" y="0" flags="0x200"/>
      <component glyphName="glyph00762" x="0" y="0" flags="0x0"/>
      <component glyphName="glyph00724" x="258" y="0" flags="0x0"/>
    </TTGlyph>
    <TTGlyph name="glyph00102" xMin="20" yMin="-50" xMax="1237" yMax="1779">
      <component glyphName="glyph00666" x="0" y="0" flags="0x200"/>
      <component glyphName="uni0C4D" x="993" y="0" flags="0x0"/>
    </TTGlyph>
    <TTGlyph name="glyph00103" xMin="60" yMin="-285" xMax="1837" yMax="1779">
      <contour>
        <pt x="1205" y="1557" on="1"/>
        <pt x="1134" y="1557" on="0"/>
        <pt x="1068" y="1543" on="0"/>
        <pt x="1035" y="1507" on="0"/>
        <pt x="1035" y="1479" on="1"/>
        <pt x="1035" y="1447" on="0"/>
        <pt x="1066" y="1410" on="0"/>
        <pt x="1128" y="1399" on="0"/>
        <pt x="1202" y="1399" on="1"/>
        <pt x="1495" y="1399" on="1"/>
        <pt x="1495" y="1177" on="1"/>
        <pt x="1200" y="1177" on="1"/>
        <pt x="1109" y="1177" on="0"/>
        <pt x="1051" y="1135" on="0"/>
        <pt x="1051" y="1099" on="1"/>
        <pt x="1051" y="1062" on="0"/>
        <pt x="1102" y="1023" on="0"/>
        <pt x="1166" y="1023" on="1"/>
        <pt x="1247" y="1023" on="1"/>
        <pt x="1451" y="886" on="0"/>
        <pt x="1630" y="587" on="0"/>
        <pt x="1630" y="409" on="1"/>
        <pt x="1630" y="197" on="0"/>
        <pt x="1386" y="-26" on="0"/>
        <pt x="1152" y="-26" on="1"/>
        <pt x="1055" y="-26" on="0"/>
        <pt x="860" y="31" on="0"/>
        <pt x="763" y="89" on="1"/>
        <pt x="685" y="31" on="0"/>
        <pt x="502" y="-26" on="0"/>
        <pt x="397" y="-26" on="1"/>
        <pt x="235" y="-26" on="0"/>
        <pt x="60" y="119" on="0"/>
        <pt x="60" y="240" on="1"/>
        <pt x="60" y="348" on="0"/>
        <pt x="225" y="477" on="0"/>
        <pt x="367" y="477" on="1"/>
        <pt x="446" y="477" on="0"/>
        <pt x="598" y="436" on="0"/>
        <pt x="687" y="387" on="1"/>
        <pt x="694" y="413" on="0"/>
        <pt x="702" y="471" on="0"/>
        <pt x="702" y="503" on="1"/>
        <pt x="702" y="632" on="0"/>
        <pt x="650" y="716" on="1"/>
        <pt x="637" y="610" on="0"/>
        <pt x="491" y="489" on="0"/>
        <pt x="372" y="489" on="1"/>
        <pt x="237" y="489" on="0"/>
        <pt x="73" y="624" on="0"/>
        <pt x="73" y="744" on="1"/>
        <pt x="73" y="872" on="0"/>
        <pt x="264" y="1023" on="0"/>
        <pt x="438" y="1023" on="1"/>
        <pt x="608" y="1023" on="0"/>
        <pt x="850" y="887" on="0"/>
        <pt x="977" y="645" on="0"/>
        <pt x="977" y="510" on="1"/>
        <pt x="977" y="448" on="0"/>
        <pt x="949" y="332" on="0"/>
        <pt x="922" y="278" on="1"/>
        <pt x="979" y="247" on="0"/>
        <pt x="1071" y="222" on="0"/>
        <pt x="1140" y="222" on="1"/>
        <pt x="1245" y="222" on="0"/>
        <pt x="1345" y="301" on="0"/>
        <pt x="1345" y="387" on="1"/>
        <pt x="1345" y="510" on="0"/>
        <pt x="1215" y="718" on="0"/>
        <pt x="1085" y="804" on="1"/>
        <pt x="950" y="820" on="0"/>
        <pt x="806" y="963" on="0"/>
        <pt x="806" y="1082" on="1"/>
        <pt x="806" y="1205" on="0"/>
        <pt x="903" y="1284" on="1"/>
        <pt x="790" y="1379" on="0"/>
        <pt x="790" y="1510" on="1"/>
        <pt x="790" y="1607" on="0"/>
        <pt x="893" y="1729" on="0"/>
        <pt x="1068" y="1779" on="0"/>
        <pt x="1243" y="1779" on="1"/>
        <pt x="1837" y="1779" on="1"/>
        <pt x="1837" y="1557" on="1"/>
      </contour>
      <contour>
        <pt x="461" y="833" on="1"/>
        <pt x="433" y="837" on="0"/>
        <pt x="415" y="837" on="1"/>
        <pt x="358" y="837" on="0"/>
        <pt x="301" y="792" on="0"/>
        <pt x="301" y="753" on="1"/>
        <pt x="301" y="714" on="0"/>
        <pt x="345" y="675" on="0"/>
        <pt x="385" y="675" on="1"/>
        <pt x="430" y="675" on="0"/>
        <pt x="482" y="718" on="0"/>
        <pt x="482" y="756" on="1"/>
        <pt x="482" y="792" on="0"/>
      </contour>
      <contour>
        <pt x="558" y="221" on="1"/>
        <pt x="501" y="259" on="0"/>
        <pt x="414" y="288" on="0"/>
        <pt x="361" y="288" on="1"/>
        <pt x="321" y="288" on="0"/>
        <pt x="280" y="260" on="0"/>
        <pt x="280" y="236" on="1"/>
        <pt x="280" y="205" on="0"/>
        <pt x="331" y="180" on="0"/>
        <pt x="376" y="180" on="1"/>
        <pt x="430" y="180" on="0"/>
        <pt x="521" y="200" on="0"/>
      </contour>
      <contour>
        <pt x="633" y="-285" on="1"/>
        <pt x="648" y="15" on="1"/>
        <pt x="888" y="15" on="1"/>
        <pt x="903" y="-285" on="1"/>
      </contour>
      <contour>
        <pt x="849" y="-50" on="1"/>
      </contour>
    </TTGlyph>
    <TTGlyph name="glyph00104" xMin="76" yMin="-50" xMax="1290" yMax="1779">
      <component glyphName="glyph00668" x="0" y="0" flags="0x200"/>
      <component glyphName="uni0C4D" x="1046" y="0" flags="0x0"/>
    </TTGlyph>
    <TTGlyph name="glyph00105" xMin="56" yMin="-285" xMax="2303" yMax="1779">
      <component glyphName="glyph00669" x="0" y="0" flags="0x200"/>
      <component glyphName="uni0C4D" x="974" y="0" flags="0x0"/>
    </TTGlyph>
    <TTGlyph name="glyph00106" xMin="63" yMin="-50" xMax="1822" yMax="1779">
      <component glyphName="uni0C19" x="0" y="0" flags="0x200"/>
      <component glyphName="uni0C4D" x="1578" y="0" flags="0x0"/>
    </TTGlyph>
    <TTGlyph name="glyph00107" xMin="50" yMin="-50" xMax="1650" yMax="1779">
      <contour>
        <pt x="1018" y="1557" on="1"/>
        <pt x="947" y="1557" on="0"/>
        <pt x="881" y="1543" on="0"/>
        <pt x="848" y="1507" on="0"/>
        <pt x="848" y="1479" on="1"/>
        <pt x="848" y="1447" on="0"/>
        <pt x="879" y="1410" on="0"/>
        <pt x="941" y="1399" on="0"/>
        <pt x="1015" y="1399" on="1"/>
        <pt x="1308" y="1399" on="1"/>
        <pt x="1308" y="1177" on="1"/>
        <pt x="1013" y="1177" on="1"/>
        <pt x="922" y="1177" on="0"/>
        <pt x="864" y="1135" on="0"/>
        <pt x="864" y="1099" on="1"/>
        <pt x="864" y="1062" on="0"/>
        <pt x="915" y="1023" on="0"/>
        <pt x="979" y="1023" on="1"/>
        <pt x="1119" y="1023" on="1"/>
        <pt x="1362" y="954" on="0"/>
        <pt x="1648" y="614" on="0"/>
        <pt x="1648" y="409" on="1"/>
        <pt x="1648" y="207" on="0"/>
        <pt x="1419" y="-26" on="0"/>
        <pt x="1214" y="-26" on="1"/>
        <pt x="1103" y="-26" on="0"/>
        <pt x="949" y="57" on="0"/>
        <pt x="886" y="150" on="1"/>
        <pt x="827" y="63" on="0"/>
        <pt x="652" y="-26" on="0"/>
        <pt x="519" y="-26" on="1"/>
        <pt x="355" y="-26" on="0"/>
        <pt x="155" y="136" on="0"/>
        <pt x="155" y="270" on="1"/>
        <pt x="155" y="393" on="0"/>
        <pt x="244" y="472" on="1"/>
        <pt x="50" y="472" on="1"/>
        <pt x="50" y="712" on="1"/>
        <pt x="619" y="712" on="1"/>
        <pt x="619" y="497" on="1"/>
        <pt x="437" y="463" on="0"/>
        <pt x="437" y="340" on="1"/>
        <pt x="437" y="286" on="0"/>
        <pt x="505" y="223" on="0"/>
        <pt x="565" y="223" on="1"/>
        <pt x="644" y="223" on="0"/>
        <pt x="747" y="324" on="0"/>
        <pt x="755" y="413" on="1"/>
        <pt x="1018" y="413" on="1"/>
        <pt x="1029" y="326" on="0"/>
        <pt x="1115" y="222" on="0"/>
        <pt x="1210" y="222" on="1"/>
        <pt x="1363" y="222" on="0"/>
        <pt x="1363" y="396" on="1"/>
        <pt x="1363" y="532" on="0"/>
        <pt x="1170" y="744" on="0"/>
        <pt x="991" y="801" on="1"/>
        <pt x="967" y="801" on="1"/>
        <pt x="805" y="801" on="0"/>
        <pt x="619" y="947" on="0"/>
        <pt x="619" y="1082" on="1"/>
        <pt x="619" y="1205" on="0"/>
        <pt x="716" y="1284" on="1"/>
        <pt x="603" y="1379" on="0"/>
        <pt x="603" y="1510" on="1"/>
        <pt x="603" y="1607" on="0"/>
        <pt x="706" y="1729" on="0"/>
        <pt x="881" y="1779" on="0"/>
        <pt x="1056" y="1779" on="1"/>
        <pt x="1650" y="1779" on="1"/>
        <pt x="1650" y="1557" on="1"/>
      </contour>
      <contour>
        <pt x="858" y="-50" on="1"/>
      </contour>
    </TTGlyph>
    <TTGlyph name="glyph00108" xMin="50" yMin="-285" xMax="1650" yMax="1779">
      <contour>
        <pt x="1018" y="1557" on="1"/>
        <pt x="947" y="1557" on="0"/>
        <pt x="881" y="1543" on="0"/>
        <pt x="848" y="1507" on="0"/>
        <pt x="848" y="1479" on="1"/>
        <pt x="848" y="1447" on="0"/>
        <pt x="879" y="1410" on="0"/>
        <pt x="941" y="1399" on="0"/>
        <pt x="1015" y="1399" on="1"/>
        <pt x="1308" y="1399" on="1"/>
        <pt x="1308" y="1177" on="1"/>
        <pt x="1013" y="1177" on="1"/>
        <pt x="922" y="1177" on="0"/>
        <pt x="864" y="1135" on="0"/>
        <pt x="864" y="1099" on="1"/>
        <pt x="864" y="1062" on="0"/>
        <pt x="915" y="1023" on="0"/>
        <pt x="979" y="1023" on="1"/>
        <pt x="1119" y="1023" on="1"/>
        <pt x="1362" y="954" on="0"/>
        <pt x="1648" y="614" on="0"/>
        <pt x="1648" y="409" on="1"/>
        <pt x="1648" y="207" on="0"/>
        <pt x="1419" y="-26" on="0"/>
        <pt x="1214" y="-26" on="1"/>
        <pt x="1103" y="-26" on="0"/>
        <pt x="949" y="57" on="0"/>
        <pt x="886" y="150" on="1"/>
        <pt x="827" y="63" on="0"/>
        <pt x="652" y="-26" on="0"/>
        <pt x="519" y="-26" on="1"/>
        <pt x="355" y="-26" on="0"/>
        <pt x="155" y="136" on="0"/>
        <pt x="155" y="270" on="1"/>
        <pt x="155" y="393" on="0"/>
        <pt x="244" y="472" on="1"/>
        <pt x="50" y="472" on="1"/>
        <pt x="50" y="712" on="1"/>
        <pt x="619" y="712" on="1"/>
        <pt x="619" y="497" on="1"/>
        <pt x="437" y="463" on="0"/>
        <pt x="437" y="340" on="1"/>
        <pt x="437" y="286" on="0"/>
        <pt x="505" y="223" on="0"/>
        <pt x="565" y="223" on="1"/>
        <pt x="644" y="223" on="0"/>
        <pt x="747" y="324" on="0"/>
        <pt x="755" y="413" on="1"/>
        <pt x="1018" y="413" on="1"/>
        <pt x="1029" y="326" on="0"/>
        <pt x="1115" y="222" on="0"/>
        <pt x="1210" y="222" on="1"/>
        <pt x="1363" y="222" on="0"/>
        <pt x="1363" y="396" on="1"/>
        <pt x="1363" y="532" on="0"/>
        <pt x="1170" y="744" on="0"/>
        <pt x="991" y="801" on="1"/>
        <pt x="967" y="801" on="1"/>
        <pt x="805" y="801" on="0"/>
        <pt x="619" y="947" on="0"/>
        <pt x="619" y="1082" on="1"/>
        <pt x="619" y="1205" on="0"/>
        <pt x="716" y="1284" on="1"/>
        <pt x="603" y="1379" on="0"/>
        <pt x="603" y="1510" on="1"/>
        <pt x="603" y="1607" on="0"/>
        <pt x="706" y="1729" on="0"/>
        <pt x="881" y="1779" on="0"/>
        <pt x="1056" y="1779" on="1"/>
        <pt x="1650" y="1779" on="1"/>
        <pt x="1650" y="1557" on="1"/>
      </contour>
      <contour>
        <pt x="751" y="-285" on="1"/>
        <pt x="766" y="15" on="1"/>
        <pt x="1006" y="15" on="1"/>
        <pt x="1021" y="-285" on="1"/>
      </contour>
      <contour>
        <pt x="858" y="-50" on="1"/>
      </contour>
    </TTGlyph>
    <TTGlyph name="glyph00109" xMin="63" yMin="-50" xMax="1809" yMax="1779">
      <contour>
        <pt x="1177" y="1557" on="1"/>
        <pt x="1106" y="1557" on="0"/>
        <pt x="1040" y="1543" on="0"/>
        <pt x="1007" y="1507" on="0"/>
        <pt x="1007" y="1479" on="1"/>
        <pt x="1007" y="1447" on="0"/>
        <pt x="1038" y="1410" on="0"/>
        <pt x="1100" y="1399" on="0"/>
        <pt x="1174" y="1399" on="1"/>
        <pt x="1467" y="1399" on="1"/>
        <pt x="1467" y="1177" on="1"/>
        <pt x="1172" y="1177" on="1"/>
        <pt x="1081" y="1177" on="0"/>
        <pt x="1023" y="1135" on="0"/>
        <pt x="1023" y="1099" on="1"/>
        <pt x="1023" y="1023" on="0"/>
        <pt x="1132" y="1023" on="1"/>
        <pt x="1141" y="1023" on="1"/>
        <pt x="1295" y="1023" on="0"/>
        <pt x="1462" y="880" on="0"/>
        <pt x="1462" y="758" on="1"/>
        <pt x="1462" y="634" on="0"/>
        <pt x="1266" y="480" on="0"/>
        <pt x="1097" y="480" on="1"/>
        <pt x="908" y="480" on="0"/>
        <pt x="773" y="567" on="1"/>
        <pt x="701" y="494" on="0"/>
        <pt x="507" y="417" on="1"/>
        <pt x="419" y="382" on="0"/>
        <pt x="359" y="331" on="0"/>
        <pt x="359" y="297" on="1"/>
        <pt x="359" y="222" on="0"/>
        <pt x="487" y="222" on="1"/>
        <pt x="675" y="222" on="0"/>
        <pt x="702" y="413" on="1"/>
        <pt x="965" y="413" on="1"/>
        <pt x="975" y="328" on="0"/>
        <pt x="1055" y="222" on="0"/>
        <pt x="1151" y="222" on="1"/>
        <pt x="1215" y="222" on="0"/>
        <pt x="1285" y="283" on="0"/>
        <pt x="1285" y="335" on="1"/>
        <pt x="1285" y="392" on="0"/>
        <pt x="1257" y="449" on="1"/>
        <pt x="1505" y="525" on="1"/>
        <pt x="1570" y="423" on="0"/>
        <pt x="1570" y="292" on="1"/>
        <pt x="1570" y="143" on="0"/>
        <pt x="1365" y="-26" on="0"/>
        <pt x="1176" y="-26" on="1"/>
        <pt x="1053" y="-26" on="0"/>
        <pt x="896" y="55" on="0"/>
        <pt x="833" y="150" on="1"/>
        <pt x="760" y="55" on="0"/>
        <pt x="589" y="-26" on="0"/>
        <pt x="441" y="-26" on="1"/>
        <pt x="267" y="-26" on="0"/>
        <pt x="74" y="136" on="0"/>
        <pt x="74" y="267" on="1"/>
        <pt x="74" y="385" on="0"/>
        <pt x="213" y="530" on="0"/>
        <pt x="402" y="607" on="1"/>
        <pt x="505" y="649" on="0"/>
        <pt x="560" y="705" on="0"/>
        <pt x="560" y="740" on="1"/>
        <pt x="560" y="778" on="0"/>
        <pt x="508" y="821" on="0"/>
        <pt x="459" y="821" on="1"/>
        <pt x="346" y="821" on="0"/>
        <pt x="346" y="736" on="1"/>
        <pt x="346" y="694" on="0"/>
        <pt x="365" y="660" on="1"/>
        <pt x="110" y="588" on="1"/>
        <pt x="88" y="624" on="0"/>
        <pt x="63" y="725" on="0"/>
        <pt x="63" y="767" on="1"/>
        <pt x="63" y="881" on="0"/>
        <pt x="276" y="1023" on="0"/>
        <pt x="464" y="1023" on="1"/>
        <pt x="641" y="1023" on="0"/>
        <pt x="836" y="891" on="0"/>
        <pt x="842" y="764" on="1"/>
        <pt x="941" y="692" on="0"/>
        <pt x="1072" y="692" on="1"/>
        <pt x="1140" y="692" on="0"/>
        <pt x="1197" y="723" on="0"/>
        <pt x="1197" y="752" on="1"/>
        <pt x="1197" y="783" on="0"/>
        <pt x="1148" y="811" on="0"/>
        <pt x="1096" y="811" on="1"/>
        <pt x="1090" y="811" on="1"/>
        <pt x="943" y="811" on="0"/>
        <pt x="778" y="954" on="0"/>
        <pt x="778" y="1082" on="1"/>
        <pt x="778" y="1205" on="0"/>
        <pt x="875" y="1284" on="1"/>
        <pt x="762" y="1379" on="0"/>
        <pt x="762" y="1510" on="1"/>
        <pt x="762" y="1607" on="0"/>
        <pt x="865" y="1729" on="0"/>
        <pt x="1040" y="1779" on="0"/>
        <pt x="1215" y="1779" on="1"/>
        <pt x="1809" y="1779" on="1"/>
        <pt x="1809" y="1557" on="1"/>
      </contour>
      <contour>
        <pt x="815" y="-50" on="1"/>
      </contour>
    </TTGlyph>
    <TTGlyph name="glyph00110" xMin="68" yMin="-285" xMax="2711" yMax="1779">
      <component glyphName="glyph00678" x="0" y="0" flags="0x200"/>
      <component glyphName="uni0C4D" x="1036" y="0" flags="0x0"/>
    </TTGlyph>
    <TTGlyph name="glyph00111" xMin="56" yMin="-199" xMax="2380" yMax="1779">
      <component glyphName="uni0C1E" x="0" y="0" flags="0x200"/>
      <component glyphName="uni0C4D" x="2136" y="0" flags="0x0"/>
    </TTGlyph>
    <TTGlyph name="glyph00112" xMin="73" yMin="-50" xMax="1852" yMax="1779">
      <contour>
        <pt x="662" y="1288" on="1"/>
        <pt x="648" y="1016" on="1"/>
        <pt x="766" y="995" on="0"/>
        <pt x="898" y="838" on="0"/>
        <pt x="898" y="725" on="1"/>
        <pt x="898" y="427" on="0"/>
        <pt x="527" y="427" on="1"/>
        <pt x="436" y="427" on="0"/>
        <pt x="345" y="470" on="1"/>
        <pt x="345" y="469" on="1"/>
        <pt x="345" y="339" on="0"/>
        <pt x="437" y="222" on="0"/>
        <pt x="537" y="222" on="1"/>
        <pt x="725" y="222" on="0"/>
        <pt x="752" y="413" on="1"/>
        <pt x="1015" y="413" on="1"/>
        <pt x="1026" y="326" on="0"/>
        <pt x="1112" y="222" on="0"/>
        <pt x="1207" y="222" on="1"/>
        <pt x="1360" y="222" on="0"/>
        <pt x="1360" y="392" on="1"/>
        <pt x="1360" y="510" on="0"/>
        <pt x="1227" y="717" on="0"/>
        <pt x="1094" y="805" on="1"/>
        <pt x="961" y="822" on="0"/>
        <pt x="821" y="965" on="0"/>
        <pt x="821" y="1082" on="1"/>
        <pt x="821" y="1205" on="0"/>
        <pt x="918" y="1284" on="1"/>
        <pt x="805" y="1379" on="0"/>
        <pt x="805" y="1510" on="1"/>
        <pt x="805" y="1607" on="0"/>
        <pt x="908" y="1729" on="0"/>
        <pt x="1083" y="1779" on="0"/>
        <pt x="1258" y="1779" on="1"/>
        <pt x="1852" y="1779" on="1"/>
        <pt x="1852" y="1557" on="1"/>
        <pt x="1220" y="1557" on="1"/>
        <pt x="1149" y="1557" on="0"/>
        <pt x="1083" y="1543" on="0"/>
        <pt x="1050" y="1507" on="0"/>
        <pt x="1050" y="1479" on="1"/>
        <pt x="1050" y="1447" on="0"/>
        <pt x="1081" y="1410" on="0"/>
        <pt x="1143" y="1399" on="0"/>
        <pt x="1217" y="1399" on="1"/>
        <pt x="1510" y="1399" on="1"/>
        <pt x="1510" y="1177" on="1"/>
        <pt x="1215" y="1177" on="1"/>
        <pt x="1124" y="1177" on="0"/>
        <pt x="1066" y="1135" on="0"/>
        <pt x="1066" y="1099" on="1"/>
        <pt x="1066" y="1062" on="0"/>
        <pt x="1117" y="1023" on="0"/>
        <pt x="1181" y="1023" on="1"/>
        <pt x="1262" y="1023" on="1"/>
        <pt x="1466" y="886" on="0"/>
        <pt x="1645" y="587" on="0"/>
        <pt x="1645" y="409" on="1"/>
        <pt x="1645" y="207" on="0"/>
        <pt x="1416" y="-26" on="0"/>
        <pt x="1211" y="-26" on="1"/>
        <pt x="1100" y="-26" on="0"/>
        <pt x="946" y="57" on="0"/>
        <pt x="883" y="150" on="1"/>
        <pt x="810" y="55" on="0"/>
        <pt x="639" y="-26" on="0"/>
        <pt x="491" y="-26" on="1"/>
        <pt x="286" y="-26" on="0"/>
        <pt x="73" y="237" on="0"/>
        <pt x="73" y="476" on="1"/>
        <pt x="73" y="672" on="0"/>
        <pt x="247" y="947" on="0"/>
        <pt x="406" y="998" on="1"/>
        <pt x="392" y="1288" on="1"/>
      </contour>
      <contour>
        <pt x="368" y="671" on="1"/>
        <pt x="436" y="624" on="0"/>
        <pt x="509" y="624" on="1"/>
        <pt x="579" y="624" on="0"/>
        <pt x="651" y="677" on="0"/>
        <pt x="651" y="727" on="1"/>
        <pt x="651" y="767" on="0"/>
        <pt x="597" y="821" on="0"/>
        <pt x="554" y="821" on="1"/>
        <pt x="488" y="821" on="0"/>
        <pt x="392" y="746" on="0"/>
      </contour>
      <contour>
        <pt x="856" y="-50" on="1"/>
      </contour>
    </TTGlyph>
    <TTGlyph name="glyph00113" xMin="68" yMin="-50" xMax="1281" yMax="1779">
      <component glyphName="glyph00683" x="0" y="0" flags="0x0"/>
      <component glyphName="uni0C4D" x="1036" y="0" flags="0x0"/>
    </TTGlyph>
    <TTGlyph name="glyph00114" xMin="68" yMin="-50" xMax="1651" yMax="1779">
      <component glyphName="glyph00684" x="0" y="0" flags="0x200"/>
      <component glyphName="uni0C4D" x="1265" y="0" flags="0x0"/>
    </TTGlyph>
    <TTGlyph name="glyph00115" xMin="68" yMin="-285" xMax="1651" yMax="1779">
      <component glyphName="glyph00685" x="0" y="0" flags="0x200"/>
      <component glyphName="uni0C4D" x="1265" y="0" flags="0x0"/>
    </TTGlyph>
    <TTGlyph name="glyph00116" xMin="64" yMin="-50" xMax="1978" yMax="1779">
      <component glyphName="uni0C23" x="0" y="0" flags="0x200"/>
      <component glyphName="uni0C4D" x="1734" y="0" flags="0x0"/>
    </TTGlyph>
    <TTGlyph name="glyph00117" xMin="65" yMin="-50" xMax="1786" yMax="1779">
      <contour>
        <pt x="1154" y="1557" on="1"/>
        <pt x="1083" y="1557" on="0"/>
        <pt x="1017" y="1543" on="0"/>
        <pt x="984" y="1507" on="0"/>
        <pt x="984" y="1479" on="1"/>
        <pt x="984" y="1447" on="0"/>
        <pt x="1015" y="1410" on="0"/>
        <pt x="1077" y="1399" on="0"/>
        <pt x="1151" y="1399" on="1"/>
        <pt x="1444" y="1399" on="1"/>
        <pt x="1444" y="1177" on="1"/>
        <pt x="1149" y="1177" on="1"/>
        <pt x="1058" y="1177" on="0"/>
        <pt x="1000" y="1135" on="0"/>
        <pt x="1000" y="1099" on="1"/>
        <pt x="1000" y="1066" on="0"/>
        <pt x="1043" y="1025" on="0"/>
        <pt x="1103" y="1023" on="1"/>
        <pt x="1129" y="1023" on="1"/>
        <pt x="1349" y="1023" on="0"/>
        <pt x="1611" y="887" on="0"/>
        <pt x="1741" y="660" on="0"/>
        <pt x="1741" y="508" on="1"/>
        <pt x="1741" y="241" on="0"/>
        <pt x="1307" y="-26" on="0"/>
        <pt x="873" y="-26" on="1"/>
        <pt x="477" y="-26" on="0"/>
        <pt x="65" y="258" on="0"/>
        <pt x="65" y="515" on="1"/>
        <pt x="65" y="709" on="0"/>
        <pt x="306" y="944" on="0"/>
        <pt x="500" y="944" on="1"/>
        <pt x="659" y="944" on="0"/>
        <pt x="841" y="781" on="0"/>
        <pt x="841" y="646" on="1"/>
        <pt x="841" y="504" on="0"/>
        <pt x="655" y="348" on="0"/>
        <pt x="486" y="348" on="1"/>
        <pt x="417" y="348" on="0"/>
        <pt x="337" y="388" on="1"/>
        <pt x="385" y="307" on="0"/>
        <pt x="660" y="222" on="0"/>
        <pt x="875" y="222" on="1"/>
        <pt x="1161" y="222" on="0"/>
        <pt x="1435" y="319" on="0"/>
        <pt x="1471" y="428" on="1"/>
        <pt x="1378" y="348" on="0"/>
        <pt x="1240" y="348" on="1"/>
        <pt x="1106" y="348" on="0"/>
        <pt x="932" y="485" on="0"/>
        <pt x="932" y="605" on="1"/>
        <pt x="932" y="670" on="0"/>
        <pt x="985" y="774" on="0"/>
        <pt x="1038" y="813" on="1"/>
        <pt x="900" y="827" on="0"/>
        <pt x="755" y="966" on="0"/>
        <pt x="755" y="1082" on="1"/>
        <pt x="755" y="1205" on="0"/>
        <pt x="852" y="1284" on="1"/>
        <pt x="739" y="1379" on="0"/>
        <pt x="739" y="1510" on="1"/>
        <pt x="739" y="1607" on="0"/>
        <pt x="842" y="1729" on="0"/>
        <pt x="1017" y="1779" on="0"/>
        <pt x="1192" y="1779" on="1"/>
        <pt x="1786" y="1779" on="1"/>
        <pt x="1786" y="1557" on="1"/>
      </contour>
      <contour>
        <pt x="1465" y="649" on="1"/>
        <pt x="1420" y="742" on="0"/>
        <pt x="1306" y="742" on="1"/>
        <pt x="1250" y="742" on="0"/>
        <pt x="1180" y="687" on="0"/>
        <pt x="1180" y="639" on="1"/>
        <pt x="1180" y="592" on="0"/>
        <pt x="1241" y="544" on="0"/>
        <pt x="1295" y="544" on="1"/>
        <pt x="1348" y="544" on="0"/>
        <pt x="1436" y="599" on="0"/>
      </contour>
      <contour>
        <pt x="323" y="583" on="1"/>
        <pt x="384" y="545" on="0"/>
        <pt x="452" y="545" on="1"/>
        <pt x="522" y="545" on="0"/>
        <pt x="594" y="598" on="0"/>
        <pt x="594" y="648" on="1"/>
        <pt x="594" y="691" on="0"/>
        <pt x="539" y="742" on="0"/>
        <pt x="488" y="742" on="1"/>
        <pt x="429" y="742" on="0"/>
        <pt x="336" y="657" on="0"/>
      </contour>
      <contour>
        <pt x="903" y="-50" on="1"/>
      </contour>
    </TTGlyph>
    <TTGlyph name="glyph00118" xMin="68" yMin="-285" xMax="1567" yMax="1779">
      <component glyphName="glyph00687" x="0" y="0" flags="0x200"/>
      <component glyphName="uni0C4D" x="1235" y="0" flags="0x0"/>
    </TTGlyph>
    <TTGlyph name="glyph00119" xMin="68" yMin="-50" xMax="1567" yMax="1779">
      <component glyphName="glyph00688" x="0" y="0" flags="0x200"/>
      <component glyphName="uni0C4D" x="1235" y="0" flags="0x0"/>
    </TTGlyph>
    <TTGlyph name="glyph00120" xMin="68" yMin="-285" xMax="1567" yMax="1779">
      <component glyphName="glyph00689" x="0" y="0" flags="0x200"/>
      <component glyphName="uni0C4D" x="1235" y="0" flags="0x0"/>
    </TTGlyph>
    <TTGlyph name="glyph00121" xMin="56" yMin="-50" xMax="1513" yMax="1779">
      <contour>
        <pt x="809" y="1557" on="1"/>
        <pt x="738" y="1557" on="0"/>
        <pt x="672" y="1543" on="0"/>
        <pt x="639" y="1507" on="0"/>
        <pt x="639" y="1479" on="1"/>
        <pt x="639" y="1447" on="0"/>
        <pt x="670" y="1410" on="0"/>
        <pt x="732" y="1399" on="0"/>
        <pt x="806" y="1399" on="1"/>
        <pt x="1099" y="1399" on="1"/>
        <pt x="1099" y="1177" on="1"/>
        <pt x="804" y="1177" on="1"/>
        <pt x="713" y="1177" on="0"/>
        <pt x="655" y="1135" on="0"/>
        <pt x="655" y="1099" on="1"/>
        <pt x="655" y="1062" on="0"/>
        <pt x="706" y="1023" on="0"/>
        <pt x="770" y="1023" on="1"/>
        <pt x="1045" y="1023" on="1"/>
        <pt x="1279" y="921" on="0"/>
        <pt x="1513" y="617" on="0"/>
        <pt x="1513" y="415" on="1"/>
        <pt x="1513" y="210" on="0"/>
        <pt x="1283" y="-26" on="0"/>
        <pt x="1078" y="-26" on="1"/>
        <pt x="929" y="-26" on="0"/>
        <pt x="700" y="107" on="0"/>
        <pt x="570" y="255" on="1"/>
        <pt x="500" y="334" on="0"/>
        <pt x="442" y="377" on="0"/>
        <pt x="409" y="377" on="1"/>
        <pt x="379" y="377" on="0"/>
        <pt x="338" y="329" on="0"/>
        <pt x="338" y="293" on="1"/>
        <pt x="338" y="192" on="0"/>
        <pt x="431" y="61" on="1"/>
        <pt x="143" y="-26" on="1"/>
        <pt x="56" y="139" on="0"/>
        <pt x="56" y="301" on="1"/>
        <pt x="56" y="440" on="0"/>
        <pt x="253" y="624" on="0"/>
        <pt x="403" y="624" on="1"/>
        <pt x="513" y="624" on="0"/>
        <pt x="701" y="533" on="0"/>
        <pt x="832" y="388" on="1"/>
        <pt x="917" y="293" on="0"/>
        <pt x="1020" y="222" on="0"/>
        <pt x="1085" y="222" on="1"/>
        <pt x="1154" y="222" on="0"/>
        <pt x="1228" y="311" on="0"/>
        <pt x="1228" y="395" on="1"/>
        <pt x="1228" y="528" on="0"/>
        <pt x="1051" y="741" on="0"/>
        <pt x="885" y="801" on="1"/>
        <pt x="758" y="801" on="1"/>
        <pt x="596" y="801" on="0"/>
        <pt x="410" y="947" on="0"/>
        <pt x="410" y="1082" on="1"/>
        <pt x="410" y="1205" on="0"/>
        <pt x="507" y="1284" on="1"/>
        <pt x="394" y="1379" on="0"/>
        <pt x="394" y="1510" on="1"/>
        <pt x="394" y="1607" on="0"/>
        <pt x="497" y="1729" on="0"/>
        <pt x="672" y="1779" on="0"/>
        <pt x="847" y="1779" on="1"/>
        <pt x="1441" y="1779" on="1"/>
        <pt x="1441" y="1557" on="1"/>
      </contour>
      <contour>
        <pt x="790" y="-50" on="1"/>
      </contour>
    </TTGlyph>
    <TTGlyph name="glyph00122" xMin="56" yMin="-50" xMax="1520" yMax="1779">
      <component glyphName="glyph00692" x="0" y="0" flags="0x200"/>
      <component glyphName="uni0C4D" x="974" y="0" flags="0x0"/>
    </TTGlyph>
    <TTGlyph name="glyph00123" xMin="56" yMin="-285" xMax="1520" yMax="1779">
      <component glyphName="glyph00695" x="0" y="0" flags="0x200"/>
      <component glyphName="uni0C4D" x="974" y="0" flags="0x0"/>
    </TTGlyph>
    <TTGlyph name="glyph00124" xMin="63" yMin="-50" xMax="1802" yMax="1779">
      <contour>
        <pt x="1170" y="1557" on="1"/>
        <pt x="1099" y="1557" on="0"/>
        <pt x="1033" y="1543" on="0"/>
        <pt x="1000" y="1507" on="0"/>
        <pt x="1000" y="1479" on="1"/>
        <pt x="1000" y="1447" on="0"/>
        <pt x="1031" y="1410" on="0"/>
        <pt x="1093" y="1399" on="0"/>
        <pt x="1167" y="1399" on="1"/>
        <pt x="1460" y="1399" on="1"/>
        <pt x="1460" y="1177" on="1"/>
        <pt x="1165" y="1177" on="1"/>
        <pt x="1074" y="1177" on="0"/>
        <pt x="1016" y="1135" on="0"/>
        <pt x="1016" y="1099" on="1"/>
        <pt x="1016" y="1062" on="0"/>
        <pt x="1067" y="1023" on="0"/>
        <pt x="1131" y="1023" on="1"/>
        <pt x="1212" y="1023" on="1"/>
        <pt x="1416" y="886" on="0"/>
        <pt x="1595" y="587" on="0"/>
        <pt x="1595" y="409" on="1"/>
        <pt x="1595" y="207" on="0"/>
        <pt x="1366" y="-26" on="0"/>
        <pt x="1161" y="-26" on="1"/>
        <pt x="1050" y="-26" on="0"/>
        <pt x="896" y="57" on="0"/>
        <pt x="833" y="150" on="1"/>
        <pt x="760" y="55" on="0"/>
        <pt x="589" y="-26" on="0"/>
        <pt x="441" y="-26" on="1"/>
        <pt x="267" y="-26" on="0"/>
        <pt x="74" y="136" on="0"/>
        <pt x="74" y="267" on="1"/>
        <pt x="74" y="385" on="0"/>
        <pt x="213" y="530" on="0"/>
        <pt x="402" y="607" on="1"/>
        <pt x="505" y="649" on="0"/>
        <pt x="560" y="705" on="0"/>
        <pt x="560" y="740" on="1"/>
        <pt x="560" y="778" on="0"/>
        <pt x="508" y="821" on="0"/>
        <pt x="459" y="821" on="1"/>
        <pt x="346" y="821" on="0"/>
        <pt x="346" y="736" on="1"/>
        <pt x="346" y="694" on="0"/>
        <pt x="365" y="660" on="1"/>
        <pt x="110" y="588" on="1"/>
        <pt x="88" y="624" on="0"/>
        <pt x="63" y="725" on="0"/>
        <pt x="63" y="767" on="1"/>
        <pt x="63" y="881" on="0"/>
        <pt x="276" y="1023" on="0"/>
        <pt x="464" y="1023" on="1"/>
        <pt x="649" y="1023" on="0"/>
        <pt x="842" y="882" on="0"/>
        <pt x="842" y="753" on="1"/>
        <pt x="842" y="662" on="0"/>
        <pt x="767" y="550" on="0"/>
        <pt x="618" y="461" on="0"/>
        <pt x="507" y="417" on="1"/>
        <pt x="419" y="382" on="0"/>
        <pt x="359" y="331" on="0"/>
        <pt x="359" y="297" on="1"/>
        <pt x="359" y="222" on="0"/>
        <pt x="487" y="222" on="1"/>
        <pt x="675" y="222" on="0"/>
        <pt x="702" y="413" on="1"/>
        <pt x="965" y="413" on="1"/>
        <pt x="976" y="326" on="0"/>
        <pt x="1062" y="222" on="0"/>
        <pt x="1157" y="222" on="1"/>
        <pt x="1310" y="222" on="0"/>
        <pt x="1310" y="392" on="1"/>
        <pt x="1310" y="506" on="0"/>
        <pt x="1178" y="718" on="0"/>
        <pt x="1052" y="804" on="1"/>
        <pt x="918" y="819" on="0"/>
        <pt x="771" y="962" on="0"/>
        <pt x="771" y="1082" on="1"/>
        <pt x="771" y="1205" on="0"/>
        <pt x="868" y="1284" on="1"/>
        <pt x="755" y="1379" on="0"/>
        <pt x="755" y="1510" on="1"/>
        <pt x="755" y="1607" on="0"/>
        <pt x="858" y="1729" on="0"/>
        <pt x="1033" y="1779" on="0"/>
        <pt x="1208" y="1779" on="1"/>
        <pt x="1802" y="1779" on="1"/>
        <pt x="1802" y="1557" on="1"/>
      </contour>
      <contour>
        <pt x="831" y="-50" on="1"/>
      </contour>
    </TTGlyph>
    <TTGlyph name="glyph00125" xMin="63" yMin="-285" xMax="1802" yMax="1779">
      <contour>
        <pt x="1170" y="1557" on="1"/>
        <pt x="1099" y="1557" on="0"/>
        <pt x="1033" y="1543" on="0"/>
        <pt x="1000" y="1507" on="0"/>
        <pt x="1000" y="1479" on="1"/>
        <pt x="1000" y="1447" on="0"/>
        <pt x="1031" y="1410" on="0"/>
        <pt x="1093" y="1399" on="0"/>
        <pt x="1167" y="1399" on="1"/>
        <pt x="1460" y="1399" on="1"/>
        <pt x="1460" y="1177" on="1"/>
        <pt x="1165" y="1177" on="1"/>
        <pt x="1074" y="1177" on="0"/>
        <pt x="1016" y="1135" on="0"/>
        <pt x="1016" y="1099" on="1"/>
        <pt x="1016" y="1062" on="0"/>
        <pt x="1067" y="1023" on="0"/>
        <pt x="1131" y="1023" on="1"/>
        <pt x="1212" y="1023" on="1"/>
        <pt x="1416" y="886" on="0"/>
        <pt x="1595" y="587" on="0"/>
        <pt x="1595" y="409" on="1"/>
        <pt x="1595" y="207" on="0"/>
        <pt x="1366" y="-26" on="0"/>
        <pt x="1161" y="-26" on="1"/>
        <pt x="1050" y="-26" on="0"/>
        <pt x="896" y="57" on="0"/>
        <pt x="833" y="150" on="1"/>
        <pt x="760" y="55" on="0"/>
        <pt x="589" y="-26" on="0"/>
        <pt x="441" y="-26" on="1"/>
        <pt x="267" y="-26" on="0"/>
        <pt x="74" y="136" on="0"/>
        <pt x="74" y="267" on="1"/>
        <pt x="74" y="385" on="0"/>
        <pt x="213" y="530" on="0"/>
        <pt x="402" y="607" on="1"/>
        <pt x="505" y="649" on="0"/>
        <pt x="560" y="705" on="0"/>
        <pt x="560" y="740" on="1"/>
        <pt x="560" y="778" on="0"/>
        <pt x="508" y="821" on="0"/>
        <pt x="459" y="821" on="1"/>
        <pt x="346" y="821" on="0"/>
        <pt x="346" y="736" on="1"/>
        <pt x="346" y="694" on="0"/>
        <pt x="365" y="660" on="1"/>
        <pt x="110" y="588" on="1"/>
        <pt x="88" y="624" on="0"/>
        <pt x="63" y="725" on="0"/>
        <pt x="63" y="767" on="1"/>
        <pt x="63" y="881" on="0"/>
        <pt x="276" y="1023" on="0"/>
        <pt x="464" y="1023" on="1"/>
        <pt x="649" y="1023" on="0"/>
        <pt x="842" y="882" on="0"/>
        <pt x="842" y="753" on="1"/>
        <pt x="842" y="662" on="0"/>
        <pt x="767" y="550" on="0"/>
        <pt x="618" y="461" on="0"/>
        <pt x="507" y="417" on="1"/>
        <pt x="419" y="382" on="0"/>
        <pt x="359" y="331" on="0"/>
        <pt x="359" y="297" on="1"/>
        <pt x="359" y="222" on="0"/>
        <pt x="487" y="222" on="1"/>
        <pt x="675" y="222" on="0"/>
        <pt x="702" y="413" on="1"/>
        <pt x="965" y="413" on="1"/>
        <pt x="976" y="326" on="0"/>
        <pt x="1062" y="222" on="0"/>
        <pt x="1157" y="222" on="1"/>
        <pt x="1310" y="222" on="0"/>
        <pt x="1310" y="392" on="1"/>
        <pt x="1310" y="506" on="0"/>
        <pt x="1178" y="718" on="0"/>
        <pt x="1052" y="804" on="1"/>
        <pt x="918" y="819" on="0"/>
        <pt x="771" y="962" on="0"/>
        <pt x="771" y="1082" on="1"/>
        <pt x="771" y="1205" on="0"/>
        <pt x="868" y="1284" on="1"/>
        <pt x="755" y="1379" on="0"/>
        <pt x="755" y="1510" on="1"/>
        <pt x="755" y="1607" on="0"/>
        <pt x="858" y="1729" on="0"/>
        <pt x="1033" y="1779" on="0"/>
        <pt x="1208" y="1779" on="1"/>
        <pt x="1802" y="1779" on="1"/>
        <pt x="1802" y="1557" on="1"/>
      </contour>
      <contour>
        <pt x="698" y="-285" on="1"/>
        <pt x="713" y="15" on="1"/>
        <pt x="953" y="15" on="1"/>
        <pt x="968" y="-285" on="1"/>
      </contour>
      <contour>
        <pt x="831" y="-50" on="1"/>
      </contour>
    </TTGlyph>
    <TTGlyph name="glyph00126" xMin="56" yMin="-50" xMax="2235" yMax="1779">
      <contour>
        <pt x="1434" y="124" on="1"/>
        <pt x="1377" y="49" on="0"/>
        <pt x="1206" y="-26" on="0"/>
        <pt x="1093" y="-26" on="1"/>
        <pt x="982" y="-26" on="0"/>
        <pt x="822" y="46" on="0"/>
        <pt x="733" y="131" on="1"/>
        <pt x="663" y="40" on="0"/>
        <pt x="510" y="-26" on="0"/>
        <pt x="401" y="-26" on="1"/>
        <pt x="238" y="-26" on="0"/>
        <pt x="56" y="157" on="0"/>
        <pt x="56" y="299" on="1"/>
        <pt x="56" y="442" on="0"/>
        <pt x="257" y="624" on="0"/>
        <pt x="415" y="624" on="1"/>
        <pt x="534" y="624" on="0"/>
        <pt x="710" y="531" on="0"/>
        <pt x="834" y="393" on="1"/>
        <pt x="896" y="324" on="0"/>
        <pt x="980" y="251" on="0"/>
        <pt x="1047" y="222" on="0"/>
        <pt x="1092" y="222" on="1"/>
        <pt x="1161" y="222" on="0"/>
        <pt x="1235" y="311" on="0"/>
        <pt x="1235" y="395" on="1"/>
        <pt x="1235" y="535" on="0"/>
        <pt x="1046" y="748" on="0"/>
        <pt x="871" y="801" on="1"/>
        <pt x="765" y="801" on="1"/>
        <pt x="603" y="801" on="0"/>
        <pt x="417" y="947" on="0"/>
        <pt x="417" y="1082" on="1"/>
        <pt x="417" y="1205" on="0"/>
        <pt x="514" y="1284" on="1"/>
        <pt x="401" y="1379" on="0"/>
        <pt x="401" y="1510" on="1"/>
        <pt x="401" y="1607" on="0"/>
        <pt x="504" y="1729" on="0"/>
        <pt x="679" y="1779" on="0"/>
        <pt x="854" y="1779" on="1"/>
        <pt x="1448" y="1779" on="1"/>
        <pt x="1448" y="1557" on="1"/>
        <pt x="816" y="1557" on="1"/>
        <pt x="745" y="1557" on="0"/>
        <pt x="679" y="1543" on="0"/>
        <pt x="646" y="1507" on="0"/>
        <pt x="646" y="1479" on="1"/>
        <pt x="646" y="1447" on="0"/>
        <pt x="677" y="1410" on="0"/>
        <pt x="739" y="1399" on="0"/>
        <pt x="813" y="1399" on="1"/>
        <pt x="1106" y="1399" on="1"/>
        <pt x="1106" y="1177" on="1"/>
        <pt x="811" y="1177" on="1"/>
        <pt x="720" y="1177" on="0"/>
        <pt x="662" y="1135" on="0"/>
        <pt x="662" y="1099" on="1"/>
        <pt x="662" y="1062" on="0"/>
        <pt x="713" y="1023" on="0"/>
        <pt x="777" y="1023" on="1"/>
        <pt x="1052" y="1023" on="1"/>
        <pt x="1286" y="921" on="0"/>
        <pt x="1520" y="617" on="0"/>
        <pt x="1520" y="415" on="1"/>
        <pt x="1520" y="395" on="1"/>
        <pt x="1520" y="385" on="0"/>
        <pt x="1519" y="375" on="1"/>
        <pt x="1593" y="293" on="0"/>
        <pt x="1728" y="222" on="0"/>
        <pt x="1801" y="222" on="1"/>
        <pt x="1873" y="222" on="0"/>
        <pt x="1950" y="305" on="0"/>
        <pt x="1950" y="387" on="1"/>
        <pt x="1950" y="498" on="0"/>
        <pt x="1813" y="694" on="0"/>
        <pt x="1648" y="797" on="1"/>
        <pt x="1809" y="1023" on="1"/>
        <pt x="2021" y="906" on="0"/>
        <pt x="2235" y="595" on="0"/>
        <pt x="2235" y="409" on="1"/>
        <pt x="2235" y="207" on="0"/>
        <pt x="2006" y="-26" on="0"/>
        <pt x="1801" y="-26" on="1"/>
        <pt x="1700" y="-26" on="0"/>
        <pt x="1521" y="45" on="0"/>
      </contour>
      <contour>
        <pt x="578" y="294" on="1"/>
        <pt x="516" y="365" on="0"/>
        <pt x="456" y="406" on="0"/>
        <pt x="418" y="406" on="1"/>
        <pt x="379" y="406" on="0"/>
        <pt x="322" y="349" on="0"/>
        <pt x="322" y="302" on="1"/>
        <pt x="322" y="245" on="0"/>
        <pt x="381" y="187" on="0"/>
        <pt x="434" y="187" on="1"/>
        <pt x="478" y="187" on="0"/>
        <pt x="555" y="243" on="0"/>
      </contour>
      <contour>
        <pt x="1151" y="-50" on="1"/>
      </contour>
    </TTGlyph>
    <TTGlyph name="glyph00127" xMin="68" yMin="-50" xMax="2643" yMax="1779">
      <contour>
        <pt x="1101" y="150" on="1"/>
        <pt x="1024" y="62" on="0"/>
        <pt x="794" y="-26" on="0"/>
        <pt x="640" y="-26" on="1"/>
        <pt x="371" y="-26" on="0"/>
        <pt x="68" y="248" on="0"/>
        <pt x="68" y="483" on="1"/>
        <pt x="68" y="641" on="0"/>
        <pt x="208" y="889" on="0"/>
        <pt x="467" y="1023" on="0"/>
        <pt x="640" y="1023" on="1"/>
        <pt x="910" y="1023" on="0"/>
        <pt x="1213" y="734" on="0"/>
        <pt x="1213" y="486" on="1"/>
        <pt x="1213" y="433" on="0"/>
        <pt x="1205" y="383" on="1"/>
        <pt x="1284" y="295" on="0"/>
        <pt x="1419" y="222" on="0"/>
        <pt x="1494" y="222" on="1"/>
        <pt x="1566" y="222" on="0"/>
        <pt x="1643" y="305" on="0"/>
        <pt x="1643" y="387" on="1"/>
        <pt x="1643" y="504" on="0"/>
        <pt x="1520" y="705" on="0"/>
        <pt x="1381" y="803" on="1"/>
        <pt x="1236" y="815" on="0"/>
        <pt x="1084" y="959" on="0"/>
        <pt x="1084" y="1082" on="1"/>
        <pt x="1084" y="1205" on="0"/>
        <pt x="1181" y="1284" on="1"/>
        <pt x="1068" y="1379" on="0"/>
        <pt x="1068" y="1510" on="1"/>
        <pt x="1068" y="1607" on="0"/>
        <pt x="1171" y="1729" on="0"/>
        <pt x="1346" y="1779" on="0"/>
        <pt x="1521" y="1779" on="1"/>
        <pt x="2115" y="1779" on="1"/>
        <pt x="2115" y="1557" on="1"/>
        <pt x="1483" y="1557" on="1"/>
        <pt x="1412" y="1557" on="0"/>
        <pt x="1346" y="1543" on="0"/>
        <pt x="1313" y="1507" on="0"/>
        <pt x="1313" y="1479" on="1"/>
        <pt x="1313" y="1447" on="0"/>
        <pt x="1344" y="1410" on="0"/>
        <pt x="1406" y="1399" on="0"/>
        <pt x="1480" y="1399" on="1"/>
        <pt x="1773" y="1399" on="1"/>
        <pt x="1773" y="1177" on="1"/>
        <pt x="1478" y="1177" on="1"/>
        <pt x="1387" y="1177" on="0"/>
        <pt x="1329" y="1135" on="0"/>
        <pt x="1329" y="1099" on="1"/>
        <pt x="1329" y="1062" on="0"/>
        <pt x="1380" y="1023" on="0"/>
        <pt x="1444" y="1023" on="1"/>
        <pt x="1545" y="1023" on="1"/>
        <pt x="1749" y="886" on="0"/>
        <pt x="1928" y="587" on="0"/>
        <pt x="1928" y="409" on="1"/>
        <pt x="1928" y="392" on="1"/>
        <pt x="1927" y="384" on="0"/>
        <pt x="1927" y="375" on="1"/>
        <pt x="2001" y="293" on="0"/>
        <pt x="2136" y="222" on="0"/>
        <pt x="2209" y="222" on="1"/>
        <pt x="2281" y="222" on="0"/>
        <pt x="2358" y="305" on="0"/>
        <pt x="2358" y="387" on="1"/>
        <pt x="2358" y="498" on="0"/>
        <pt x="2221" y="694" on="0"/>
        <pt x="2056" y="797" on="1"/>
        <pt x="2217" y="1023" on="1"/>
        <pt x="2429" y="906" on="0"/>
        <pt x="2643" y="595" on="0"/>
        <pt x="2643" y="409" on="1"/>
        <pt x="2643" y="207" on="0"/>
        <pt x="2414" y="-26" on="0"/>
        <pt x="2209" y="-26" on="1"/>
        <pt x="2107" y="-26" on="0"/>
        <pt x="1929" y="45" on="0"/>
        <pt x="1843" y="124" on="1"/>
        <pt x="1784" y="49" on="0"/>
        <pt x="1610" y="-26" on="0"/>
        <pt x="1494" y="-26" on="1"/>
        <pt x="1381" y="-26" on="0"/>
        <pt x="1191" y="60" on="0"/>
      </contour>
      <contour>
        <pt x="640" y="222" on="1"/>
        <pt x="776" y="222" on="0"/>
        <pt x="929" y="368" on="0"/>
        <pt x="929" y="492" on="1"/>
        <pt x="929" y="620" on="0"/>
        <pt x="775" y="775" on="0"/>
        <pt x="640" y="775" on="1"/>
        <pt x="506" y="775" on="0"/>
        <pt x="352" y="623" on="0"/>
        <pt x="352" y="501" on="1"/>
        <pt x="352" y="372" on="0"/>
        <pt x="505" y="222" on="0"/>
      </contour>
      <contour>
        <pt x="1355" y="-50" on="1"/>
      </contour>
    </TTGlyph>
    <TTGlyph name="glyph00128" xMin="68" yMin="-50" xMax="1281" yMax="1779">
      <component glyphName="glyph00711" x="0" y="0" flags="0x200"/>
      <component glyphName="uni0C4D" x="1036" y="0" flags="0x0"/>
    </TTGlyph>
    <TTGlyph name="glyph00129" xMin="65" yMin="-50" xMax="2000" yMax="1779">
      <component glyphName="uni0C31" x="0" y="0" flags="0x200"/>
      <component glyphName="uni0C4D" x="1756" y="0" flags="0x0"/>
    </TTGlyph>
    <TTGlyph name="glyph00130" xMin="65" yMin="-50" xMax="1812" yMax="1779">
      <contour>
        <pt x="344" y="457" on="1"/>
        <pt x="382" y="342" on="0"/>
        <pt x="616" y="222" on="0"/>
        <pt x="798" y="222" on="1"/>
        <pt x="1012" y="222" on="0"/>
        <pt x="1226" y="363" on="0"/>
        <pt x="1226" y="508" on="1"/>
        <pt x="1226" y="676" on="0"/>
        <pt x="1070" y="803" on="1"/>
        <pt x="930" y="817" on="0"/>
        <pt x="781" y="962" on="0"/>
        <pt x="781" y="1082" on="1"/>
        <pt x="781" y="1205" on="0"/>
        <pt x="878" y="1284" on="1"/>
        <pt x="765" y="1379" on="0"/>
        <pt x="765" y="1510" on="1"/>
        <pt x="765" y="1607" on="0"/>
        <pt x="868" y="1729" on="0"/>
        <pt x="1043" y="1779" on="0"/>
        <pt x="1218" y="1779" on="1"/>
        <pt x="1812" y="1779" on="1"/>
        <pt x="1812" y="1557" on="1"/>
        <pt x="1180" y="1557" on="1"/>
        <pt x="1109" y="1557" on="0"/>
        <pt x="1043" y="1543" on="0"/>
        <pt x="1010" y="1507" on="0"/>
        <pt x="1010" y="1479" on="1"/>
        <pt x="1010" y="1447" on="0"/>
        <pt x="1041" y="1410" on="0"/>
        <pt x="1103" y="1399" on="0"/>
        <pt x="1177" y="1399" on="1"/>
        <pt x="1470" y="1399" on="1"/>
        <pt x="1470" y="1177" on="1"/>
        <pt x="1175" y="1177" on="1"/>
        <pt x="1084" y="1177" on="0"/>
        <pt x="1026" y="1135" on="0"/>
        <pt x="1026" y="1099" on="1"/>
        <pt x="1026" y="1062" on="0"/>
        <pt x="1077" y="1023" on="0"/>
        <pt x="1141" y="1023" on="1"/>
        <pt x="1231" y="1023" on="1"/>
        <pt x="1511" y="814" on="0"/>
        <pt x="1511" y="512" on="1"/>
        <pt x="1511" y="252" on="0"/>
        <pt x="1138" y="-26" on="0"/>
        <pt x="782" y="-26" on="1"/>
        <pt x="567" y="-26" on="0"/>
        <pt x="242" y="117" on="0"/>
        <pt x="65" y="386" on="0"/>
        <pt x="65" y="559" on="1"/>
        <pt x="65" y="771" on="0"/>
        <pt x="313" y="1023" on="0"/>
        <pt x="517" y="1023" on="1"/>
        <pt x="679" y="1023" on="0"/>
        <pt x="861" y="855" on="0"/>
        <pt x="861" y="726" on="1"/>
        <pt x="861" y="583" on="0"/>
        <pt x="679" y="427" on="0"/>
        <pt x="510" y="427" on="1"/>
        <pt x="423" y="427" on="0"/>
      </contour>
      <contour>
        <pt x="335" y="656" on="1"/>
        <pt x="390" y="624" on="0"/>
        <pt x="452" y="624" on="1"/>
        <pt x="594" y="624" on="0"/>
        <pt x="594" y="727" on="1"/>
        <pt x="594" y="767" on="0"/>
        <pt x="540" y="821" on="0"/>
        <pt x="498" y="821" on="1"/>
        <pt x="436" y="821" on="0"/>
        <pt x="346" y="729" on="0"/>
      </contour>
      <contour>
        <pt x="788" y="-50" on="1"/>
      </contour>
    </TTGlyph>
    <TTGlyph name="glyph00131" xMin="54" yMin="-50" xMax="1617" yMax="1779">
      <contour>
        <pt x="985" y="1557" on="1"/>
        <pt x="914" y="1557" on="0"/>
        <pt x="848" y="1543" on="0"/>
        <pt x="815" y="1507" on="0"/>
        <pt x="815" y="1479" on="1"/>
        <pt x="815" y="1447" on="0"/>
        <pt x="846" y="1410" on="0"/>
        <pt x="908" y="1399" on="0"/>
        <pt x="982" y="1399" on="1"/>
        <pt x="1275" y="1399" on="1"/>
        <pt x="1275" y="1177" on="1"/>
        <pt x="980" y="1177" on="1"/>
        <pt x="889" y="1177" on="0"/>
        <pt x="831" y="1135" on="0"/>
        <pt x="831" y="1099" on="1"/>
        <pt x="831" y="1062" on="0"/>
        <pt x="882" y="1023" on="0"/>
        <pt x="946" y="1023" on="1"/>
        <pt x="1124" y="1023" on="1"/>
        <pt x="1253" y="965" on="0"/>
        <pt x="1396" y="778" on="0"/>
        <pt x="1396" y="663" on="1"/>
        <pt x="1396" y="525" on="0"/>
        <pt x="1221" y="348" on="0"/>
        <pt x="1047" y="309" on="1"/>
        <pt x="1098" y="257" on="0"/>
        <pt x="1098" y="193" on="1"/>
        <pt x="1098" y="87" on="0"/>
        <pt x="909" y="-26" on="0"/>
        <pt x="731" y="-26" on="1"/>
        <pt x="567" y="-26" on="0"/>
        <pt x="375" y="83" on="0"/>
        <pt x="375" y="189" on="1"/>
        <pt x="375" y="268" on="0"/>
        <pt x="433" y="316" on="1"/>
        <pt x="243" y="349" on="0"/>
        <pt x="54" y="508" on="0"/>
        <pt x="54" y="633" on="1"/>
        <pt x="54" y="760" on="0"/>
        <pt x="245" y="912" on="0"/>
        <pt x="418" y="912" on="1"/>
        <pt x="593" y="912" on="0"/>
        <pt x="772" y="779" on="0"/>
        <pt x="772" y="672" on="1"/>
        <pt x="772" y="572" on="0"/>
        <pt x="696" y="502" on="1"/>
        <pt x="793" y="496" on="1"/>
        <pt x="949" y="508" on="0"/>
        <pt x="1112" y="596" on="0"/>
        <pt x="1112" y="663" on="1"/>
        <pt x="1112" y="714" on="0"/>
        <pt x="1058" y="780" on="0"/>
        <pt x="1004" y="801" on="1"/>
        <pt x="934" y="801" on="1"/>
        <pt x="772" y="801" on="0"/>
        <pt x="586" y="947" on="0"/>
        <pt x="586" y="1082" on="1"/>
        <pt x="586" y="1205" on="0"/>
        <pt x="683" y="1284" on="1"/>
        <pt x="570" y="1379" on="0"/>
        <pt x="570" y="1510" on="1"/>
        <pt x="570" y="1607" on="0"/>
        <pt x="673" y="1729" on="0"/>
        <pt x="848" y="1779" on="0"/>
        <pt x="1023" y="1779" on="1"/>
        <pt x="1617" y="1779" on="1"/>
        <pt x="1617" y="1557" on="1"/>
      </contour>
      <contour>
        <pt x="448" y="527" on="1"/>
        <pt x="519" y="566" on="0"/>
        <pt x="519" y="624" on="1"/>
        <pt x="519" y="659" on="0"/>
        <pt x="467" y="703" on="0"/>
        <pt x="420" y="703" on="1"/>
        <pt x="374" y="703" on="0"/>
        <pt x="319" y="662" on="0"/>
        <pt x="319" y="631" on="1"/>
        <pt x="319" y="587" on="0"/>
        <pt x="387" y="540" on="0"/>
      </contour>
      <contour>
        <pt x="745" y="310" on="1"/>
        <pt x="684" y="301" on="0"/>
        <pt x="620" y="266" on="0"/>
        <pt x="620" y="236" on="1"/>
        <pt x="620" y="209" on="0"/>
        <pt x="685" y="176" on="0"/>
        <pt x="736" y="176" on="1"/>
        <pt x="790" y="176" on="0"/>
        <pt x="853" y="208" on="0"/>
        <pt x="853" y="238" on="1"/>
        <pt x="853" y="291" on="0"/>
      </contour>
      <contour>
        <pt x="725" y="-50" on="1"/>
      </contour>
    </TTGlyph>
    <TTGlyph name="glyph00132" xMin="56" yMin="-50" xMax="1520" yMax="1779">
      <contour>
        <pt x="816" y="1557" on="1"/>
        <pt x="745" y="1557" on="0"/>
        <pt x="679" y="1543" on="0"/>
        <pt x="646" y="1507" on="0"/>
        <pt x="646" y="1479" on="1"/>
        <pt x="646" y="1447" on="0"/>
        <pt x="677" y="1410" on="0"/>
        <pt x="739" y="1399" on="0"/>
        <pt x="813" y="1399" on="1"/>
        <pt x="1106" y="1399" on="1"/>
        <pt x="1106" y="1177" on="1"/>
        <pt x="811" y="1177" on="1"/>
        <pt x="720" y="1177" on="0"/>
        <pt x="662" y="1135" on="0"/>
        <pt x="662" y="1099" on="1"/>
        <pt x="662" y="1062" on="0"/>
        <pt x="713" y="1023" on="0"/>
        <pt x="777" y="1023" on="1"/>
        <pt x="1052" y="1023" on="1"/>
        <pt x="1286" y="921" on="0"/>
        <pt x="1520" y="617" on="0"/>
        <pt x="1520" y="415" on="1"/>
        <pt x="1520" y="210" on="0"/>
        <pt x="1292" y="-26" on="0"/>
        <pt x="1093" y="-26" on="1"/>
        <pt x="982" y="-26" on="0"/>
        <pt x="822" y="46" on="0"/>
        <pt x="733" y="131" on="1"/>
        <pt x="663" y="40" on="0"/>
        <pt x="510" y="-26" on="0"/>
        <pt x="401" y="-26" on="1"/>
        <pt x="238" y="-26" on="0"/>
        <pt x="56" y="157" on="0"/>
        <pt x="56" y="299" on="1"/>
        <pt x="56" y="442" on="0"/>
        <pt x="257" y="624" on="0"/>
        <pt x="415" y="624" on="1"/>
        <pt x="534" y="624" on="0"/>
        <pt x="710" y="531" on="0"/>
        <pt x="834" y="393" on="1"/>
        <pt x="896" y="324" on="0"/>
        <pt x="980" y="251" on="0"/>
        <pt x="1047" y="222" on="0"/>
        <pt x="1092" y="222" on="1"/>
        <pt x="1161" y="222" on="0"/>
        <pt x="1235" y="311" on="0"/>
        <pt x="1235" y="395" on="1"/>
        <pt x="1235" y="528" on="0"/>
        <pt x="1058" y="741" on="0"/>
        <pt x="892" y="801" on="1"/>
        <pt x="765" y="801" on="1"/>
        <pt x="603" y="801" on="0"/>
        <pt x="417" y="947" on="0"/>
        <pt x="417" y="1082" on="1"/>
        <pt x="417" y="1205" on="0"/>
        <pt x="514" y="1284" on="1"/>
        <pt x="401" y="1379" on="0"/>
        <pt x="401" y="1510" on="1"/>
        <pt x="401" y="1607" on="0"/>
        <pt x="504" y="1729" on="0"/>
        <pt x="679" y="1779" on="0"/>
        <pt x="854" y="1779" on="1"/>
        <pt x="1448" y="1779" on="1"/>
        <pt x="1448" y="1557" on="1"/>
      </contour>
      <contour>
        <pt x="578" y="294" on="1"/>
        <pt x="516" y="365" on="0"/>
        <pt x="456" y="406" on="0"/>
        <pt x="418" y="406" on="1"/>
        <pt x="379" y="406" on="0"/>
        <pt x="322" y="349" on="0"/>
        <pt x="322" y="302" on="1"/>
        <pt x="322" y="245" on="0"/>
        <pt x="381" y="187" on="0"/>
        <pt x="434" y="187" on="1"/>
        <pt x="478" y="187" on="0"/>
        <pt x="555" y="243" on="0"/>
      </contour>
      <contour>
        <pt x="794" y="-50" on="1"/>
      </contour>
    </TTGlyph>
    <TTGlyph name="glyph00133" xMin="59" yMin="-50" xMax="1458" yMax="1779">
      <contour>
        <pt x="826" y="1557" on="1"/>
        <pt x="755" y="1557" on="0"/>
        <pt x="689" y="1543" on="0"/>
        <pt x="656" y="1507" on="0"/>
        <pt x="656" y="1479" on="1"/>
        <pt x="656" y="1447" on="0"/>
        <pt x="687" y="1410" on="0"/>
        <pt x="749" y="1399" on="0"/>
        <pt x="823" y="1399" on="1"/>
        <pt x="1116" y="1399" on="1"/>
        <pt x="1116" y="1177" on="1"/>
        <pt x="821" y="1177" on="1"/>
        <pt x="730" y="1177" on="0"/>
        <pt x="672" y="1135" on="0"/>
        <pt x="672" y="1099" on="1"/>
        <pt x="672" y="1062" on="0"/>
        <pt x="723" y="1023" on="0"/>
        <pt x="787" y="1023" on="1"/>
        <pt x="1011" y="1023" on="1"/>
        <pt x="1081" y="987" on="0"/>
        <pt x="1162" y="863" on="0"/>
        <pt x="1162" y="792" on="1"/>
        <pt x="1162" y="734" on="0"/>
        <pt x="1112" y="631" on="0"/>
        <pt x="1062" y="587" on="1"/>
        <pt x="1146" y="526" on="0"/>
        <pt x="1229" y="358" on="0"/>
        <pt x="1229" y="262" on="1"/>
        <pt x="1229" y="126" on="0"/>
        <pt x="1034" y="-26" on="0"/>
        <pt x="858" y="-26" on="1"/>
        <pt x="677" y="-26" on="0"/>
        <pt x="485" y="128" on="0"/>
        <pt x="485" y="257" on="1"/>
        <pt x="485" y="414" on="0"/>
        <pt x="653" y="527" on="1"/>
        <pt x="621" y="532" on="0"/>
        <pt x="564" y="537" on="0"/>
        <pt x="539" y="537" on="1"/>
        <pt x="440" y="537" on="0"/>
        <pt x="343" y="475" on="0"/>
        <pt x="343" y="401" on="1"/>
        <pt x="343" y="355" on="0"/>
        <pt x="369" y="303" on="1"/>
        <pt x="114" y="229" on="1"/>
        <pt x="59" y="332" on="0"/>
        <pt x="59" y="438" on="1"/>
        <pt x="59" y="588" on="0"/>
        <pt x="296" y="749" on="0"/>
        <pt x="530" y="749" on="1"/>
        <pt x="701" y="749" on="0"/>
        <pt x="861" y="691" on="1"/>
        <pt x="883" y="718" on="0"/>
        <pt x="883" y="751" on="1"/>
        <pt x="883" y="777" on="0"/>
        <pt x="865" y="801" on="1"/>
        <pt x="775" y="801" on="1"/>
        <pt x="613" y="801" on="0"/>
        <pt x="427" y="947" on="0"/>
        <pt x="427" y="1082" on="1"/>
        <pt x="427" y="1205" on="0"/>
        <pt x="524" y="1284" on="1"/>
        <pt x="411" y="1379" on="0"/>
        <pt x="411" y="1510" on="1"/>
        <pt x="411" y="1607" on="0"/>
        <pt x="514" y="1729" on="0"/>
        <pt x="689" y="1779" on="0"/>
        <pt x="864" y="1779" on="1"/>
        <pt x="1458" y="1779" on="1"/>
        <pt x="1458" y="1557" on="1"/>
      </contour>
      <contour>
        <pt x="861" y="449" on="1"/>
        <pt x="805" y="408" on="0"/>
        <pt x="755" y="335" on="0"/>
        <pt x="755" y="296" on="1"/>
        <pt x="755" y="252" on="0"/>
        <pt x="806" y="198" on="0"/>
        <pt x="855" y="198" on="1"/>
        <pt x="903" y="198" on="0"/>
        <pt x="959" y="254" on="0"/>
        <pt x="959" y="300" on="1"/>
        <pt x="959" y="341" on="0"/>
        <pt x="910" y="415" on="0"/>
      </contour>
      <contour>
        <pt x="642" y="-50" on="1"/>
      </contour>
    </TTGlyph>
    <TTGlyph name="glyph00134" xMin="56" yMin="-285" xMax="1680" yMax="1779">
      <component glyphName="glyph00717" x="0" y="0" flags="0x200"/>
      <component glyphName="uni0C4D" x="974" y="0" flags="0x0"/>
    </TTGlyph>
    <TTGlyph name="glyph00135" xMin="56" yMin="-50" xMax="1581" yMax="1779">
      <component glyphName="glyph00720" x="0" y="0" flags="0x200"/>
      <component glyphName="uni0C4D" x="974" y="0" flags="0x0"/>
    </TTGlyph>
    <TTGlyph name="glyph00136" xMin="56" yMin="-50" xMax="2314" yMax="1779">
      <component glyphName="glyph00723" x="0" y="0" flags="0x200"/>
      <component glyphName="uni0C4D" x="974" y="0" flags="0x0"/>
    </TTGlyph>
    <TTGlyph name="glyph00137" xMin="20" yMin="-559" xMax="1322" yMax="1779">
      <component glyphName="glyph00666" x="0" y="0" flags="0x200"/>
      <component glyphName="uni0C4D" x="993" y="0" flags="0x0"/>
      <component glyphName="glyph00762" x="0" y="0" flags="0x0"/>
    </TTGlyph>
    <TTGlyph name="glyph00138" xMin="20" yMin="-50" xMax="1939" yMax="1023">
      <contour>
        <pt x="1371" y="1023" on="1"/>
        <pt x="1576" y="1023" on="0"/>
        <pt x="1752" y="987" on="0"/>
        <pt x="1880" y="895" on="0"/>
        <pt x="1939" y="770" on="0"/>
        <pt x="1939" y="686" on="1"/>
        <pt x="1939" y="548" on="0"/>
        <pt x="1761" y="377" on="0"/>
        <pt x="1610" y="377" on="1"/>
        <pt x="1457" y="377" on="0"/>
        <pt x="1294" y="544" on="0"/>
        <pt x="1294" y="662" on="1"/>
        <pt x="1294" y="736" on="0"/>
        <pt x="1318" y="792" on="1"/>
        <pt x="1101" y="792" on="1"/>
        <pt x="1110" y="778" on="0"/>
        <pt x="1126" y="742" on="1"/>
        <pt x="853" y="678" on="1"/>
        <pt x="812" y="749" on="0"/>
        <pt x="688" y="797" on="0"/>
        <pt x="567" y="797" on="1"/>
        <pt x="469" y="797" on="0"/>
        <pt x="358" y="762" on="0"/>
        <pt x="358" y="715" on="1"/>
        <pt x="358" y="674" on="0"/>
        <pt x="441" y="637" on="0"/>
        <pt x="528" y="633" on="1"/>
        <pt x="739" y="622" on="1"/>
        <pt x="952" y="611" on="0"/>
        <pt x="1165" y="466" on="0"/>
        <pt x="1165" y="311" on="1"/>
        <pt x="1165" y="147" on="0"/>
        <pt x="885" y="-26" on="0"/>
        <pt x="621" y="-26" on="1"/>
        <pt x="339" y="-26" on="0"/>
        <pt x="85" y="124" on="0"/>
        <pt x="20" y="281" on="1"/>
        <pt x="291" y="355" on="1"/>
        <pt x="337" y="268" on="0"/>
        <pt x="471" y="214" on="0"/>
        <pt x="615" y="214" on="1"/>
        <pt x="740" y="214" on="0"/>
        <pt x="861" y="256" on="0"/>
        <pt x="861" y="302" on="1"/>
        <pt x="861" y="346" on="0"/>
        <pt x="791" y="383" on="0"/>
        <pt x="713" y="388" on="1"/>
        <pt x="551" y="397" on="1"/>
        <pt x="284" y="412" on="0"/>
        <pt x="56" y="561" on="0"/>
        <pt x="56" y="709" on="1"/>
        <pt x="56" y="776" on="0"/>
        <pt x="86" y="831" on="1"/>
        <pt x="86" y="1023" on="1"/>
      </contour>
      <contour>
        <pt x="1523" y="792" on="1"/>
        <pt x="1499" y="750" on="0"/>
        <pt x="1499" y="693" on="1"/>
        <pt x="1499" y="642" on="0"/>
        <pt x="1563" y="575" on="0"/>
        <pt x="1613" y="575" on="1"/>
        <pt x="1667" y="575" on="0"/>
        <pt x="1730" y="631" on="0"/>
        <pt x="1730" y="680" on="1"/>
        <pt x="1730" y="792" on="0"/>
        <pt x="1547" y="792" on="1"/>
      </contour>
      <contour>
        <pt x="603" y="-50" on="1"/>
      </contour>
      <contour>
        <pt x="1207" y="-50" on="1"/>
      </contour>
    </TTGlyph>
    <TTGlyph name="glyph00139" xMin="60" yMin="-285" xMax="2394" yMax="1023">
      <contour>
        <pt x="922" y="278" on="1"/>
        <pt x="980" y="247" on="0"/>
        <pt x="1075" y="222" on="0"/>
        <pt x="1147" y="222" on="1"/>
        <pt x="1345" y="222" on="0"/>
        <pt x="1345" y="401" on="1"/>
        <pt x="1345" y="507" on="0"/>
        <pt x="1197" y="711" on="0"/>
        <pt x="1061" y="792" on="1"/>
        <pt x="954" y="792" on="1"/>
        <pt x="954" y="1023" on="1"/>
        <pt x="1826" y="1023" on="1"/>
        <pt x="2031" y="1023" on="0"/>
        <pt x="2207" y="987" on="0"/>
        <pt x="2335" y="895" on="0"/>
        <pt x="2394" y="770" on="0"/>
        <pt x="2394" y="686" on="1"/>
        <pt x="2394" y="548" on="0"/>
        <pt x="2216" y="377" on="0"/>
        <pt x="2065" y="377" on="1"/>
        <pt x="1912" y="377" on="0"/>
        <pt x="1749" y="544" on="0"/>
        <pt x="1749" y="662" on="1"/>
        <pt x="1749" y="736" on="0"/>
        <pt x="1773" y="792" on="1"/>
        <pt x="1462" y="792" on="1"/>
        <pt x="1630" y="631" on="0"/>
        <pt x="1630" y="409" on="1"/>
        <pt x="1630" y="202" on="0"/>
        <pt x="1382" y="-26" on="0"/>
        <pt x="1152" y="-26" on="1"/>
        <pt x="1053" y="-26" on="0"/>
        <pt x="859" y="31" on="0"/>
        <pt x="763" y="89" on="1"/>
        <pt x="685" y="31" on="0"/>
        <pt x="502" y="-26" on="0"/>
        <pt x="397" y="-26" on="1"/>
        <pt x="235" y="-26" on="0"/>
        <pt x="60" y="119" on="0"/>
        <pt x="60" y="240" on="1"/>
        <pt x="60" y="348" on="0"/>
        <pt x="225" y="477" on="0"/>
        <pt x="367" y="477" on="1"/>
        <pt x="446" y="477" on="0"/>
        <pt x="598" y="436" on="0"/>
        <pt x="687" y="387" on="1"/>
        <pt x="694" y="413" on="0"/>
        <pt x="702" y="471" on="0"/>
        <pt x="702" y="503" on="1"/>
        <pt x="702" y="632" on="0"/>
        <pt x="650" y="716" on="1"/>
        <pt x="637" y="610" on="0"/>
        <pt x="491" y="489" on="0"/>
        <pt x="372" y="489" on="1"/>
        <pt x="237" y="489" on="0"/>
        <pt x="73" y="624" on="0"/>
        <pt x="73" y="744" on="1"/>
        <pt x="73" y="872" on="0"/>
        <pt x="264" y="1023" on="0"/>
        <pt x="438" y="1023" on="1"/>
        <pt x="608" y="1023" on="0"/>
        <pt x="850" y="887" on="0"/>
        <pt x="977" y="645" on="0"/>
        <pt x="977" y="510" on="1"/>
        <pt x="977" y="448" on="0"/>
        <pt x="949" y="332" on="0"/>
      </contour>
      <contour>
        <pt x="461" y="833" on="1"/>
        <pt x="433" y="837" on="0"/>
        <pt x="415" y="837" on="1"/>
        <pt x="358" y="837" on="0"/>
        <pt x="301" y="792" on="0"/>
        <pt x="301" y="753" on="1"/>
        <pt x="301" y="714" on="0"/>
        <pt x="345" y="675" on="0"/>
        <pt x="385" y="675" on="1"/>
        <pt x="430" y="675" on="0"/>
        <pt x="482" y="718" on="0"/>
        <pt x="482" y="756" on="1"/>
        <pt x="482" y="792" on="0"/>
      </contour>
      <contour>
        <pt x="1978" y="792" on="1"/>
        <pt x="1954" y="750" on="0"/>
        <pt x="1954" y="693" on="1"/>
        <pt x="1954" y="642" on="0"/>
        <pt x="2018" y="575" on="0"/>
        <pt x="2068" y="575" on="1"/>
        <pt x="2122" y="575" on="0"/>
        <pt x="2185" y="631" on="0"/>
        <pt x="2185" y="680" on="1"/>
        <pt x="2185" y="792" on="0"/>
        <pt x="2002" y="792" on="1"/>
      </contour>
      <contour>
        <pt x="558" y="221" on="1"/>
        <pt x="501" y="259" on="0"/>
        <pt x="414" y="288" on="0"/>
        <pt x="361" y="288" on="1"/>
        <pt x="321" y="288" on="0"/>
        <pt x="280" y="260" on="0"/>
        <pt x="280" y="236" on="1"/>
        <pt x="280" y="205" on="0"/>
        <pt x="331" y="180" on="0"/>
        <pt x="376" y="180" on="1"/>
        <pt x="430" y="180" on="0"/>
        <pt x="521" y="200" on="0"/>
      </contour>
      <contour>
        <pt x="633" y="-285" on="1"/>
        <pt x="648" y="15" on="1"/>
        <pt x="888" y="15" on="1"/>
        <pt x="903" y="-285" on="1"/>
      </contour>
      <contour>
        <pt x="849" y="-50" on="1"/>
      </contour>
      <contour>
        <pt x="1698" y="-50" on="1"/>
      </contour>
    </TTGlyph>
    <TTGlyph name="glyph00140" xMin="82" yMin="-50" xMax="2005" yMax="1023">
      <contour>
        <pt x="778" y="91" on="1"/>
        <pt x="917" y="281" on="0"/>
        <pt x="917" y="481" on="1"/>
        <pt x="917" y="627" on="0"/>
        <pt x="774" y="792" on="0"/>
        <pt x="639" y="792" on="1"/>
        <pt x="626" y="792" on="1"/>
        <pt x="569" y="792" on="0"/>
        <pt x="446" y="729" on="0"/>
        <pt x="368" y="585" on="0"/>
        <pt x="368" y="488" on="1"/>
        <pt x="368" y="273" on="0"/>
        <pt x="508" y="92" on="1"/>
        <pt x="231" y="-16" on="1"/>
        <pt x="82" y="242" on="0"/>
        <pt x="82" y="493" on="1"/>
        <pt x="82" y="669" on="0"/>
        <pt x="184" y="792" on="1"/>
        <pt x="92" y="792" on="1"/>
        <pt x="92" y="1023" on="1"/>
        <pt x="1437" y="1023" on="1"/>
        <pt x="1642" y="1023" on="0"/>
        <pt x="1818" y="987" on="0"/>
        <pt x="1946" y="895" on="0"/>
        <pt x="2005" y="770" on="0"/>
        <pt x="2005" y="686" on="1"/>
        <pt x="2005" y="548" on="0"/>
        <pt x="1827" y="377" on="0"/>
        <pt x="1676" y="377" on="1"/>
        <pt x="1523" y="377" on="0"/>
        <pt x="1360" y="544" on="0"/>
        <pt x="1360" y="662" on="1"/>
        <pt x="1360" y="736" on="0"/>
        <pt x="1384" y="792" on="1"/>
        <pt x="1117" y="792" on="1"/>
        <pt x="1203" y="679" on="0"/>
        <pt x="1203" y="514" on="1"/>
        <pt x="1203" y="381" on="0"/>
        <pt x="1140" y="139" on="0"/>
        <pt x="1053" y="-16" on="1"/>
      </contour>
      <contour>
        <pt x="1589" y="792" on="1"/>
        <pt x="1565" y="750" on="0"/>
        <pt x="1565" y="693" on="1"/>
        <pt x="1565" y="642" on="0"/>
        <pt x="1629" y="575" on="0"/>
        <pt x="1679" y="575" on="1"/>
        <pt x="1733" y="575" on="0"/>
        <pt x="1796" y="631" on="0"/>
        <pt x="1796" y="680" on="1"/>
        <pt x="1796" y="792" on="0"/>
        <pt x="1615" y="792" on="1"/>
      </contour>
      <contour>
        <pt x="642" y="-50" on="1"/>
      </contour>
      <contour>
        <pt x="1279" y="-50" on="1"/>
      </contour>
    </TTGlyph>
    <TTGlyph name="glyph00141" xMin="56" yMin="-285" xMax="2999" yMax="1487">
      <component glyphName="glyph00671" x="0" y="0" flags="0x200"/>
      <component glyphName="glyph00724" x="211" y="0" flags="0x0"/>
    </TTGlyph>
    <TTGlyph name="glyph00142" xMin="63" yMin="-50" xMax="2224" yMax="1143">
      <component glyphName="uni0C19" x="0" y="0" flags="0x0"/>
      <component glyphName="glyph00725" x="0" y="0" flags="0x0"/>
    </TTGlyph>
    <TTGlyph name="glyph00143" xMin="50" yMin="-50" xMax="2414" yMax="1023">
      <contour>
        <pt x="886" y="150" on="1"/>
        <pt x="827" y="63" on="0"/>
        <pt x="652" y="-26" on="0"/>
        <pt x="519" y="-26" on="1"/>
        <pt x="355" y="-26" on="0"/>
        <pt x="155" y="136" on="0"/>
        <pt x="155" y="270" on="1"/>
        <pt x="155" y="393" on="0"/>
        <pt x="244" y="472" on="1"/>
        <pt x="50" y="472" on="1"/>
        <pt x="50" y="712" on="1"/>
        <pt x="619" y="712" on="1"/>
        <pt x="619" y="497" on="1"/>
        <pt x="437" y="463" on="0"/>
        <pt x="437" y="340" on="1"/>
        <pt x="437" y="286" on="0"/>
        <pt x="505" y="223" on="0"/>
        <pt x="565" y="223" on="1"/>
        <pt x="644" y="223" on="0"/>
        <pt x="747" y="324" on="0"/>
        <pt x="755" y="413" on="1"/>
        <pt x="1018" y="413" on="1"/>
        <pt x="1029" y="326" on="0"/>
        <pt x="1115" y="222" on="0"/>
        <pt x="1210" y="222" on="1"/>
        <pt x="1363" y="222" on="0"/>
        <pt x="1363" y="396" on="1"/>
        <pt x="1363" y="521" on="0"/>
        <pt x="1191" y="731" on="0"/>
        <pt x="1036" y="792" on="1"/>
        <pt x="540" y="792" on="1"/>
        <pt x="540" y="1023" on="1"/>
        <pt x="1846" y="1023" on="1"/>
        <pt x="2051" y="1023" on="0"/>
        <pt x="2227" y="987" on="0"/>
        <pt x="2355" y="895" on="0"/>
        <pt x="2414" y="770" on="0"/>
        <pt x="2414" y="686" on="1"/>
        <pt x="2414" y="548" on="0"/>
        <pt x="2236" y="377" on="0"/>
        <pt x="2085" y="377" on="1"/>
        <pt x="1932" y="377" on="0"/>
        <pt x="1769" y="544" on="0"/>
        <pt x="1769" y="662" on="1"/>
        <pt x="1769" y="736" on="0"/>
        <pt x="1793" y="792" on="1"/>
        <pt x="1475" y="792" on="1"/>
        <pt x="1559" y="721" on="0"/>
        <pt x="1648" y="524" on="0"/>
        <pt x="1648" y="409" on="1"/>
        <pt x="1648" y="207" on="0"/>
        <pt x="1419" y="-26" on="0"/>
        <pt x="1214" y="-26" on="1"/>
        <pt x="1103" y="-26" on="0"/>
        <pt x="949" y="57" on="0"/>
      </contour>
      <contour>
        <pt x="1998" y="792" on="1"/>
        <pt x="1974" y="750" on="0"/>
        <pt x="1974" y="693" on="1"/>
        <pt x="1974" y="642" on="0"/>
        <pt x="2038" y="575" on="0"/>
        <pt x="2088" y="575" on="1"/>
        <pt x="2142" y="575" on="0"/>
        <pt x="2205" y="631" on="0"/>
        <pt x="2205" y="680" on="1"/>
        <pt x="2205" y="792" on="0"/>
        <pt x="2022" y="792" on="1"/>
      </contour>
      <contour>
        <pt x="858" y="-50" on="1"/>
      </contour>
      <contour>
        <pt x="1716" y="-50" on="1"/>
      </contour>
    </TTGlyph>
    <TTGlyph name="glyph00144" xMin="50" yMin="-285" xMax="2414" yMax="1023">
      <contour>
        <pt x="1846" y="1023" on="1"/>
        <pt x="2051" y="1023" on="0"/>
        <pt x="2227" y="987" on="0"/>
        <pt x="2355" y="895" on="0"/>
        <pt x="2414" y="770" on="0"/>
        <pt x="2414" y="686" on="1"/>
        <pt x="2414" y="548" on="0"/>
        <pt x="2236" y="377" on="0"/>
        <pt x="2085" y="377" on="1"/>
        <pt x="1932" y="377" on="0"/>
        <pt x="1769" y="544" on="0"/>
        <pt x="1769" y="662" on="1"/>
        <pt x="1769" y="736" on="0"/>
        <pt x="1793" y="792" on="1"/>
        <pt x="1475" y="792" on="1"/>
        <pt x="1559" y="721" on="0"/>
        <pt x="1648" y="524" on="0"/>
        <pt x="1648" y="409" on="1"/>
        <pt x="1648" y="207" on="0"/>
        <pt x="1419" y="-26" on="0"/>
        <pt x="1214" y="-26" on="1"/>
        <pt x="1103" y="-26" on="0"/>
        <pt x="949" y="57" on="0"/>
        <pt x="886" y="150" on="1"/>
        <pt x="827" y="63" on="0"/>
        <pt x="652" y="-26" on="0"/>
        <pt x="519" y="-26" on="1"/>
        <pt x="355" y="-26" on="0"/>
        <pt x="155" y="136" on="0"/>
        <pt x="155" y="270" on="1"/>
        <pt x="155" y="393" on="0"/>
        <pt x="244" y="472" on="1"/>
        <pt x="50" y="472" on="1"/>
        <pt x="50" y="712" on="1"/>
        <pt x="619" y="712" on="1"/>
        <pt x="619" y="497" on="1"/>
        <pt x="437" y="463" on="0"/>
        <pt x="437" y="340" on="1"/>
        <pt x="437" y="286" on="0"/>
        <pt x="505" y="223" on="0"/>
        <pt x="565" y="223" on="1"/>
        <pt x="644" y="223" on="0"/>
        <pt x="747" y="324" on="0"/>
        <pt x="755" y="413" on="1"/>
        <pt x="1018" y="413" on="1"/>
        <pt x="1029" y="326" on="0"/>
        <pt x="1115" y="222" on="0"/>
        <pt x="1210" y="222" on="1"/>
        <pt x="1363" y="222" on="0"/>
        <pt x="1363" y="396" on="1"/>
        <pt x="1363" y="521" on="0"/>
        <pt x="1191" y="731" on="0"/>
        <pt x="1036" y="792" on="1"/>
        <pt x="540" y="792" on="1"/>
        <pt x="540" y="1023" on="1"/>
      </contour>
      <contour>
        <pt x="1998" y="792" on="1"/>
        <pt x="1974" y="750" on="0"/>
        <pt x="1974" y="693" on="1"/>
        <pt x="1974" y="642" on="0"/>
        <pt x="2038" y="575" on="0"/>
        <pt x="2088" y="575" on="1"/>
        <pt x="2142" y="575" on="0"/>
        <pt x="2205" y="631" on="0"/>
        <pt x="2205" y="680" on="1"/>
        <pt x="2205" y="792" on="0"/>
        <pt x="2022" y="792" on="1"/>
      </contour>
      <contour>
        <pt x="751" y="-285" on="1"/>
        <pt x="766" y="15" on="1"/>
        <pt x="1006" y="15" on="1"/>
        <pt x="1021" y="-285" on="1"/>
      </contour>
      <contour>
        <pt x="858" y="-50" on="1"/>
      </contour>
      <contour>
        <pt x="1716" y="-50" on="1"/>
      </contour>
    </TTGlyph>
    <TTGlyph name="glyph00145" xMin="63" yMin="-50" xMax="2274" yMax="1023">
      <contour>
        <pt x="1505" y="525" on="1"/>
        <pt x="1570" y="423" on="0"/>
        <pt x="1570" y="292" on="1"/>
        <pt x="1570" y="143" on="0"/>
        <pt x="1365" y="-26" on="0"/>
        <pt x="1176" y="-26" on="1"/>
        <pt x="1053" y="-26" on="0"/>
        <pt x="896" y="55" on="0"/>
        <pt x="833" y="150" on="1"/>
        <pt x="760" y="55" on="0"/>
        <pt x="589" y="-26" on="0"/>
        <pt x="441" y="-26" on="1"/>
        <pt x="267" y="-26" on="0"/>
        <pt x="74" y="136" on="0"/>
        <pt x="74" y="267" on="1"/>
        <pt x="74" y="385" on="0"/>
        <pt x="213" y="530" on="0"/>
        <pt x="402" y="607" on="1"/>
        <pt x="505" y="649" on="0"/>
        <pt x="560" y="705" on="0"/>
        <pt x="560" y="740" on="1"/>
        <pt x="560" y="778" on="0"/>
        <pt x="508" y="821" on="0"/>
        <pt x="459" y="821" on="1"/>
        <pt x="346" y="821" on="0"/>
        <pt x="346" y="736" on="1"/>
        <pt x="346" y="694" on="0"/>
        <pt x="365" y="660" on="1"/>
        <pt x="110" y="588" on="1"/>
        <pt x="88" y="624" on="0"/>
        <pt x="63" y="725" on="0"/>
        <pt x="63" y="767" on="1"/>
        <pt x="63" y="881" on="0"/>
        <pt x="276" y="1023" on="0"/>
        <pt x="464" y="1023" on="1"/>
        <pt x="644" y="1023" on="0"/>
        <pt x="837" y="889" on="0"/>
        <pt x="842" y="762" on="1"/>
        <pt x="945" y="692" on="0"/>
        <pt x="1072" y="692" on="1"/>
        <pt x="1140" y="692" on="0"/>
        <pt x="1197" y="723" on="0"/>
        <pt x="1197" y="752" on="1"/>
        <pt x="1197" y="776" on="0"/>
        <pt x="1185" y="792" on="1"/>
        <pt x="960" y="792" on="1"/>
        <pt x="960" y="1023" on="1"/>
        <pt x="1706" y="1023" on="1"/>
        <pt x="1911" y="1023" on="0"/>
        <pt x="2087" y="987" on="0"/>
        <pt x="2215" y="895" on="0"/>
        <pt x="2274" y="770" on="0"/>
        <pt x="2274" y="686" on="1"/>
        <pt x="2274" y="548" on="0"/>
        <pt x="2096" y="377" on="0"/>
        <pt x="1945" y="377" on="1"/>
        <pt x="1792" y="377" on="0"/>
        <pt x="1629" y="544" on="0"/>
        <pt x="1629" y="662" on="1"/>
        <pt x="1629" y="736" on="0"/>
        <pt x="1653" y="792" on="1"/>
        <pt x="1459" y="792" on="1"/>
        <pt x="1462" y="776" on="0"/>
        <pt x="1462" y="758" on="1"/>
        <pt x="1462" y="634" on="0"/>
        <pt x="1266" y="480" on="0"/>
        <pt x="1097" y="480" on="1"/>
        <pt x="908" y="480" on="0"/>
        <pt x="773" y="567" on="1"/>
        <pt x="701" y="494" on="0"/>
        <pt x="507" y="417" on="1"/>
        <pt x="419" y="382" on="0"/>
        <pt x="359" y="331" on="0"/>
        <pt x="359" y="297" on="1"/>
        <pt x="359" y="222" on="0"/>
        <pt x="487" y="222" on="1"/>
        <pt x="675" y="222" on="0"/>
        <pt x="702" y="413" on="1"/>
        <pt x="965" y="413" on="1"/>
        <pt x="975" y="328" on="0"/>
        <pt x="1055" y="222" on="0"/>
        <pt x="1151" y="222" on="1"/>
        <pt x="1215" y="222" on="0"/>
        <pt x="1285" y="283" on="0"/>
        <pt x="1285" y="335" on="1"/>
        <pt x="1285" y="392" on="0"/>
        <pt x="1257" y="449" on="1"/>
      </contour>
      <contour>
        <pt x="1858" y="792" on="1"/>
        <pt x="1834" y="750" on="0"/>
        <pt x="1834" y="693" on="1"/>
        <pt x="1834" y="642" on="0"/>
        <pt x="1898" y="575" on="0"/>
        <pt x="1948" y="575" on="1"/>
        <pt x="2002" y="575" on="0"/>
        <pt x="2065" y="631" on="0"/>
        <pt x="2065" y="680" on="1"/>
        <pt x="2065" y="792" on="0"/>
        <pt x="1882" y="792" on="1"/>
      </contour>
      <contour>
        <pt x="815" y="-50" on="1"/>
      </contour>
      <contour>
        <pt x="1630" y="-50" on="1"/>
      </contour>
    </TTGlyph>
    <TTGlyph name="glyph00146" xMin="68" yMin="-285" xMax="3407" yMax="1487">
      <component glyphName="glyph00680" x="0" y="0" flags="0x200"/>
      <component glyphName="glyph00724" x="300" y="0" flags="0x0"/>
    </TTGlyph>
    <TTGlyph name="glyph00147" xMin="56" yMin="-199" xMax="2797" yMax="1143">
      <component glyphName="uni0C1E" x="0" y="0" flags="0x0"/>
      <component glyphName="glyph00725" x="573" y="0" flags="0x0"/>
    </TTGlyph>
    <TTGlyph name="glyph00148" xMin="73" yMin="-50" xMax="2409" yMax="1288">
      <contour>
        <pt x="662" y="1288" on="1"/>
        <pt x="648" y="1016" on="1"/>
        <pt x="766" y="995" on="0"/>
        <pt x="898" y="838" on="0"/>
        <pt x="898" y="725" on="1"/>
        <pt x="898" y="427" on="0"/>
        <pt x="527" y="427" on="1"/>
        <pt x="436" y="427" on="0"/>
        <pt x="345" y="470" on="1"/>
        <pt x="345" y="469" on="1"/>
        <pt x="345" y="339" on="0"/>
        <pt x="437" y="222" on="0"/>
        <pt x="537" y="222" on="1"/>
        <pt x="725" y="222" on="0"/>
        <pt x="752" y="413" on="1"/>
        <pt x="1015" y="413" on="1"/>
        <pt x="1026" y="326" on="0"/>
        <pt x="1112" y="222" on="0"/>
        <pt x="1207" y="222" on="1"/>
        <pt x="1360" y="222" on="0"/>
        <pt x="1360" y="392" on="1"/>
        <pt x="1360" y="504" on="0"/>
        <pt x="1228" y="704" on="0"/>
        <pt x="1096" y="792" on="1"/>
        <pt x="969" y="792" on="1"/>
        <pt x="969" y="1023" on="1"/>
        <pt x="1841" y="1023" on="1"/>
        <pt x="2046" y="1023" on="0"/>
        <pt x="2222" y="987" on="0"/>
        <pt x="2350" y="895" on="0"/>
        <pt x="2409" y="770" on="0"/>
        <pt x="2409" y="686" on="1"/>
        <pt x="2409" y="548" on="0"/>
        <pt x="2231" y="377" on="0"/>
        <pt x="2080" y="377" on="1"/>
        <pt x="1927" y="377" on="0"/>
        <pt x="1764" y="544" on="0"/>
        <pt x="1764" y="662" on="1"/>
        <pt x="1764" y="736" on="0"/>
        <pt x="1788" y="792" on="1"/>
        <pt x="1486" y="792" on="1"/>
        <pt x="1565" y="710" on="0"/>
        <pt x="1645" y="518" on="0"/>
        <pt x="1645" y="409" on="1"/>
        <pt x="1645" y="207" on="0"/>
        <pt x="1416" y="-26" on="0"/>
        <pt x="1211" y="-26" on="1"/>
        <pt x="1100" y="-26" on="0"/>
        <pt x="946" y="57" on="0"/>
        <pt x="883" y="150" on="1"/>
        <pt x="810" y="55" on="0"/>
        <pt x="639" y="-26" on="0"/>
        <pt x="491" y="-26" on="1"/>
        <pt x="286" y="-26" on="0"/>
        <pt x="73" y="237" on="0"/>
        <pt x="73" y="476" on="1"/>
        <pt x="73" y="672" on="0"/>
        <pt x="247" y="947" on="0"/>
        <pt x="406" y="998" on="1"/>
        <pt x="392" y="1288" on="1"/>
      </contour>
      <contour>
        <pt x="368" y="671" on="1"/>
        <pt x="436" y="624" on="0"/>
        <pt x="509" y="624" on="1"/>
        <pt x="579" y="624" on="0"/>
        <pt x="651" y="677" on="0"/>
        <pt x="651" y="727" on="1"/>
        <pt x="651" y="767" on="0"/>
        <pt x="597" y="821" on="0"/>
        <pt x="554" y="821" on="1"/>
        <pt x="488" y="821" on="0"/>
        <pt x="392" y="746" on="0"/>
      </contour>
      <contour>
        <pt x="1993" y="792" on="1"/>
        <pt x="1969" y="750" on="0"/>
        <pt x="1969" y="693" on="1"/>
        <pt x="1969" y="642" on="0"/>
        <pt x="2033" y="575" on="0"/>
        <pt x="2083" y="575" on="1"/>
        <pt x="2137" y="575" on="0"/>
        <pt x="2200" y="631" on="0"/>
        <pt x="2200" y="680" on="1"/>
        <pt x="2200" y="792" on="0"/>
        <pt x="2017" y="792" on="1"/>
      </contour>
      <contour>
        <pt x="856" y="-50" on="1"/>
      </contour>
      <contour>
        <pt x="1713" y="-50" on="1"/>
      </contour>
    </TTGlyph>
    <TTGlyph name="glyph00149" xMin="82" yMin="-50" xMax="2028" yMax="1023">
      <contour>
        <pt x="1460" y="1023" on="1"/>
        <pt x="1665" y="1023" on="0"/>
        <pt x="1841" y="987" on="0"/>
        <pt x="1969" y="895" on="0"/>
        <pt x="2028" y="770" on="0"/>
        <pt x="2028" y="686" on="1"/>
        <pt x="2028" y="548" on="0"/>
        <pt x="1850" y="377" on="0"/>
        <pt x="1699" y="377" on="1"/>
        <pt x="1546" y="377" on="0"/>
        <pt x="1383" y="544" on="0"/>
        <pt x="1383" y="662" on="1"/>
        <pt x="1383" y="736" on="0"/>
        <pt x="1407" y="792" on="1"/>
        <pt x="1135" y="792" on="1"/>
        <pt x="1227" y="675" on="0"/>
        <pt x="1227" y="486" on="1"/>
        <pt x="1227" y="248" on="0"/>
        <pt x="926" y="-26" on="0"/>
        <pt x="654" y="-26" on="1"/>
        <pt x="385" y="-26" on="0"/>
        <pt x="82" y="248" on="0"/>
        <pt x="82" y="483" on="1"/>
        <pt x="82" y="672" on="0"/>
        <pt x="181" y="792" on="1"/>
        <pt x="100" y="792" on="1"/>
        <pt x="100" y="1023" on="1"/>
      </contour>
      <contour>
        <pt x="668" y="792" on="1"/>
        <pt x="639" y="792" on="1"/>
        <pt x="571" y="792" on="0"/>
        <pt x="441" y="727" on="0"/>
        <pt x="366" y="595" on="0"/>
        <pt x="366" y="510" on="1"/>
        <pt x="366" y="377" on="0"/>
        <pt x="518" y="222" on="0"/>
        <pt x="654" y="222" on="1"/>
        <pt x="790" y="222" on="0"/>
        <pt x="943" y="372" on="0"/>
        <pt x="943" y="500" on="1"/>
        <pt x="943" y="628" on="0"/>
        <pt x="797" y="787" on="0"/>
      </contour>
      <contour>
        <pt x="655" y="642" on="1"/>
        <pt x="717" y="642" on="0"/>
        <pt x="797" y="568" on="0"/>
        <pt x="797" y="503" on="1"/>
        <pt x="797" y="438" on="0"/>
        <pt x="719" y="364" on="0"/>
        <pt x="655" y="364" on="1"/>
        <pt x="591" y="364" on="0"/>
        <pt x="512" y="439" on="0"/>
        <pt x="512" y="503" on="1"/>
        <pt x="512" y="569" on="0"/>
        <pt x="590" y="642" on="0"/>
      </contour>
      <contour>
        <pt x="1612" y="792" on="1"/>
        <pt x="1588" y="750" on="0"/>
        <pt x="1588" y="693" on="1"/>
        <pt x="1588" y="642" on="0"/>
        <pt x="1652" y="575" on="0"/>
        <pt x="1702" y="575" on="1"/>
        <pt x="1756" y="575" on="0"/>
        <pt x="1819" y="631" on="0"/>
        <pt x="1819" y="680" on="1"/>
        <pt x="1819" y="792" on="0"/>
        <pt x="1636" y="792" on="1"/>
      </contour>
      <contour>
        <pt x="654" y="-50" on="1"/>
      </contour>
      <contour>
        <pt x="1295" y="-50" on="1"/>
      </contour>
    </TTGlyph>
    <TTGlyph name="glyph00150" xMin="74" yMin="-50" xMax="2279" yMax="1023">
      <contour>
        <pt x="782" y="141" on="1"/>
        <pt x="725" y="59" on="0"/>
        <pt x="571" y="-26" on="0"/>
        <pt x="436" y="-26" on="1"/>
        <pt x="271" y="-26" on="0"/>
        <pt x="74" y="210" on="0"/>
        <pt x="74" y="416" on="1"/>
        <pt x="74" y="652" on="0"/>
        <pt x="222" y="792" on="1"/>
        <pt x="92" y="792" on="1"/>
        <pt x="92" y="1023" on="1"/>
        <pt x="1711" y="1023" on="1"/>
        <pt x="1916" y="1023" on="0"/>
        <pt x="2092" y="987" on="0"/>
        <pt x="2220" y="895" on="0"/>
        <pt x="2279" y="770" on="0"/>
        <pt x="2279" y="686" on="1"/>
        <pt x="2279" y="548" on="0"/>
        <pt x="2101" y="377" on="0"/>
        <pt x="1950" y="377" on="1"/>
        <pt x="1797" y="377" on="0"/>
        <pt x="1634" y="544" on="0"/>
        <pt x="1634" y="662" on="1"/>
        <pt x="1634" y="736" on="0"/>
        <pt x="1658" y="792" on="1"/>
        <pt x="1425" y="792" on="1"/>
        <pt x="1358" y="668" on="1"/>
        <pt x="1211" y="732" on="0"/>
        <pt x="1003" y="789" on="0"/>
        <pt x="865" y="792" on="1"/>
        <pt x="839" y="792" on="1"/>
        <pt x="609" y="792" on="0"/>
        <pt x="359" y="599" on="0"/>
        <pt x="359" y="437" on="1"/>
        <pt x="359" y="327" on="0"/>
        <pt x="428" y="222" on="0"/>
        <pt x="498" y="222" on="1"/>
        <pt x="623" y="222" on="0"/>
        <pt x="658" y="393" on="1"/>
        <pt x="910" y="393" on="1"/>
        <pt x="925" y="287" on="0"/>
        <pt x="1000" y="247" on="1"/>
        <pt x="991" y="288" on="0"/>
        <pt x="991" y="319" on="1"/>
        <pt x="991" y="446" on="0"/>
        <pt x="1150" y="598" on="0"/>
        <pt x="1292" y="598" on="1"/>
        <pt x="1429" y="598" on="0"/>
        <pt x="1603" y="431" on="0"/>
        <pt x="1603" y="305" on="1"/>
        <pt x="1603" y="152" on="0"/>
        <pt x="1405" y="-26" on="0"/>
        <pt x="1214" y="-26" on="1"/>
        <pt x="1065" y="-26" on="0"/>
        <pt x="859" y="52" on="0"/>
      </contour>
      <contour>
        <pt x="1863" y="792" on="1"/>
        <pt x="1839" y="750" on="0"/>
        <pt x="1839" y="693" on="1"/>
        <pt x="1839" y="642" on="0"/>
        <pt x="1903" y="575" on="0"/>
        <pt x="1953" y="575" on="1"/>
        <pt x="2007" y="575" on="0"/>
        <pt x="2070" y="631" on="0"/>
        <pt x="2070" y="680" on="1"/>
        <pt x="2070" y="792" on="0"/>
        <pt x="1889" y="792" on="1"/>
      </contour>
      <contour>
        <pt x="1215" y="204" on="1"/>
        <pt x="1250" y="204" on="1"/>
        <pt x="1310" y="204" on="0"/>
        <pt x="1375" y="254" on="0"/>
        <pt x="1375" y="301" on="1"/>
        <pt x="1375" y="336" on="0"/>
        <pt x="1325" y="381" on="0"/>
        <pt x="1284" y="381" on="1"/>
        <pt x="1240" y="381" on="0"/>
        <pt x="1190" y="330" on="0"/>
        <pt x="1190" y="284" on="1"/>
        <pt x="1190" y="240" on="0"/>
      </contour>
      <contour>
        <pt x="831" y="-50" on="1"/>
      </contour>
      <contour>
        <pt x="1657" y="-50" on="1"/>
      </contour>
    </TTGlyph>
    <TTGlyph name="glyph00151" xMin="74" yMin="-285" xMax="2279" yMax="1023">
      <contour>
        <pt x="782" y="141" on="1"/>
        <pt x="725" y="59" on="0"/>
        <pt x="571" y="-26" on="0"/>
        <pt x="436" y="-26" on="1"/>
        <pt x="271" y="-26" on="0"/>
        <pt x="74" y="210" on="0"/>
        <pt x="74" y="416" on="1"/>
        <pt x="74" y="652" on="0"/>
        <pt x="222" y="792" on="1"/>
        <pt x="92" y="792" on="1"/>
        <pt x="92" y="1023" on="1"/>
        <pt x="1711" y="1023" on="1"/>
        <pt x="1916" y="1023" on="0"/>
        <pt x="2092" y="987" on="0"/>
        <pt x="2220" y="895" on="0"/>
        <pt x="2279" y="770" on="0"/>
        <pt x="2279" y="686" on="1"/>
        <pt x="2279" y="548" on="0"/>
        <pt x="2101" y="377" on="0"/>
        <pt x="1950" y="377" on="1"/>
        <pt x="1797" y="377" on="0"/>
        <pt x="1634" y="544" on="0"/>
        <pt x="1634" y="662" on="1"/>
        <pt x="1634" y="736" on="0"/>
        <pt x="1658" y="792" on="1"/>
        <pt x="1425" y="792" on="1"/>
        <pt x="1358" y="668" on="1"/>
        <pt x="1211" y="732" on="0"/>
        <pt x="1003" y="789" on="0"/>
        <pt x="865" y="792" on="1"/>
        <pt x="839" y="792" on="1"/>
        <pt x="609" y="792" on="0"/>
        <pt x="359" y="599" on="0"/>
        <pt x="359" y="437" on="1"/>
        <pt x="359" y="327" on="0"/>
        <pt x="428" y="222" on="0"/>
        <pt x="498" y="222" on="1"/>
        <pt x="623" y="222" on="0"/>
        <pt x="658" y="393" on="1"/>
        <pt x="910" y="393" on="1"/>
        <pt x="925" y="287" on="0"/>
        <pt x="1000" y="247" on="1"/>
        <pt x="991" y="288" on="0"/>
        <pt x="991" y="319" on="1"/>
        <pt x="991" y="446" on="0"/>
        <pt x="1150" y="598" on="0"/>
        <pt x="1292" y="598" on="1"/>
        <pt x="1429" y="598" on="0"/>
        <pt x="1603" y="431" on="0"/>
        <pt x="1603" y="305" on="1"/>
        <pt x="1603" y="152" on="0"/>
        <pt x="1405" y="-26" on="0"/>
        <pt x="1214" y="-26" on="1"/>
        <pt x="1065" y="-26" on="0"/>
        <pt x="859" y="52" on="0"/>
      </contour>
      <contour>
        <pt x="1863" y="792" on="1"/>
        <pt x="1839" y="750" on="0"/>
        <pt x="1839" y="693" on="1"/>
        <pt x="1839" y="642" on="0"/>
        <pt x="1903" y="575" on="0"/>
        <pt x="1953" y="575" on="1"/>
        <pt x="2007" y="575" on="0"/>
        <pt x="2070" y="631" on="0"/>
        <pt x="2070" y="680" on="1"/>
        <pt x="2070" y="792" on="0"/>
        <pt x="1889" y="792" on="1"/>
      </contour>
      <contour>
        <pt x="1215" y="204" on="1"/>
        <pt x="1250" y="204" on="1"/>
        <pt x="1310" y="204" on="0"/>
        <pt x="1375" y="254" on="0"/>
        <pt x="1375" y="301" on="1"/>
        <pt x="1375" y="336" on="0"/>
        <pt x="1325" y="381" on="0"/>
        <pt x="1284" y="381" on="1"/>
        <pt x="1240" y="381" on="0"/>
        <pt x="1190" y="330" on="0"/>
        <pt x="1190" y="284" on="1"/>
        <pt x="1190" y="240" on="0"/>
      </contour>
      <contour>
        <pt x="653" y="-285" on="1"/>
        <pt x="668" y="15" on="1"/>
        <pt x="908" y="15" on="1"/>
        <pt x="923" y="-285" on="1"/>
      </contour>
      <contour>
        <pt x="831" y="-50" on="1"/>
      </contour>
      <contour>
        <pt x="1657" y="-50" on="1"/>
      </contour>
    </TTGlyph>
    <TTGlyph name="glyph00152" xMin="64" yMin="-50" xMax="2545" yMax="1023">
      <contour>
        <pt x="1977" y="1023" on="1"/>
        <pt x="2182" y="1023" on="0"/>
        <pt x="2358" y="987" on="0"/>
        <pt x="2486" y="895" on="0"/>
        <pt x="2545" y="770" on="0"/>
        <pt x="2545" y="686" on="1"/>
        <pt x="2545" y="548" on="0"/>
        <pt x="2367" y="377" on="0"/>
        <pt x="2216" y="377" on="1"/>
        <pt x="2063" y="377" on="0"/>
        <pt x="1900" y="544" on="0"/>
        <pt x="1900" y="662" on="1"/>
        <pt x="1900" y="736" on="0"/>
        <pt x="1924" y="792" on="1"/>
        <pt x="1661" y="792" on="1"/>
        <pt x="1741" y="681" on="0"/>
        <pt x="1741" y="465" on="1"/>
        <pt x="1741" y="232" on="0"/>
        <pt x="1505" y="-26" on="0"/>
        <pt x="1288" y="-26" on="1"/>
        <pt x="1114" y="-26" on="0"/>
        <pt x="931" y="141" on="0"/>
        <pt x="931" y="281" on="1"/>
        <pt x="931" y="418" on="0"/>
        <pt x="1113" y="576" on="0"/>
        <pt x="1256" y="576" on="1"/>
        <pt x="1375" y="576" on="0"/>
        <pt x="1470" y="521" on="1"/>
        <pt x="1464" y="650" on="0"/>
        <pt x="1356" y="787" on="0"/>
        <pt x="1261" y="792" on="1"/>
        <pt x="1250" y="792" on="1"/>
        <pt x="1180" y="792" on="0"/>
        <pt x="1074" y="703" on="0"/>
        <pt x="1054" y="626" on="1"/>
        <pt x="791" y="626" on="1"/>
        <pt x="733" y="799" on="0"/>
        <pt x="544" y="799" on="1"/>
        <pt x="466" y="799" on="0"/>
        <pt x="384" y="749" on="0"/>
        <pt x="384" y="699" on="1"/>
        <pt x="384" y="652" on="0"/>
        <pt x="456" y="607" on="0"/>
        <pt x="561" y="607" on="1"/>
        <pt x="682" y="607" on="1"/>
        <pt x="682" y="394" on="1"/>
        <pt x="559" y="394" on="1"/>
        <pt x="444" y="394" on="0"/>
        <pt x="373" y="340" on="0"/>
        <pt x="373" y="294" on="1"/>
        <pt x="373" y="198" on="0"/>
        <pt x="490" y="198" on="1"/>
        <pt x="606" y="198" on="0"/>
        <pt x="714" y="327" on="1"/>
        <pt x="891" y="173" on="1"/>
        <pt x="801" y="70" on="0"/>
        <pt x="592" y="-26" on="0"/>
        <pt x="450" y="-26" on="1"/>
        <pt x="269" y="-26" on="0"/>
        <pt x="64" y="125" on="0"/>
        <pt x="64" y="250" on="1"/>
        <pt x="64" y="427" on="0"/>
        <pt x="242" y="499" on="1"/>
        <pt x="163" y="534" on="0"/>
        <pt x="80" y="660" on="0"/>
        <pt x="80" y="743" on="1"/>
        <pt x="80" y="768" on="0"/>
        <pt x="89" y="792" on="1"/>
        <pt x="86" y="792" on="1"/>
        <pt x="86" y="1023" on="1"/>
      </contour>
      <contour>
        <pt x="2129" y="792" on="1"/>
        <pt x="2105" y="750" on="0"/>
        <pt x="2105" y="693" on="1"/>
        <pt x="2105" y="642" on="0"/>
        <pt x="2169" y="575" on="0"/>
        <pt x="2219" y="575" on="1"/>
        <pt x="2273" y="575" on="0"/>
        <pt x="2336" y="631" on="0"/>
        <pt x="2336" y="680" on="1"/>
        <pt x="2336" y="792" on="0"/>
        <pt x="2153" y="792" on="1"/>
      </contour>
      <contour>
        <pt x="1450" y="297" on="1"/>
        <pt x="1382" y="379" on="0"/>
        <pt x="1296" y="379" on="1"/>
        <pt x="1244" y="379" on="0"/>
        <pt x="1178" y="325" on="0"/>
        <pt x="1178" y="277" on="1"/>
        <pt x="1178" y="230" on="0"/>
        <pt x="1239" y="176" on="0"/>
        <pt x="1291" y="176" on="1"/>
        <pt x="1349" y="176" on="0"/>
        <pt x="1428" y="236" on="0"/>
      </contour>
      <contour>
        <pt x="904" y="-50" on="1"/>
      </contour>
      <contour>
        <pt x="1809" y="-50" on="1"/>
      </contour>
    </TTGlyph>
    <TTGlyph name="glyph00153" xMin="65" yMin="-50" xMax="2519" yMax="1143">
      <contour>
        <pt x="1951" y="1143" on="1"/>
        <pt x="2156" y="1143" on="0"/>
        <pt x="2332" y="1107" on="0"/>
        <pt x="2460" y="1015" on="0"/>
        <pt x="2519" y="890" on="0"/>
        <pt x="2519" y="806" on="1"/>
        <pt x="2519" y="668" on="0"/>
        <pt x="2341" y="497" on="0"/>
        <pt x="2190" y="497" on="1"/>
        <pt x="2037" y="497" on="0"/>
        <pt x="1874" y="664" on="0"/>
        <pt x="1874" y="782" on="1"/>
        <pt x="1874" y="856" on="0"/>
        <pt x="1898" y="912" on="1"/>
        <pt x="1529" y="912" on="1"/>
        <pt x="1635" y="844" on="0"/>
        <pt x="1741" y="642" on="0"/>
        <pt x="1741" y="508" on="1"/>
        <pt x="1741" y="241" on="0"/>
        <pt x="1307" y="-26" on="0"/>
        <pt x="873" y="-26" on="1"/>
        <pt x="478" y="-26" on="0"/>
        <pt x="65" y="257" on="0"/>
        <pt x="65" y="513" on="1"/>
        <pt x="65" y="708" on="0"/>
        <pt x="305" y="944" on="0"/>
        <pt x="500" y="944" on="1"/>
        <pt x="659" y="944" on="0"/>
        <pt x="841" y="781" on="0"/>
        <pt x="841" y="646" on="1"/>
        <pt x="841" y="504" on="0"/>
        <pt x="655" y="348" on="0"/>
        <pt x="486" y="348" on="1"/>
        <pt x="417" y="348" on="0"/>
        <pt x="337" y="388" on="1"/>
        <pt x="385" y="307" on="0"/>
        <pt x="660" y="222" on="0"/>
        <pt x="875" y="222" on="1"/>
        <pt x="1163" y="222" on="0"/>
        <pt x="1435" y="319" on="0"/>
        <pt x="1471" y="428" on="1"/>
        <pt x="1378" y="348" on="0"/>
        <pt x="1240" y="348" on="1"/>
        <pt x="1096" y="348" on="0"/>
        <pt x="932" y="493" on="0"/>
        <pt x="932" y="631" on="1"/>
        <pt x="932" y="726" on="0"/>
        <pt x="1048" y="865" on="0"/>
        <pt x="1156" y="890" on="1"/>
        <pt x="1143" y="895" on="0"/>
        <pt x="1093" y="912" on="1"/>
        <pt x="678" y="912" on="1"/>
        <pt x="678" y="1143" on="1"/>
      </contour>
      <contour>
        <pt x="2103" y="912" on="1"/>
        <pt x="2079" y="870" on="0"/>
        <pt x="2079" y="813" on="1"/>
        <pt x="2079" y="762" on="0"/>
        <pt x="2143" y="695" on="0"/>
        <pt x="2193" y="695" on="1"/>
        <pt x="2247" y="695" on="0"/>
        <pt x="2310" y="751" on="0"/>
        <pt x="2310" y="800" on="1"/>
        <pt x="2310" y="912" on="0"/>
        <pt x="2127" y="912" on="1"/>
      </contour>
      <contour>
        <pt x="1465" y="649" on="1"/>
        <pt x="1420" y="742" on="0"/>
        <pt x="1306" y="742" on="1"/>
        <pt x="1250" y="742" on="0"/>
        <pt x="1180" y="687" on="0"/>
        <pt x="1180" y="639" on="1"/>
        <pt x="1180" y="592" on="0"/>
        <pt x="1241" y="544" on="0"/>
        <pt x="1295" y="544" on="1"/>
        <pt x="1348" y="544" on="0"/>
        <pt x="1436" y="599" on="0"/>
      </contour>
      <contour>
        <pt x="323" y="583" on="1"/>
        <pt x="384" y="545" on="0"/>
        <pt x="452" y="545" on="1"/>
        <pt x="522" y="545" on="0"/>
        <pt x="594" y="598" on="0"/>
        <pt x="594" y="648" on="1"/>
        <pt x="594" y="691" on="0"/>
        <pt x="539" y="742" on="0"/>
        <pt x="488" y="742" on="1"/>
        <pt x="429" y="742" on="0"/>
        <pt x="336" y="657" on="0"/>
      </contour>
      <contour>
        <pt x="903" y="-50" on="1"/>
      </contour>
      <contour>
        <pt x="1806" y="-50" on="1"/>
      </contour>
    </TTGlyph>
    <TTGlyph name="glyph00154" xMin="74" yMin="-285" xMax="2290" yMax="1023">
      <contour>
        <pt x="226" y="792" on="1"/>
        <pt x="101" y="792" on="1"/>
        <pt x="101" y="1023" on="1"/>
        <pt x="1722" y="1023" on="1"/>
        <pt x="1927" y="1023" on="0"/>
        <pt x="2103" y="987" on="0"/>
        <pt x="2231" y="895" on="0"/>
        <pt x="2290" y="770" on="0"/>
        <pt x="2290" y="686" on="1"/>
        <pt x="2290" y="548" on="0"/>
        <pt x="2112" y="377" on="0"/>
        <pt x="1961" y="377" on="1"/>
        <pt x="1808" y="377" on="0"/>
        <pt x="1645" y="544" on="0"/>
        <pt x="1645" y="662" on="1"/>
        <pt x="1645" y="736" on="0"/>
        <pt x="1669" y="792" on="1"/>
        <pt x="1353" y="792" on="1"/>
        <pt x="1505" y="643" on="0"/>
        <pt x="1505" y="410" on="1"/>
        <pt x="1505" y="210" on="0"/>
        <pt x="1297" y="-26" on="0"/>
        <pt x="1129" y="-26" on="1"/>
        <pt x="1003" y="-26" on="0"/>
        <pt x="852" y="57" on="0"/>
        <pt x="789" y="150" on="1"/>
        <pt x="729" y="66" on="0"/>
        <pt x="577" y="-26" on="0"/>
        <pt x="436" y="-26" on="1"/>
        <pt x="272" y="-26" on="0"/>
        <pt x="74" y="208" on="0"/>
        <pt x="74" y="410" on="1"/>
        <pt x="74" y="643" on="0"/>
      </contour>
      <contour>
        <pt x="658" y="393" on="1"/>
        <pt x="921" y="393" on="1"/>
        <pt x="939" y="307" on="0"/>
        <pt x="1024" y="222" on="0"/>
        <pt x="1081" y="222" on="1"/>
        <pt x="1221" y="222" on="0"/>
        <pt x="1221" y="436" on="1"/>
        <pt x="1221" y="600" on="0"/>
        <pt x="1000" y="792" on="0"/>
        <pt x="803" y="792" on="1"/>
        <pt x="782" y="792" on="1"/>
        <pt x="586" y="792" on="0"/>
        <pt x="358" y="599" on="0"/>
        <pt x="358" y="437" on="1"/>
        <pt x="358" y="222" on="0"/>
        <pt x="498" y="222" on="1"/>
        <pt x="561" y="222" on="0"/>
        <pt x="639" y="304" on="0"/>
      </contour>
      <contour>
        <pt x="789" y="695" on="1"/>
        <pt x="857" y="695" on="0"/>
        <pt x="931" y="631" on="0"/>
        <pt x="931" y="571" on="1"/>
        <pt x="931" y="511" on="0"/>
        <pt x="853" y="447" on="0"/>
        <pt x="789" y="447" on="1"/>
        <pt x="724" y="447" on="0"/>
        <pt x="646" y="511" on="0"/>
        <pt x="646" y="571" on="1"/>
        <pt x="646" y="631" on="0"/>
        <pt x="720" y="695" on="0"/>
      </contour>
      <contour>
        <pt x="1874" y="792" on="1"/>
        <pt x="1850" y="750" on="0"/>
        <pt x="1850" y="693" on="1"/>
        <pt x="1850" y="642" on="0"/>
        <pt x="1914" y="575" on="0"/>
        <pt x="1964" y="575" on="1"/>
        <pt x="2018" y="575" on="0"/>
        <pt x="2081" y="631" on="0"/>
        <pt x="2081" y="680" on="1"/>
        <pt x="2081" y="792" on="0"/>
        <pt x="1900" y="792" on="1"/>
      </contour>
      <contour>
        <pt x="654" y="-285" on="1"/>
        <pt x="669" y="15" on="1"/>
        <pt x="909" y="15" on="1"/>
        <pt x="924" y="-285" on="1"/>
      </contour>
      <contour>
        <pt x="789" y="-50" on="1"/>
      </contour>
      <contour>
        <pt x="1573" y="-50" on="1"/>
      </contour>
    </TTGlyph>
    <TTGlyph name="glyph00155" xMin="74" yMin="-50" xMax="2290" yMax="1023">
      <contour>
        <pt x="226" y="792" on="1"/>
        <pt x="101" y="792" on="1"/>
        <pt x="101" y="1023" on="1"/>
        <pt x="1722" y="1023" on="1"/>
        <pt x="1927" y="1023" on="0"/>
        <pt x="2103" y="987" on="0"/>
        <pt x="2231" y="895" on="0"/>
        <pt x="2290" y="770" on="0"/>
        <pt x="2290" y="686" on="1"/>
        <pt x="2290" y="548" on="0"/>
        <pt x="2112" y="377" on="0"/>
        <pt x="1961" y="377" on="1"/>
        <pt x="1808" y="377" on="0"/>
        <pt x="1645" y="544" on="0"/>
        <pt x="1645" y="662" on="1"/>
        <pt x="1645" y="736" on="0"/>
        <pt x="1669" y="792" on="1"/>
        <pt x="1353" y="792" on="1"/>
        <pt x="1505" y="643" on="0"/>
        <pt x="1505" y="410" on="1"/>
        <pt x="1505" y="210" on="0"/>
        <pt x="1297" y="-26" on="0"/>
        <pt x="1129" y="-26" on="1"/>
        <pt x="1003" y="-26" on="0"/>
        <pt x="852" y="57" on="0"/>
        <pt x="789" y="150" on="1"/>
        <pt x="729" y="66" on="0"/>
        <pt x="577" y="-26" on="0"/>
        <pt x="436" y="-26" on="1"/>
        <pt x="272" y="-26" on="0"/>
        <pt x="74" y="208" on="0"/>
        <pt x="74" y="410" on="1"/>
        <pt x="74" y="643" on="0"/>
      </contour>
      <contour>
        <pt x="658" y="413" on="1"/>
        <pt x="921" y="413" on="1"/>
        <pt x="933" y="320" on="0"/>
        <pt x="1019" y="222" on="0"/>
        <pt x="1081" y="222" on="1"/>
        <pt x="1221" y="222" on="0"/>
        <pt x="1221" y="436" on="1"/>
        <pt x="1221" y="600" on="0"/>
        <pt x="1000" y="792" on="0"/>
        <pt x="803" y="792" on="1"/>
        <pt x="782" y="792" on="1"/>
        <pt x="586" y="792" on="0"/>
        <pt x="358" y="599" on="0"/>
        <pt x="358" y="437" on="1"/>
        <pt x="358" y="222" on="0"/>
        <pt x="498" y="222" on="1"/>
        <pt x="566" y="222" on="0"/>
        <pt x="648" y="320" on="0"/>
      </contour>
      <contour>
        <pt x="1874" y="792" on="1"/>
        <pt x="1850" y="750" on="0"/>
        <pt x="1850" y="693" on="1"/>
        <pt x="1850" y="642" on="0"/>
        <pt x="1914" y="575" on="0"/>
        <pt x="1964" y="575" on="1"/>
        <pt x="2018" y="575" on="0"/>
        <pt x="2081" y="631" on="0"/>
        <pt x="2081" y="680" on="1"/>
        <pt x="2081" y="792" on="0"/>
        <pt x="1900" y="792" on="1"/>
      </contour>
      <contour>
        <pt x="789" y="-50" on="1"/>
      </contour>
      <contour>
        <pt x="1573" y="-50" on="1"/>
      </contour>
    </TTGlyph>
    <TTGlyph name="glyph00156" xMin="74" yMin="-285" xMax="2290" yMax="1023">
      <contour>
        <pt x="226" y="792" on="1"/>
        <pt x="101" y="792" on="1"/>
        <pt x="101" y="1023" on="1"/>
        <pt x="1722" y="1023" on="1"/>
        <pt x="1927" y="1023" on="0"/>
        <pt x="2103" y="987" on="0"/>
        <pt x="2231" y="895" on="0"/>
        <pt x="2290" y="770" on="0"/>
        <pt x="2290" y="686" on="1"/>
        <pt x="2290" y="548" on="0"/>
        <pt x="2112" y="377" on="0"/>
        <pt x="1961" y="377" on="1"/>
        <pt x="1808" y="377" on="0"/>
        <pt x="1645" y="544" on="0"/>
        <pt x="1645" y="662" on="1"/>
        <pt x="1645" y="736" on="0"/>
        <pt x="1669" y="792" on="1"/>
        <pt x="1353" y="792" on="1"/>
        <pt x="1505" y="643" on="0"/>
        <pt x="1505" y="410" on="1"/>
        <pt x="1505" y="210" on="0"/>
        <pt x="1297" y="-26" on="0"/>
        <pt x="1129" y="-26" on="1"/>
        <pt x="1003" y="-26" on="0"/>
        <pt x="852" y="57" on="0"/>
        <pt x="789" y="150" on="1"/>
        <pt x="729" y="66" on="0"/>
        <pt x="577" y="-26" on="0"/>
        <pt x="436" y="-26" on="1"/>
        <pt x="272" y="-26" on="0"/>
        <pt x="74" y="208" on="0"/>
        <pt x="74" y="410" on="1"/>
        <pt x="74" y="643" on="0"/>
      </contour>
      <contour>
        <pt x="658" y="413" on="1"/>
        <pt x="921" y="413" on="1"/>
        <pt x="933" y="320" on="0"/>
        <pt x="1019" y="222" on="0"/>
        <pt x="1081" y="222" on="1"/>
        <pt x="1221" y="222" on="0"/>
        <pt x="1221" y="436" on="1"/>
        <pt x="1221" y="600" on="0"/>
        <pt x="1000" y="792" on="0"/>
        <pt x="803" y="792" on="1"/>
        <pt x="782" y="792" on="1"/>
        <pt x="586" y="792" on="0"/>
        <pt x="358" y="599" on="0"/>
        <pt x="358" y="437" on="1"/>
        <pt x="358" y="222" on="0"/>
        <pt x="498" y="222" on="1"/>
        <pt x="566" y="222" on="0"/>
        <pt x="648" y="320" on="0"/>
      </contour>
      <contour>
        <pt x="1874" y="792" on="1"/>
        <pt x="1850" y="750" on="0"/>
        <pt x="1850" y="693" on="1"/>
        <pt x="1850" y="642" on="0"/>
        <pt x="1914" y="575" on="0"/>
        <pt x="1964" y="575" on="1"/>
        <pt x="2018" y="575" on="0"/>
        <pt x="2081" y="631" on="0"/>
        <pt x="2081" y="680" on="1"/>
        <pt x="2081" y="792" on="0"/>
        <pt x="1900" y="792" on="1"/>
      </contour>
      <contour>
        <pt x="654" y="-285" on="1"/>
        <pt x="669" y="15" on="1"/>
        <pt x="909" y="15" on="1"/>
        <pt x="924" y="-285" on="1"/>
      </contour>
      <contour>
        <pt x="789" y="-50" on="1"/>
      </contour>
      <contour>
        <pt x="1573" y="-50" on="1"/>
      </contour>
    </TTGlyph>
    <TTGlyph name="glyph00157" xMin="56" yMin="-50" xMax="2305" yMax="1023">
      <contour>
        <pt x="901" y="792" on="1"/>
        <pt x="272" y="792" on="1"/>
        <pt x="272" y="1023" on="1"/>
        <pt x="1737" y="1023" on="1"/>
        <pt x="1942" y="1023" on="0"/>
        <pt x="2118" y="987" on="0"/>
        <pt x="2246" y="895" on="0"/>
        <pt x="2305" y="770" on="0"/>
        <pt x="2305" y="686" on="1"/>
        <pt x="2305" y="548" on="0"/>
        <pt x="2127" y="377" on="0"/>
        <pt x="1976" y="377" on="1"/>
        <pt x="1823" y="377" on="0"/>
        <pt x="1660" y="544" on="0"/>
        <pt x="1660" y="662" on="1"/>
        <pt x="1660" y="736" on="0"/>
        <pt x="1684" y="792" on="1"/>
        <pt x="1340" y="792" on="1"/>
        <pt x="1425" y="720" on="0"/>
        <pt x="1513" y="526" on="0"/>
        <pt x="1513" y="415" on="1"/>
        <pt x="1513" y="207" on="0"/>
        <pt x="1284" y="-26" on="0"/>
        <pt x="1078" y="-26" on="1"/>
        <pt x="929" y="-26" on="0"/>
        <pt x="700" y="107" on="0"/>
        <pt x="570" y="255" on="1"/>
        <pt x="500" y="334" on="0"/>
        <pt x="442" y="377" on="0"/>
        <pt x="409" y="377" on="1"/>
        <pt x="379" y="377" on="0"/>
        <pt x="338" y="329" on="0"/>
        <pt x="338" y="293" on="1"/>
        <pt x="338" y="192" on="0"/>
        <pt x="431" y="61" on="1"/>
        <pt x="143" y="-26" on="1"/>
        <pt x="56" y="139" on="0"/>
        <pt x="56" y="301" on="1"/>
        <pt x="56" y="440" on="0"/>
        <pt x="253" y="624" on="0"/>
        <pt x="403" y="624" on="1"/>
        <pt x="517" y="624" on="0"/>
        <pt x="706" y="528" on="0"/>
        <pt x="832" y="388" on="1"/>
        <pt x="924" y="286" on="0"/>
        <pt x="1023" y="222" on="0"/>
        <pt x="1085" y="222" on="1"/>
        <pt x="1154" y="222" on="0"/>
        <pt x="1228" y="311" on="0"/>
        <pt x="1228" y="395" on="1"/>
        <pt x="1228" y="521" on="0"/>
        <pt x="1056" y="731" on="0"/>
      </contour>
      <contour>
        <pt x="1889" y="792" on="1"/>
        <pt x="1865" y="750" on="0"/>
        <pt x="1865" y="693" on="1"/>
        <pt x="1865" y="642" on="0"/>
        <pt x="1929" y="575" on="0"/>
        <pt x="1979" y="575" on="1"/>
        <pt x="2033" y="575" on="0"/>
        <pt x="2096" y="631" on="0"/>
        <pt x="2096" y="680" on="1"/>
        <pt x="2096" y="792" on="0"/>
        <pt x="1915" y="792" on="1"/>
      </contour>
      <contour>
        <pt x="790" y="-50" on="1"/>
      </contour>
      <contour>
        <pt x="1581" y="-50" on="1"/>
      </contour>
    </TTGlyph>
    <TTGlyph name="glyph00158" xMin="56" yMin="-50" xMax="2305" yMax="1600">
      <component glyphName="glyph00693" x="0" y="0" flags="0x0"/>
      <component glyphName="glyph00726" x="0" y="0" flags="0x0"/>
    </TTGlyph>
    <TTGlyph name="glyph00159" xMin="56" yMin="-285" xMax="2305" yMax="1600">
      <component glyphName="glyph00696" x="0" y="0" flags="0x0"/>
      <component glyphName="glyph00726" x="0" y="0" flags="0x0"/>
    </TTGlyph>
    <TTGlyph name="glyph00160" xMin="63" yMin="-50" xMax="2359" yMax="1023">
      <contour>
        <pt x="1791" y="1023" on="1"/>
        <pt x="1996" y="1023" on="0"/>
        <pt x="2172" y="987" on="0"/>
        <pt x="2300" y="895" on="0"/>
        <pt x="2359" y="770" on="0"/>
        <pt x="2359" y="686" on="1"/>
        <pt x="2359" y="548" on="0"/>
        <pt x="2181" y="377" on="0"/>
        <pt x="2030" y="377" on="1"/>
        <pt x="1877" y="377" on="0"/>
        <pt x="1714" y="544" on="0"/>
        <pt x="1714" y="662" on="1"/>
        <pt x="1714" y="736" on="0"/>
        <pt x="1738" y="792" on="1"/>
        <pt x="1436" y="792" on="1"/>
        <pt x="1595" y="628" on="0"/>
        <pt x="1595" y="409" on="1"/>
        <pt x="1595" y="207" on="0"/>
        <pt x="1366" y="-26" on="0"/>
        <pt x="1161" y="-26" on="1"/>
        <pt x="1050" y="-26" on="0"/>
        <pt x="896" y="57" on="0"/>
        <pt x="833" y="150" on="1"/>
        <pt x="760" y="55" on="0"/>
        <pt x="589" y="-26" on="0"/>
        <pt x="441" y="-26" on="1"/>
        <pt x="267" y="-26" on="0"/>
        <pt x="74" y="136" on="0"/>
        <pt x="74" y="267" on="1"/>
        <pt x="74" y="385" on="0"/>
        <pt x="213" y="530" on="0"/>
        <pt x="402" y="607" on="1"/>
        <pt x="505" y="649" on="0"/>
        <pt x="560" y="705" on="0"/>
        <pt x="560" y="740" on="1"/>
        <pt x="560" y="778" on="0"/>
        <pt x="508" y="821" on="0"/>
        <pt x="459" y="821" on="1"/>
        <pt x="346" y="821" on="0"/>
        <pt x="346" y="736" on="1"/>
        <pt x="346" y="694" on="0"/>
        <pt x="365" y="660" on="1"/>
        <pt x="110" y="588" on="1"/>
        <pt x="88" y="624" on="0"/>
        <pt x="63" y="725" on="0"/>
        <pt x="63" y="767" on="1"/>
        <pt x="63" y="881" on="0"/>
        <pt x="276" y="1023" on="0"/>
        <pt x="464" y="1023" on="1"/>
        <pt x="649" y="1023" on="0"/>
        <pt x="842" y="882" on="0"/>
        <pt x="842" y="753" on="1"/>
        <pt x="842" y="662" on="0"/>
        <pt x="767" y="550" on="0"/>
        <pt x="618" y="461" on="0"/>
        <pt x="507" y="417" on="1"/>
        <pt x="419" y="382" on="0"/>
        <pt x="359" y="331" on="0"/>
        <pt x="359" y="297" on="1"/>
        <pt x="359" y="222" on="0"/>
        <pt x="487" y="222" on="1"/>
        <pt x="675" y="222" on="0"/>
        <pt x="702" y="413" on="1"/>
        <pt x="965" y="413" on="1"/>
        <pt x="976" y="326" on="0"/>
        <pt x="1062" y="222" on="0"/>
        <pt x="1157" y="222" on="1"/>
        <pt x="1310" y="222" on="0"/>
        <pt x="1310" y="387" on="1"/>
        <pt x="1310" y="501" on="0"/>
        <pt x="1178" y="704" on="0"/>
        <pt x="1046" y="792" on="1"/>
        <pt x="919" y="792" on="1"/>
        <pt x="919" y="1023" on="1"/>
      </contour>
      <contour>
        <pt x="1943" y="792" on="1"/>
        <pt x="1919" y="750" on="0"/>
        <pt x="1919" y="693" on="1"/>
        <pt x="1919" y="642" on="0"/>
        <pt x="1983" y="575" on="0"/>
        <pt x="2033" y="575" on="1"/>
        <pt x="2087" y="575" on="0"/>
        <pt x="2150" y="631" on="0"/>
        <pt x="2150" y="680" on="1"/>
        <pt x="2150" y="792" on="0"/>
        <pt x="1967" y="792" on="1"/>
      </contour>
      <contour>
        <pt x="831" y="-50" on="1"/>
      </contour>
      <contour>
        <pt x="1663" y="-50" on="1"/>
      </contour>
    </TTGlyph>
    <TTGlyph name="glyph00161" xMin="63" yMin="-285" xMax="2359" yMax="1023">
      <contour>
        <pt x="1791" y="1023" on="1"/>
        <pt x="1996" y="1023" on="0"/>
        <pt x="2172" y="987" on="0"/>
        <pt x="2300" y="895" on="0"/>
        <pt x="2359" y="770" on="0"/>
        <pt x="2359" y="686" on="1"/>
        <pt x="2359" y="548" on="0"/>
        <pt x="2181" y="377" on="0"/>
        <pt x="2030" y="377" on="1"/>
        <pt x="1877" y="377" on="0"/>
        <pt x="1714" y="544" on="0"/>
        <pt x="1714" y="662" on="1"/>
        <pt x="1714" y="736" on="0"/>
        <pt x="1738" y="792" on="1"/>
        <pt x="1436" y="792" on="1"/>
        <pt x="1595" y="628" on="0"/>
        <pt x="1595" y="409" on="1"/>
        <pt x="1595" y="207" on="0"/>
        <pt x="1366" y="-26" on="0"/>
        <pt x="1161" y="-26" on="1"/>
        <pt x="1050" y="-26" on="0"/>
        <pt x="896" y="57" on="0"/>
        <pt x="833" y="150" on="1"/>
        <pt x="760" y="55" on="0"/>
        <pt x="589" y="-26" on="0"/>
        <pt x="441" y="-26" on="1"/>
        <pt x="267" y="-26" on="0"/>
        <pt x="74" y="136" on="0"/>
        <pt x="74" y="267" on="1"/>
        <pt x="74" y="385" on="0"/>
        <pt x="213" y="530" on="0"/>
        <pt x="402" y="607" on="1"/>
        <pt x="505" y="649" on="0"/>
        <pt x="560" y="705" on="0"/>
        <pt x="560" y="740" on="1"/>
        <pt x="560" y="778" on="0"/>
        <pt x="508" y="821" on="0"/>
        <pt x="459" y="821" on="1"/>
        <pt x="346" y="821" on="0"/>
        <pt x="346" y="736" on="1"/>
        <pt x="346" y="694" on="0"/>
        <pt x="365" y="660" on="1"/>
        <pt x="110" y="588" on="1"/>
        <pt x="88" y="624" on="0"/>
        <pt x="63" y="725" on="0"/>
        <pt x="63" y="767" on="1"/>
        <pt x="63" y="881" on="0"/>
        <pt x="276" y="1023" on="0"/>
        <pt x="464" y="1023" on="1"/>
        <pt x="649" y="1023" on="0"/>
        <pt x="842" y="882" on="0"/>
        <pt x="842" y="753" on="1"/>
        <pt x="842" y="662" on="0"/>
        <pt x="767" y="550" on="0"/>
        <pt x="618" y="461" on="0"/>
        <pt x="507" y="417" on="1"/>
        <pt x="419" y="382" on="0"/>
        <pt x="359" y="331" on="0"/>
        <pt x="359" y="297" on="1"/>
        <pt x="359" y="222" on="0"/>
        <pt x="487" y="222" on="1"/>
        <pt x="675" y="222" on="0"/>
        <pt x="702" y="413" on="1"/>
        <pt x="965" y="413" on="1"/>
        <pt x="976" y="326" on="0"/>
        <pt x="1062" y="222" on="0"/>
        <pt x="1157" y="222" on="1"/>
        <pt x="1310" y="222" on="0"/>
        <pt x="1310" y="387" on="1"/>
        <pt x="1310" y="501" on="0"/>
        <pt x="1178" y="704" on="0"/>
        <pt x="1046" y="792" on="1"/>
        <pt x="919" y="792" on="1"/>
        <pt x="919" y="1023" on="1"/>
      </contour>
      <contour>
        <pt x="1943" y="792" on="1"/>
        <pt x="1919" y="750" on="0"/>
        <pt x="1919" y="693" on="1"/>
        <pt x="1919" y="642" on="0"/>
        <pt x="1983" y="575" on="0"/>
        <pt x="2033" y="575" on="1"/>
        <pt x="2087" y="575" on="0"/>
        <pt x="2150" y="631" on="0"/>
        <pt x="2150" y="680" on="1"/>
        <pt x="2150" y="792" on="0"/>
        <pt x="1967" y="792" on="1"/>
      </contour>
      <contour>
        <pt x="698" y="-285" on="1"/>
        <pt x="713" y="15" on="1"/>
        <pt x="953" y="15" on="1"/>
        <pt x="968" y="-285" on="1"/>
      </contour>
      <contour>
        <pt x="831" y="-50" on="1"/>
      </contour>
      <contour>
        <pt x="1663" y="-50" on="1"/>
      </contour>
    </TTGlyph>
    <TTGlyph name="glyph00162" xMin="56" yMin="-50" xMax="2999" yMax="1487">
      <component glyphName="glyph00703" x="0" y="0" flags="0x200"/>
      <component glyphName="glyph00724" x="312" y="0" flags="0x0"/>
    </TTGlyph>
    <TTGlyph name="glyph00163" xMin="68" yMin="-50" xMax="3407" yMax="1487">
      <component glyphName="glyph00709" x="0" y="0" flags="0x200"/>
      <component glyphName="glyph00724" x="1130" y="0" flags="0x0"/>
    </TTGlyph>
    <TTGlyph name="glyph00164" xMin="82" yMin="-50" xMax="2028" yMax="1023">
      <contour>
        <pt x="1460" y="1023" on="1"/>
        <pt x="1665" y="1023" on="0"/>
        <pt x="1841" y="987" on="0"/>
        <pt x="1969" y="895" on="0"/>
        <pt x="2028" y="770" on="0"/>
        <pt x="2028" y="686" on="1"/>
        <pt x="2028" y="548" on="0"/>
        <pt x="1850" y="377" on="0"/>
        <pt x="1699" y="377" on="1"/>
        <pt x="1546" y="377" on="0"/>
        <pt x="1383" y="544" on="0"/>
        <pt x="1383" y="662" on="1"/>
        <pt x="1383" y="736" on="0"/>
        <pt x="1407" y="792" on="1"/>
        <pt x="1135" y="792" on="1"/>
        <pt x="1227" y="675" on="0"/>
        <pt x="1227" y="486" on="1"/>
        <pt x="1227" y="248" on="0"/>
        <pt x="926" y="-26" on="0"/>
        <pt x="654" y="-26" on="1"/>
        <pt x="385" y="-26" on="0"/>
        <pt x="82" y="248" on="0"/>
        <pt x="82" y="483" on="1"/>
        <pt x="82" y="672" on="0"/>
        <pt x="181" y="792" on="1"/>
        <pt x="100" y="792" on="1"/>
        <pt x="100" y="1023" on="1"/>
      </contour>
      <contour>
        <pt x="654" y="792" on="1"/>
        <pt x="639" y="792" on="1"/>
        <pt x="571" y="792" on="0"/>
        <pt x="441" y="727" on="0"/>
        <pt x="366" y="595" on="0"/>
        <pt x="366" y="510" on="1"/>
        <pt x="366" y="377" on="0"/>
        <pt x="518" y="222" on="0"/>
        <pt x="654" y="222" on="1"/>
        <pt x="790" y="222" on="0"/>
        <pt x="943" y="372" on="0"/>
        <pt x="943" y="500" on="1"/>
        <pt x="943" y="631" on="0"/>
        <pt x="790" y="792" on="0"/>
      </contour>
      <contour>
        <pt x="1612" y="792" on="1"/>
        <pt x="1588" y="750" on="0"/>
        <pt x="1588" y="693" on="1"/>
        <pt x="1588" y="642" on="0"/>
        <pt x="1652" y="575" on="0"/>
        <pt x="1702" y="575" on="1"/>
        <pt x="1756" y="575" on="0"/>
        <pt x="1819" y="631" on="0"/>
        <pt x="1819" y="680" on="1"/>
        <pt x="1819" y="792" on="0"/>
        <pt x="1636" y="792" on="1"/>
      </contour>
      <contour>
        <pt x="654" y="-50" on="1"/>
      </contour>
      <contour>
        <pt x="1295" y="-50" on="1"/>
      </contour>
    </TTGlyph>
    <TTGlyph name="glyph00165" xMin="65" yMin="-50" xMax="2602" yMax="1023">
      <contour>
        <pt x="2034" y="1023" on="1"/>
        <pt x="2239" y="1023" on="0"/>
        <pt x="2415" y="987" on="0"/>
        <pt x="2543" y="895" on="0"/>
        <pt x="2602" y="770" on="0"/>
        <pt x="2602" y="686" on="1"/>
        <pt x="2602" y="548" on="0"/>
        <pt x="2424" y="377" on="0"/>
        <pt x="2273" y="377" on="1"/>
        <pt x="2120" y="377" on="0"/>
        <pt x="1957" y="544" on="0"/>
        <pt x="1957" y="662" on="1"/>
        <pt x="1957" y="736" on="0"/>
        <pt x="1981" y="792" on="1"/>
        <pt x="1719" y="792" on="1"/>
        <pt x="1801" y="683" on="0"/>
        <pt x="1801" y="510" on="1"/>
        <pt x="1801" y="258" on="0"/>
        <pt x="1531" y="-26" on="0"/>
        <pt x="1283" y="-26" on="1"/>
        <pt x="1173" y="-26" on="0"/>
        <pt x="1002" y="51" on="0"/>
        <pt x="935" y="133" on="1"/>
        <pt x="843" y="37" on="0"/>
        <pt x="673" y="-26" on="0"/>
        <pt x="562" y="-26" on="1"/>
        <pt x="318" y="-26" on="0"/>
        <pt x="65" y="260" on="0"/>
        <pt x="65" y="503" on="1"/>
        <pt x="65" y="743" on="0"/>
        <pt x="310" y="1023" on="0"/>
        <pt x="515" y="1023" on="1"/>
        <pt x="665" y="1023" on="0"/>
        <pt x="841" y="858" on="0"/>
        <pt x="841" y="725" on="1"/>
        <pt x="841" y="671" on="0"/>
        <pt x="831" y="634" on="1"/>
        <pt x="1052" y="634" on="1"/>
        <pt x="991" y="689" on="0"/>
        <pt x="991" y="785" on="1"/>
        <pt x="991" y="792" on="1"/>
        <pt x="914" y="792" on="1"/>
        <pt x="914" y="1023" on="1"/>
      </contour>
      <contour>
        <pt x="340" y="653" on="1"/>
        <pt x="395" y="624" on="0"/>
        <pt x="452" y="624" on="1"/>
        <pt x="522" y="624" on="0"/>
        <pt x="594" y="677" on="0"/>
        <pt x="594" y="727" on="1"/>
        <pt x="594" y="767" on="0"/>
        <pt x="540" y="821" on="0"/>
        <pt x="498" y="821" on="1"/>
        <pt x="439" y="821" on="0"/>
        <pt x="356" y="732" on="0"/>
      </contour>
      <contour>
        <pt x="802" y="381" on="1"/>
        <pt x="1065" y="381" on="1"/>
        <pt x="1091" y="298" on="0"/>
        <pt x="1199" y="222" on="0"/>
        <pt x="1286" y="222" on="1"/>
        <pt x="1517" y="222" on="0"/>
        <pt x="1517" y="517" on="1"/>
        <pt x="1517" y="646" on="0"/>
        <pt x="1416" y="792" on="0"/>
        <pt x="1333" y="792" on="1"/>
        <pt x="1284" y="792" on="0"/>
        <pt x="1230" y="750" on="0"/>
        <pt x="1230" y="712" on="1"/>
        <pt x="1230" y="667" on="0"/>
        <pt x="1309" y="612" on="0"/>
        <pt x="1385" y="606" on="1"/>
        <pt x="1385" y="424" on="1"/>
        <pt x="748" y="424" on="1"/>
        <pt x="748" y="500" on="1"/>
        <pt x="703" y="463" on="0"/>
        <pt x="572" y="427" on="0"/>
        <pt x="486" y="427" on="1"/>
        <pt x="407" y="427" on="0"/>
        <pt x="332" y="459" on="1"/>
        <pt x="336" y="340" on="0"/>
        <pt x="448" y="222" on="0"/>
        <pt x="564" y="222" on="1"/>
        <pt x="655" y="222" on="0"/>
        <pt x="772" y="299" on="0"/>
      </contour>
      <contour>
        <pt x="2186" y="792" on="1"/>
        <pt x="2162" y="750" on="0"/>
        <pt x="2162" y="693" on="1"/>
        <pt x="2162" y="642" on="0"/>
        <pt x="2226" y="575" on="0"/>
        <pt x="2276" y="575" on="1"/>
        <pt x="2330" y="575" on="0"/>
        <pt x="2393" y="631" on="0"/>
        <pt x="2393" y="680" on="1"/>
        <pt x="2393" y="792" on="0"/>
        <pt x="2210" y="792" on="1"/>
      </contour>
      <contour>
        <pt x="933" y="-50" on="1"/>
      </contour>
      <contour>
        <pt x="1866" y="-50" on="1"/>
      </contour>
    </TTGlyph>
    <TTGlyph name="glyph00166" xMin="65" yMin="-50" xMax="2310" yMax="1023">
      <contour>
        <pt x="1742" y="1023" on="1"/>
        <pt x="1947" y="1023" on="0"/>
        <pt x="2123" y="987" on="0"/>
        <pt x="2251" y="895" on="0"/>
        <pt x="2310" y="770" on="0"/>
        <pt x="2310" y="686" on="1"/>
        <pt x="2310" y="548" on="0"/>
        <pt x="2132" y="377" on="0"/>
        <pt x="1981" y="377" on="1"/>
        <pt x="1828" y="377" on="0"/>
        <pt x="1665" y="544" on="0"/>
        <pt x="1665" y="662" on="1"/>
        <pt x="1665" y="736" on="0"/>
        <pt x="1689" y="792" on="1"/>
        <pt x="1414" y="792" on="1"/>
        <pt x="1511" y="672" on="0"/>
        <pt x="1511" y="496" on="1"/>
        <pt x="1511" y="255" on="0"/>
        <pt x="1135" y="-26" on="0"/>
        <pt x="789" y="-26" on="1"/>
        <pt x="572" y="-26" on="0"/>
        <pt x="243" y="116" on="0"/>
        <pt x="65" y="385" on="0"/>
        <pt x="65" y="559" on="1"/>
        <pt x="65" y="771" on="0"/>
        <pt x="313" y="1023" on="0"/>
        <pt x="517" y="1023" on="1"/>
        <pt x="679" y="1023" on="0"/>
        <pt x="861" y="855" on="0"/>
        <pt x="861" y="726" on="1"/>
        <pt x="861" y="583" on="0"/>
        <pt x="679" y="427" on="0"/>
        <pt x="510" y="427" on="1"/>
        <pt x="423" y="427" on="0"/>
        <pt x="344" y="457" on="1"/>
        <pt x="382" y="342" on="0"/>
        <pt x="616" y="222" on="0"/>
        <pt x="798" y="222" on="1"/>
        <pt x="1005" y="222" on="0"/>
        <pt x="1226" y="364" on="0"/>
        <pt x="1226" y="499" on="1"/>
        <pt x="1226" y="591" on="0"/>
        <pt x="1130" y="735" on="0"/>
        <pt x="1034" y="792" on="1"/>
        <pt x="916" y="792" on="1"/>
        <pt x="916" y="1023" on="1"/>
      </contour>
      <contour>
        <pt x="335" y="656" on="1"/>
        <pt x="390" y="624" on="0"/>
        <pt x="452" y="624" on="1"/>
        <pt x="594" y="624" on="0"/>
        <pt x="594" y="727" on="1"/>
        <pt x="594" y="767" on="0"/>
        <pt x="540" y="821" on="0"/>
        <pt x="498" y="821" on="1"/>
        <pt x="436" y="821" on="0"/>
        <pt x="346" y="729" on="0"/>
      </contour>
      <contour>
        <pt x="1894" y="792" on="1"/>
        <pt x="1870" y="750" on="0"/>
        <pt x="1870" y="693" on="1"/>
        <pt x="1870" y="642" on="0"/>
        <pt x="1934" y="575" on="0"/>
        <pt x="1984" y="575" on="1"/>
        <pt x="2038" y="575" on="0"/>
        <pt x="2101" y="631" on="0"/>
        <pt x="2101" y="680" on="1"/>
        <pt x="2101" y="792" on="0"/>
        <pt x="1918" y="792" on="1"/>
      </contour>
      <contour>
        <pt x="788" y="-50" on="1"/>
      </contour>
      <contour>
        <pt x="1576" y="-50" on="1"/>
      </contour>
    </TTGlyph>
    <TTGlyph name="glyph00167" xMin="54" yMin="-50" xMax="2204" yMax="1023">
      <contour>
        <pt x="1636" y="1023" on="1"/>
        <pt x="1841" y="1023" on="0"/>
        <pt x="2017" y="987" on="0"/>
        <pt x="2145" y="895" on="0"/>
        <pt x="2204" y="770" on="0"/>
        <pt x="2204" y="686" on="1"/>
        <pt x="2204" y="548" on="0"/>
        <pt x="2026" y="377" on="0"/>
        <pt x="1875" y="377" on="1"/>
        <pt x="1722" y="377" on="0"/>
        <pt x="1559" y="544" on="0"/>
        <pt x="1559" y="662" on="1"/>
        <pt x="1559" y="736" on="0"/>
        <pt x="1583" y="792" on="1"/>
        <pt x="1366" y="792" on="1"/>
        <pt x="1396" y="732" on="0"/>
        <pt x="1396" y="663" on="1"/>
        <pt x="1396" y="525" on="0"/>
        <pt x="1221" y="348" on="0"/>
        <pt x="1047" y="309" on="1"/>
        <pt x="1098" y="257" on="0"/>
        <pt x="1098" y="193" on="1"/>
        <pt x="1098" y="87" on="0"/>
        <pt x="909" y="-26" on="0"/>
        <pt x="731" y="-26" on="1"/>
        <pt x="567" y="-26" on="0"/>
        <pt x="375" y="83" on="0"/>
        <pt x="375" y="189" on="1"/>
        <pt x="375" y="268" on="0"/>
        <pt x="433" y="316" on="1"/>
        <pt x="243" y="349" on="0"/>
        <pt x="54" y="508" on="0"/>
        <pt x="54" y="633" on="1"/>
        <pt x="54" y="760" on="0"/>
        <pt x="245" y="912" on="0"/>
        <pt x="418" y="912" on="1"/>
        <pt x="589" y="912" on="0"/>
        <pt x="772" y="782" on="0"/>
        <pt x="772" y="672" on="1"/>
        <pt x="772" y="572" on="0"/>
        <pt x="696" y="502" on="1"/>
        <pt x="793" y="496" on="1"/>
        <pt x="952" y="508" on="0"/>
        <pt x="1112" y="595" on="0"/>
        <pt x="1112" y="671" on="1"/>
        <pt x="1112" y="758" on="0"/>
        <pt x="1031" y="792" on="1"/>
        <pt x="738" y="792" on="1"/>
        <pt x="738" y="1023" on="1"/>
      </contour>
      <contour>
        <pt x="1788" y="792" on="1"/>
        <pt x="1764" y="750" on="0"/>
        <pt x="1764" y="693" on="1"/>
        <pt x="1764" y="642" on="0"/>
        <pt x="1828" y="575" on="0"/>
        <pt x="1878" y="575" on="1"/>
        <pt x="1932" y="575" on="0"/>
        <pt x="1995" y="631" on="0"/>
        <pt x="1995" y="680" on="1"/>
        <pt x="1995" y="792" on="0"/>
        <pt x="1812" y="792" on="1"/>
      </contour>
      <contour>
        <pt x="448" y="527" on="1"/>
        <pt x="519" y="566" on="0"/>
        <pt x="519" y="624" on="1"/>
        <pt x="519" y="659" on="0"/>
        <pt x="467" y="703" on="0"/>
        <pt x="420" y="703" on="1"/>
        <pt x="374" y="703" on="0"/>
        <pt x="319" y="662" on="0"/>
        <pt x="319" y="631" on="1"/>
        <pt x="319" y="587" on="0"/>
        <pt x="387" y="540" on="0"/>
      </contour>
      <contour>
        <pt x="745" y="310" on="1"/>
        <pt x="684" y="301" on="0"/>
        <pt x="620" y="266" on="0"/>
        <pt x="620" y="236" on="1"/>
        <pt x="620" y="209" on="0"/>
        <pt x="685" y="176" on="0"/>
        <pt x="736" y="176" on="1"/>
        <pt x="790" y="176" on="0"/>
        <pt x="853" y="208" on="0"/>
        <pt x="853" y="238" on="1"/>
        <pt x="853" y="291" on="0"/>
      </contour>
      <contour>
        <pt x="725" y="-50" on="1"/>
      </contour>
      <contour>
        <pt x="1451" y="-50" on="1"/>
      </contour>
    </TTGlyph>
    <TTGlyph name="glyph00168" xMin="56" yMin="-50" xMax="2305" yMax="1023">
      <contour>
        <pt x="733" y="131" on="1"/>
        <pt x="663" y="40" on="0"/>
        <pt x="510" y="-26" on="0"/>
        <pt x="401" y="-26" on="1"/>
        <pt x="238" y="-26" on="0"/>
        <pt x="56" y="157" on="0"/>
        <pt x="56" y="299" on="1"/>
        <pt x="56" y="442" on="0"/>
        <pt x="257" y="624" on="0"/>
        <pt x="415" y="624" on="1"/>
        <pt x="534" y="624" on="0"/>
        <pt x="710" y="531" on="0"/>
        <pt x="834" y="393" on="1"/>
        <pt x="896" y="324" on="0"/>
        <pt x="980" y="251" on="0"/>
        <pt x="1047" y="222" on="0"/>
        <pt x="1092" y="222" on="1"/>
        <pt x="1161" y="222" on="0"/>
        <pt x="1235" y="311" on="0"/>
        <pt x="1235" y="395" on="1"/>
        <pt x="1235" y="521" on="0"/>
        <pt x="1065" y="732" on="0"/>
        <pt x="909" y="792" on="1"/>
        <pt x="272" y="792" on="1"/>
        <pt x="272" y="1023" on="1"/>
        <pt x="1737" y="1023" on="1"/>
        <pt x="1942" y="1023" on="0"/>
        <pt x="2118" y="987" on="0"/>
        <pt x="2246" y="895" on="0"/>
        <pt x="2305" y="770" on="0"/>
        <pt x="2305" y="686" on="1"/>
        <pt x="2305" y="548" on="0"/>
        <pt x="2127" y="377" on="0"/>
        <pt x="1976" y="377" on="1"/>
        <pt x="1823" y="377" on="0"/>
        <pt x="1660" y="544" on="0"/>
        <pt x="1660" y="662" on="1"/>
        <pt x="1660" y="736" on="0"/>
        <pt x="1684" y="792" on="1"/>
        <pt x="1347" y="792" on="1"/>
        <pt x="1432" y="720" on="0"/>
        <pt x="1520" y="526" on="0"/>
        <pt x="1520" y="415" on="1"/>
        <pt x="1520" y="210" on="0"/>
        <pt x="1292" y="-26" on="0"/>
        <pt x="1093" y="-26" on="1"/>
        <pt x="982" y="-26" on="0"/>
        <pt x="822" y="46" on="0"/>
      </contour>
      <contour>
        <pt x="1889" y="792" on="1"/>
        <pt x="1865" y="750" on="0"/>
        <pt x="1865" y="693" on="1"/>
        <pt x="1865" y="642" on="0"/>
        <pt x="1929" y="575" on="0"/>
        <pt x="1979" y="575" on="1"/>
        <pt x="2033" y="575" on="0"/>
        <pt x="2096" y="631" on="0"/>
        <pt x="2096" y="680" on="1"/>
        <pt x="2096" y="792" on="0"/>
        <pt x="1915" y="792" on="1"/>
      </contour>
      <contour>
        <pt x="578" y="294" on="1"/>
        <pt x="516" y="365" on="0"/>
        <pt x="456" y="406" on="0"/>
        <pt x="418" y="406" on="1"/>
        <pt x="379" y="406" on="0"/>
        <pt x="322" y="349" on="0"/>
        <pt x="322" y="302" on="1"/>
        <pt x="322" y="245" on="0"/>
        <pt x="381" y="187" on="0"/>
        <pt x="434" y="187" on="1"/>
        <pt x="478" y="187" on="0"/>
        <pt x="555" y="243" on="0"/>
      </contour>
      <contour>
        <pt x="794" y="-50" on="1"/>
      </contour>
      <contour>
        <pt x="1588" y="-50" on="1"/>
      </contour>
    </TTGlyph>
    <TTGlyph name="glyph00169" xMin="59" yMin="-50" xMax="1964" yMax="1063">
      <contour>
        <pt x="1396" y="1063" on="1"/>
        <pt x="1601" y="1063" on="0"/>
        <pt x="1777" y="1027" on="0"/>
        <pt x="1905" y="935" on="0"/>
        <pt x="1964" y="810" on="0"/>
        <pt x="1964" y="726" on="1"/>
        <pt x="1964" y="588" on="0"/>
        <pt x="1786" y="417" on="0"/>
        <pt x="1635" y="417" on="1"/>
        <pt x="1482" y="417" on="0"/>
        <pt x="1319" y="584" on="0"/>
        <pt x="1319" y="702" on="1"/>
        <pt x="1319" y="776" on="0"/>
        <pt x="1343" y="832" on="1"/>
        <pt x="1158" y="832" on="1"/>
        <pt x="1162" y="817" on="0"/>
        <pt x="1162" y="792" on="1"/>
        <pt x="1162" y="735" on="0"/>
        <pt x="1112" y="633" on="0"/>
        <pt x="1062" y="588" on="1"/>
        <pt x="1145" y="526" on="0"/>
        <pt x="1229" y="363" on="0"/>
        <pt x="1229" y="262" on="1"/>
        <pt x="1229" y="126" on="0"/>
        <pt x="1034" y="-26" on="0"/>
        <pt x="858" y="-26" on="1"/>
        <pt x="677" y="-26" on="0"/>
        <pt x="485" y="128" on="0"/>
        <pt x="485" y="257" on="1"/>
        <pt x="485" y="414" on="0"/>
        <pt x="653" y="527" on="1"/>
        <pt x="621" y="532" on="0"/>
        <pt x="564" y="537" on="0"/>
        <pt x="539" y="537" on="1"/>
        <pt x="440" y="537" on="0"/>
        <pt x="343" y="475" on="0"/>
        <pt x="343" y="401" on="1"/>
        <pt x="343" y="355" on="0"/>
        <pt x="369" y="303" on="1"/>
        <pt x="114" y="229" on="1"/>
        <pt x="59" y="332" on="0"/>
        <pt x="59" y="438" on="1"/>
        <pt x="59" y="588" on="0"/>
        <pt x="296" y="749" on="0"/>
        <pt x="530" y="749" on="1"/>
        <pt x="615" y="749" on="0"/>
        <pt x="781" y="720" on="0"/>
        <pt x="862" y="691" on="1"/>
        <pt x="883" y="714" on="0"/>
        <pt x="883" y="745" on="1"/>
        <pt x="883" y="796" on="0"/>
        <pt x="837" y="832" on="1"/>
        <pt x="229" y="832" on="1"/>
        <pt x="229" y="1063" on="1"/>
      </contour>
      <contour>
        <pt x="1548" y="832" on="1"/>
        <pt x="1524" y="790" on="0"/>
        <pt x="1524" y="733" on="1"/>
        <pt x="1524" y="682" on="0"/>
        <pt x="1588" y="615" on="0"/>
        <pt x="1638" y="615" on="1"/>
        <pt x="1692" y="615" on="0"/>
        <pt x="1755" y="671" on="0"/>
        <pt x="1755" y="720" on="1"/>
        <pt x="1755" y="832" on="0"/>
        <pt x="1572" y="832" on="1"/>
      </contour>
      <contour>
        <pt x="861" y="449" on="1"/>
        <pt x="805" y="408" on="0"/>
        <pt x="755" y="335" on="0"/>
        <pt x="755" y="296" on="1"/>
        <pt x="755" y="252" on="0"/>
        <pt x="806" y="198" on="0"/>
        <pt x="855" y="198" on="1"/>
        <pt x="903" y="198" on="0"/>
        <pt x="959" y="254" on="0"/>
        <pt x="959" y="300" on="1"/>
        <pt x="959" y="341" on="0"/>
        <pt x="910" y="415" on="0"/>
      </contour>
      <contour>
        <pt x="642" y="-50" on="1"/>
      </contour>
      <contour>
        <pt x="1285" y="-50" on="1"/>
      </contour>
    </TTGlyph>
    <TTGlyph name="glyph00170" xMin="56" yMin="-285" xMax="2305" yMax="1600">
      <component glyphName="glyph00718" x="0" y="0" flags="0x0"/>
      <component glyphName="glyph00726" x="0" y="0" flags="0x0"/>
    </TTGlyph>
    <TTGlyph name="glyph00171" xMin="56" yMin="-50" xMax="2305" yMax="1600">
      <component glyphName="glyph00721" x="0" y="0" flags="0x0"/>
      <component glyphName="glyph00726" x="0" y="0" flags="0x0"/>
    </TTGlyph>
    <TTGlyph name="glyph00172" xMin="56" yMin="-50" xMax="2354" yMax="1487">
      <contour>
        <pt x="370" y="1217" on="1"/>
        <pt x="394" y="1112" on="0"/>
        <pt x="447" y="1023" on="0"/>
        <pt x="493" y="1023" on="1"/>
        <pt x="530" y="1023" on="0"/>
        <pt x="596" y="1081" on="0"/>
        <pt x="636" y="1133" on="1"/>
        <pt x="723" y="1242" on="1"/>
        <pt x="843" y="1393" on="0"/>
        <pt x="1042" y="1485" on="0"/>
        <pt x="1176" y="1487" on="1"/>
        <pt x="1191" y="1249" on="1"/>
        <pt x="1113" y="1244" on="0"/>
        <pt x="981" y="1186" on="0"/>
        <pt x="896" y="1080" on="1"/>
        <pt x="828" y="996" on="1"/>
        <pt x="678" y="811" on="0"/>
        <pt x="468" y="811" on="1"/>
        <pt x="305" y="811" on="0"/>
        <pt x="130" y="974" on="0"/>
        <pt x="92" y="1145" on="1"/>
      </contour>
      <contour>
        <pt x="733" y="131" on="1"/>
        <pt x="663" y="40" on="0"/>
        <pt x="510" y="-26" on="0"/>
        <pt x="401" y="-26" on="1"/>
        <pt x="238" y="-26" on="0"/>
        <pt x="56" y="156" on="0"/>
        <pt x="56" y="297" on="1"/>
        <pt x="56" y="442" on="0"/>
        <pt x="257" y="624" on="0"/>
        <pt x="415" y="624" on="1"/>
        <pt x="534" y="624" on="0"/>
        <pt x="710" y="531" on="0"/>
        <pt x="834" y="393" on="1"/>
        <pt x="906" y="314" on="0"/>
        <pt x="986" y="245" on="0"/>
        <pt x="1055" y="222" on="0"/>
        <pt x="1101" y="222" on="1"/>
        <pt x="1162" y="222" on="0"/>
        <pt x="1235" y="311" on="0"/>
        <pt x="1235" y="387" on="1"/>
        <pt x="1235" y="498" on="0"/>
        <pt x="1098" y="694" on="0"/>
        <pt x="933" y="797" on="1"/>
        <pt x="1094" y="1023" on="1"/>
        <pt x="1696" y="1023" on="1"/>
        <pt x="1690" y="1052" on="0"/>
        <pt x="1690" y="1084" on="1"/>
        <pt x="1690" y="1193" on="0"/>
        <pt x="1866" y="1331" on="0"/>
        <pt x="2023" y="1331" on="1"/>
        <pt x="2267" y="1331" on="0"/>
        <pt x="2354" y="1125" on="1"/>
        <pt x="2146" y="1073" on="1"/>
        <pt x="2108" y="1145" on="0"/>
        <pt x="2024" y="1145" on="1"/>
        <pt x="1972" y="1145" on="0"/>
        <pt x="1917" y="1099" on="0"/>
        <pt x="1917" y="1062" on="1"/>
        <pt x="1917" y="1039" on="0"/>
        <pt x="1926" y="1016" on="1"/>
        <pt x="2096" y="1003" on="0"/>
        <pt x="2284" y="834" on="0"/>
        <pt x="2284" y="686" on="1"/>
        <pt x="2284" y="548" on="0"/>
        <pt x="2105" y="377" on="0"/>
        <pt x="1954" y="377" on="1"/>
        <pt x="1855" y="377" on="0"/>
        <pt x="1713" y="450" on="0"/>
        <pt x="1639" y="587" on="0"/>
        <pt x="1639" y="662" on="1"/>
        <pt x="1639" y="736" on="0"/>
        <pt x="1663" y="792" on="1"/>
        <pt x="1359" y="792" on="1"/>
        <pt x="1520" y="626" on="0"/>
        <pt x="1520" y="409" on="1"/>
        <pt x="1520" y="207" on="0"/>
        <pt x="1294" y="-26" on="0"/>
        <pt x="1093" y="-26" on="1"/>
        <pt x="982" y="-26" on="0"/>
        <pt x="822" y="46" on="0"/>
      </contour>
      <contour>
        <pt x="1868" y="792" on="1"/>
        <pt x="1844" y="750" on="0"/>
        <pt x="1844" y="693" on="1"/>
        <pt x="1844" y="642" on="0"/>
        <pt x="1908" y="575" on="0"/>
        <pt x="1958" y="575" on="1"/>
        <pt x="2012" y="575" on="0"/>
        <pt x="2075" y="631" on="0"/>
        <pt x="2075" y="680" on="1"/>
        <pt x="2075" y="792" on="0"/>
        <pt x="1892" y="792" on="1"/>
      </contour>
      <contour>
        <pt x="579" y="295" on="1"/>
        <pt x="520" y="362" on="0"/>
        <pt x="456" y="406" on="0"/>
        <pt x="418" y="406" on="1"/>
        <pt x="379" y="406" on="0"/>
        <pt x="322" y="349" on="0"/>
        <pt x="322" y="302" on="1"/>
        <pt x="322" y="245" on="0"/>
        <pt x="381" y="187" on="0"/>
        <pt x="434" y="187" on="1"/>
        <pt x="478" y="187" on="0"/>
        <pt x="555" y="243" on="0"/>
      </contour>
      <contour>
        <pt x="1157" y="-50" on="1"/>
      </contour>
    </TTGlyph>
    <TTGlyph name="glyph00173" xMin="20" yMin="-559" xMax="1939" yMax="1023">
      <component glyphName="glyph00138" x="0" y="0" flags="0x200"/>
      <component glyphName="glyph00762" x="0" y="0" flags="0x0"/>
    </TTGlyph>
    <TTGlyph name="glyph00174" xMin="20" yMin="-50" xMax="1207" yMax="1583">
      <component glyphName="glyph00666" x="0" y="0" flags="0x200"/>
      <component glyphName="uni0C3F" x="1121" y="0" flags="0x0"/>
    </TTGlyph>
    <TTGlyph name="glyph00175" xMin="60" yMin="-285" xMax="1656" yMax="1465">
      <contour>
        <pt x="762" y="89" on="1"/>
        <pt x="682" y="31" on="0"/>
        <pt x="500" y="-26" on="0"/>
        <pt x="397" y="-26" on="1"/>
        <pt x="235" y="-26" on="0"/>
        <pt x="60" y="119" on="0"/>
        <pt x="60" y="240" on="1"/>
        <pt x="60" y="348" on="0"/>
        <pt x="225" y="477" on="0"/>
        <pt x="367" y="477" on="1"/>
        <pt x="446" y="477" on="0"/>
        <pt x="598" y="436" on="0"/>
        <pt x="687" y="387" on="1"/>
        <pt x="702" y="440" on="0"/>
        <pt x="702" y="503" on="1"/>
        <pt x="702" y="632" on="0"/>
        <pt x="650" y="716" on="1"/>
        <pt x="637" y="610" on="0"/>
        <pt x="491" y="489" on="0"/>
        <pt x="372" y="489" on="1"/>
        <pt x="237" y="489" on="0"/>
        <pt x="73" y="624" on="0"/>
        <pt x="73" y="744" on="1"/>
        <pt x="73" y="872" on="0"/>
        <pt x="264" y="1023" on="0"/>
        <pt x="438" y="1023" on="1"/>
        <pt x="447" y="1023" on="1"/>
        <pt x="452" y="1022" on="0"/>
        <pt x="457" y="1022" on="1"/>
        <pt x="437" y="1053" on="0"/>
        <pt x="418" y="1126" on="0"/>
        <pt x="418" y="1167" on="1"/>
        <pt x="418" y="1297" on="0"/>
        <pt x="622" y="1465" on="0"/>
        <pt x="797" y="1465" on="1"/>
        <pt x="1047" y="1465" on="0"/>
        <pt x="1438" y="1222" on="0"/>
        <pt x="1656" y="783" on="0"/>
        <pt x="1656" y="531" on="1"/>
        <pt x="1656" y="256" on="0"/>
        <pt x="1389" y="-26" on="0"/>
        <pt x="1131" y="-26" on="1"/>
        <pt x="1044" y="-26" on="0"/>
        <pt x="859" y="31" on="0"/>
      </contour>
      <contour>
        <pt x="800" y="1247" on="1"/>
        <pt x="781" y="1248" on="1"/>
        <pt x="711" y="1252" on="0"/>
        <pt x="642" y="1208" on="0"/>
        <pt x="642" y="1164" on="1"/>
        <pt x="642" y="1086" on="0"/>
        <pt x="726" y="1086" on="1"/>
        <pt x="771" y="1086" on="0"/>
        <pt x="823" y="1128" on="0"/>
        <pt x="823" y="1164" on="1"/>
        <pt x="823" y="1206" on="0"/>
      </contour>
      <contour>
        <pt x="809" y="898" on="1"/>
        <pt x="889" y="828" on="0"/>
        <pt x="977" y="620" on="0"/>
        <pt x="977" y="510" on="1"/>
        <pt x="977" y="448" on="0"/>
        <pt x="949" y="333" on="0"/>
        <pt x="922" y="279" on="1"/>
        <pt x="978" y="249" on="0"/>
        <pt x="1075" y="222" on="0"/>
        <pt x="1132" y="222" on="1"/>
        <pt x="1248" y="222" on="0"/>
        <pt x="1371" y="374" on="0"/>
        <pt x="1371" y="527" on="1"/>
        <pt x="1371" y="739" on="0"/>
        <pt x="1191" y="1078" on="0"/>
        <pt x="1026" y="1173" on="1"/>
        <pt x="1027" y="1162" on="1"/>
        <pt x="1031" y="1115" on="0"/>
        <pt x="995" y="999" on="0"/>
        <pt x="893" y="914" on="0"/>
      </contour>
      <contour>
        <pt x="461" y="833" on="1"/>
        <pt x="433" y="837" on="0"/>
        <pt x="415" y="837" on="1"/>
        <pt x="358" y="837" on="0"/>
        <pt x="301" y="792" on="0"/>
        <pt x="301" y="752" on="1"/>
        <pt x="301" y="714" on="0"/>
        <pt x="345" y="675" on="0"/>
        <pt x="385" y="675" on="1"/>
        <pt x="430" y="675" on="0"/>
        <pt x="482" y="718" on="0"/>
        <pt x="482" y="756" on="1"/>
        <pt x="482" y="792" on="0"/>
      </contour>
      <contour>
        <pt x="558" y="221" on="1"/>
        <pt x="501" y="259" on="0"/>
        <pt x="414" y="288" on="0"/>
        <pt x="361" y="288" on="1"/>
        <pt x="321" y="288" on="0"/>
        <pt x="280" y="260" on="0"/>
        <pt x="280" y="236" on="1"/>
        <pt x="280" y="205" on="0"/>
        <pt x="331" y="180" on="0"/>
        <pt x="376" y="180" on="1"/>
        <pt x="484" y="180" on="0"/>
      </contour>
      <contour>
        <pt x="633" y="-285" on="1"/>
        <pt x="648" y="15" on="1"/>
        <pt x="888" y="15" on="1"/>
        <pt x="903" y="-285" on="1"/>
      </contour>
      <contour>
        <pt x="862" y="-50" on="1"/>
      </contour>
    </TTGlyph>
    <TTGlyph name="glyph00176" xMin="76" yMin="-50" xMax="1197" yMax="1444">
      <contour>
        <pt x="772" y="91" on="1"/>
        <pt x="911" y="281" on="0"/>
        <pt x="911" y="481" on="1"/>
        <pt x="911" y="627" on="0"/>
        <pt x="768" y="792" on="0"/>
        <pt x="633" y="792" on="1"/>
        <pt x="510" y="792" on="0"/>
        <pt x="362" y="625" on="0"/>
        <pt x="362" y="488" on="1"/>
        <pt x="362" y="273" on="0"/>
        <pt x="502" y="92" on="1"/>
        <pt x="225" y="-16" on="1"/>
        <pt x="76" y="242" on="0"/>
        <pt x="76" y="493" on="1"/>
        <pt x="76" y="619" on="0"/>
        <pt x="170" y="831" on="0"/>
        <pt x="262" y="905" on="1"/>
        <pt x="192" y="987" on="0"/>
        <pt x="192" y="1118" on="1"/>
        <pt x="192" y="1265" on="0"/>
        <pt x="401" y="1444" on="0"/>
        <pt x="596" y="1444" on="1"/>
        <pt x="749" y="1444" on="0"/>
        <pt x="976" y="1319" on="0"/>
        <pt x="1096" y="1087" on="0"/>
        <pt x="1096" y="940" on="1"/>
        <pt x="1096" y="895" on="0"/>
        <pt x="1087" y="847" on="1"/>
        <pt x="1142" y="781" on="0"/>
        <pt x="1197" y="615" on="0"/>
        <pt x="1197" y="514" on="1"/>
        <pt x="1197" y="381" on="0"/>
        <pt x="1134" y="139" on="0"/>
        <pt x="1047" y="-16" on="1"/>
      </contour>
      <contour>
        <pt x="839" y="998" on="1"/>
        <pt x="824" y="1102" on="0"/>
        <pt x="697" y="1213" on="0"/>
        <pt x="597" y="1213" on="1"/>
        <pt x="524" y="1213" on="0"/>
        <pt x="450" y="1147" on="0"/>
        <pt x="450" y="1090" on="1"/>
        <pt x="450" y="1040" on="0"/>
        <pt x="479" y="1006" on="1"/>
        <pt x="553" y="1023" on="0"/>
        <pt x="640" y="1023" on="1"/>
        <pt x="744" y="1023" on="0"/>
      </contour>
      <contour>
        <pt x="636" y="-50" on="1"/>
      </contour>
    </TTGlyph>
    <TTGlyph name="glyph00177" xMin="56" yMin="-285" xMax="2303" yMax="1583">
      <component glyphName="glyph00669" x="0" y="0" flags="0x200"/>
      <component glyphName="uni0C3F" x="1092" y="0" flags="0x0"/>
    </TTGlyph>
    <TTGlyph name="glyph00178" xMin="63" yMin="-50" xMax="1630" yMax="1583">
      <component glyphName="uni0C19" x="0" y="0" flags="0x200"/>
      <component glyphName="uni0C3F" x="1678" y="0" flags="0x0"/>
    </TTGlyph>
    <TTGlyph name="glyph00179" xMin="50" yMin="-50" xMax="1662" yMax="1465">
      <contour>
        <pt x="886" y="150" on="1"/>
        <pt x="827" y="63" on="0"/>
        <pt x="652" y="-26" on="0"/>
        <pt x="519" y="-26" on="1"/>
        <pt x="355" y="-26" on="0"/>
        <pt x="155" y="136" on="0"/>
        <pt x="155" y="270" on="1"/>
        <pt x="155" y="393" on="0"/>
        <pt x="244" y="472" on="1"/>
        <pt x="50" y="472" on="1"/>
        <pt x="50" y="712" on="1"/>
        <pt x="619" y="712" on="1"/>
        <pt x="619" y="497" on="1"/>
        <pt x="437" y="463" on="0"/>
        <pt x="437" y="340" on="1"/>
        <pt x="437" y="286" on="0"/>
        <pt x="505" y="223" on="0"/>
        <pt x="565" y="223" on="1"/>
        <pt x="644" y="223" on="0"/>
        <pt x="747" y="324" on="0"/>
        <pt x="755" y="413" on="1"/>
        <pt x="1018" y="413" on="1"/>
        <pt x="1029" y="326" on="0"/>
        <pt x="1115" y="222" on="0"/>
        <pt x="1210" y="222" on="1"/>
        <pt x="1296" y="222" on="0"/>
        <pt x="1377" y="340" on="0"/>
        <pt x="1377" y="460" on="1"/>
        <pt x="1377" y="693" on="0"/>
        <pt x="1174" y="1077" on="0"/>
        <pt x="994" y="1173" on="1"/>
        <pt x="994" y="1164" on="1"/>
        <pt x="994" y="1030" on="0"/>
        <pt x="835" y="888" on="0"/>
        <pt x="686" y="888" on="1"/>
        <pt x="543" y="888" on="0"/>
        <pt x="375" y="1037" on="0"/>
        <pt x="375" y="1167" on="1"/>
        <pt x="375" y="1301" on="0"/>
        <pt x="582" y="1465" on="0"/>
        <pt x="765" y="1465" on="1"/>
        <pt x="1025" y="1465" on="0"/>
        <pt x="1433" y="1206" on="0"/>
        <pt x="1662" y="743" on="0"/>
        <pt x="1662" y="474" on="1"/>
        <pt x="1662" y="232" on="0"/>
        <pt x="1427" y="-26" on="0"/>
        <pt x="1214" y="-26" on="1"/>
        <pt x="1103" y="-26" on="0"/>
        <pt x="949" y="57" on="0"/>
      </contour>
      <contour>
        <pt x="757" y="1246" on="1"/>
        <pt x="741" y="1248" on="0"/>
        <pt x="713" y="1248" on="1"/>
        <pt x="656" y="1248" on="0"/>
        <pt x="599" y="1203" on="0"/>
        <pt x="599" y="1164" on="1"/>
        <pt x="599" y="1125" on="0"/>
        <pt x="643" y="1086" on="0"/>
        <pt x="683" y="1086" on="1"/>
        <pt x="728" y="1086" on="0"/>
        <pt x="780" y="1128" on="0"/>
        <pt x="780" y="1164" on="1"/>
        <pt x="780" y="1207" on="0"/>
      </contour>
      <contour>
        <pt x="865" y="-50" on="1"/>
      </contour>
    </TTGlyph>
    <TTGlyph name="glyph00180" xMin="50" yMin="-285" xMax="1662" yMax="1465">
      <contour>
        <pt x="886" y="150" on="1"/>
        <pt x="827" y="63" on="0"/>
        <pt x="652" y="-26" on="0"/>
        <pt x="519" y="-26" on="1"/>
        <pt x="355" y="-26" on="0"/>
        <pt x="155" y="136" on="0"/>
        <pt x="155" y="270" on="1"/>
        <pt x="155" y="393" on="0"/>
        <pt x="244" y="472" on="1"/>
        <pt x="50" y="472" on="1"/>
        <pt x="50" y="712" on="1"/>
        <pt x="619" y="712" on="1"/>
        <pt x="619" y="497" on="1"/>
        <pt x="437" y="463" on="0"/>
        <pt x="437" y="340" on="1"/>
        <pt x="437" y="286" on="0"/>
        <pt x="505" y="223" on="0"/>
        <pt x="565" y="223" on="1"/>
        <pt x="644" y="223" on="0"/>
        <pt x="747" y="324" on="0"/>
        <pt x="755" y="413" on="1"/>
        <pt x="1018" y="413" on="1"/>
        <pt x="1029" y="326" on="0"/>
        <pt x="1115" y="222" on="0"/>
        <pt x="1210" y="222" on="1"/>
        <pt x="1296" y="222" on="0"/>
        <pt x="1377" y="340" on="0"/>
        <pt x="1377" y="460" on="1"/>
        <pt x="1377" y="693" on="0"/>
        <pt x="1174" y="1077" on="0"/>
        <pt x="994" y="1173" on="1"/>
        <pt x="994" y="1164" on="1"/>
        <pt x="994" y="1030" on="0"/>
        <pt x="835" y="888" on="0"/>
        <pt x="686" y="888" on="1"/>
        <pt x="543" y="888" on="0"/>
        <pt x="375" y="1037" on="0"/>
        <pt x="375" y="1167" on="1"/>
        <pt x="375" y="1301" on="0"/>
        <pt x="582" y="1465" on="0"/>
        <pt x="765" y="1465" on="1"/>
        <pt x="1025" y="1465" on="0"/>
        <pt x="1433" y="1206" on="0"/>
        <pt x="1662" y="743" on="0"/>
        <pt x="1662" y="474" on="1"/>
        <pt x="1662" y="232" on="0"/>
        <pt x="1427" y="-26" on="0"/>
        <pt x="1214" y="-26" on="1"/>
        <pt x="1103" y="-26" on="0"/>
        <pt x="949" y="57" on="0"/>
      </contour>
      <contour>
        <pt x="757" y="1246" on="1"/>
        <pt x="741" y="1248" on="0"/>
        <pt x="713" y="1248" on="1"/>
        <pt x="656" y="1248" on="0"/>
        <pt x="599" y="1203" on="0"/>
        <pt x="599" y="1164" on="1"/>
        <pt x="599" y="1125" on="0"/>
        <pt x="643" y="1086" on="0"/>
        <pt x="683" y="1086" on="1"/>
        <pt x="728" y="1086" on="0"/>
        <pt x="780" y="1128" on="0"/>
        <pt x="780" y="1164" on="1"/>
        <pt x="780" y="1207" on="0"/>
      </contour>
      <contour>
        <pt x="751" y="-285" on="1"/>
        <pt x="766" y="15" on="1"/>
        <pt x="1006" y="15" on="1"/>
        <pt x="1021" y="-285" on="1"/>
      </contour>
      <contour>
        <pt x="865" y="-50" on="1"/>
      </contour>
    </TTGlyph>
    <TTGlyph name="glyph00181" xMin="63" yMin="-50" xMax="1570" yMax="1253">
      <contour>
        <pt x="1505" y="525" on="1"/>
        <pt x="1570" y="423" on="0"/>
        <pt x="1570" y="292" on="1"/>
        <pt x="1570" y="143" on="0"/>
        <pt x="1365" y="-26" on="0"/>
        <pt x="1176" y="-26" on="1"/>
        <pt x="1053" y="-26" on="0"/>
        <pt x="896" y="55" on="0"/>
        <pt x="833" y="150" on="1"/>
        <pt x="760" y="55" on="0"/>
        <pt x="589" y="-26" on="0"/>
        <pt x="441" y="-26" on="1"/>
        <pt x="267" y="-26" on="0"/>
        <pt x="74" y="136" on="0"/>
        <pt x="74" y="267" on="1"/>
        <pt x="74" y="385" on="0"/>
        <pt x="213" y="530" on="0"/>
        <pt x="402" y="607" on="1"/>
        <pt x="505" y="649" on="0"/>
        <pt x="560" y="705" on="0"/>
        <pt x="560" y="740" on="1"/>
        <pt x="560" y="778" on="0"/>
        <pt x="508" y="821" on="0"/>
        <pt x="459" y="821" on="1"/>
        <pt x="346" y="821" on="0"/>
        <pt x="346" y="736" on="1"/>
        <pt x="346" y="694" on="0"/>
        <pt x="365" y="660" on="1"/>
        <pt x="110" y="588" on="1"/>
        <pt x="88" y="624" on="0"/>
        <pt x="63" y="725" on="0"/>
        <pt x="63" y="767" on="1"/>
        <pt x="63" y="881" on="0"/>
        <pt x="276" y="1023" on="0"/>
        <pt x="464" y="1023" on="1"/>
        <pt x="644" y="1023" on="0"/>
        <pt x="837" y="889" on="0"/>
        <pt x="842" y="762" on="1"/>
        <pt x="945" y="692" on="0"/>
        <pt x="1072" y="692" on="1"/>
        <pt x="1166" y="692" on="0"/>
        <pt x="1276" y="771" on="0"/>
        <pt x="1281" y="844" on="1"/>
        <pt x="1196" y="793" on="0"/>
        <pt x="1073" y="793" on="1"/>
        <pt x="933" y="793" on="0"/>
        <pt x="785" y="905" on="0"/>
        <pt x="785" y="1013" on="1"/>
        <pt x="785" y="1125" on="0"/>
        <pt x="956" y="1253" on="0"/>
        <pt x="1115" y="1253" on="1"/>
        <pt x="1295" y="1253" on="0"/>
        <pt x="1513" y="1034" on="0"/>
        <pt x="1513" y="857" on="1"/>
        <pt x="1513" y="689" on="0"/>
        <pt x="1297" y="480" on="0"/>
        <pt x="1097" y="480" on="1"/>
        <pt x="908" y="480" on="0"/>
        <pt x="773" y="567" on="1"/>
        <pt x="701" y="494" on="0"/>
        <pt x="507" y="417" on="1"/>
        <pt x="419" y="382" on="0"/>
        <pt x="359" y="331" on="0"/>
        <pt x="359" y="297" on="1"/>
        <pt x="359" y="222" on="0"/>
        <pt x="487" y="222" on="1"/>
        <pt x="675" y="222" on="0"/>
        <pt x="702" y="413" on="1"/>
        <pt x="965" y="413" on="1"/>
        <pt x="975" y="328" on="0"/>
        <pt x="1055" y="222" on="0"/>
        <pt x="1151" y="222" on="1"/>
        <pt x="1215" y="222" on="0"/>
        <pt x="1285" y="283" on="0"/>
        <pt x="1285" y="335" on="1"/>
        <pt x="1285" y="392" on="0"/>
        <pt x="1257" y="449" on="1"/>
      </contour>
      <contour>
        <pt x="1248" y="1012" on="1"/>
        <pt x="1199" y="1088" on="0"/>
        <pt x="1103" y="1088" on="1"/>
        <pt x="1057" y="1088" on="0"/>
        <pt x="1007" y="1055" on="0"/>
        <pt x="1007" y="1023" on="1"/>
        <pt x="1007" y="991" on="0"/>
        <pt x="1058" y="958" on="0"/>
        <pt x="1105" y="958" on="1"/>
        <pt x="1187" y="958" on="0"/>
      </contour>
      <contour>
        <pt x="815" y="-50" on="1"/>
      </contour>
    </TTGlyph>
    <TTGlyph name="glyph00182" xMin="68" yMin="-285" xMax="2643" yMax="1435">
      <contour>
        <pt x="1101" y="150" on="1"/>
        <pt x="1024" y="62" on="0"/>
        <pt x="794" y="-26" on="0"/>
        <pt x="640" y="-26" on="1"/>
        <pt x="371" y="-26" on="0"/>
        <pt x="68" y="248" on="0"/>
        <pt x="68" y="483" on="1"/>
        <pt x="68" y="617" on="0"/>
        <pt x="168" y="835" on="0"/>
        <pt x="262" y="908" on="1"/>
        <pt x="195" y="988" on="0"/>
        <pt x="195" y="1114" on="1"/>
        <pt x="195" y="1260" on="0"/>
        <pt x="406" y="1435" on="0"/>
        <pt x="599" y="1435" on="1"/>
        <pt x="752" y="1435" on="0"/>
        <pt x="979" y="1313" on="0"/>
        <pt x="1099" y="1083" on="0"/>
        <pt x="1099" y="938" on="1"/>
        <pt x="1099" y="896" on="0"/>
        <pt x="1090" y="849" on="1"/>
        <pt x="1151" y="778" on="0"/>
        <pt x="1213" y="596" on="0"/>
        <pt x="1213" y="486" on="1"/>
        <pt x="1213" y="433" on="0"/>
        <pt x="1205" y="383" on="1"/>
        <pt x="1284" y="295" on="0"/>
        <pt x="1419" y="222" on="0"/>
        <pt x="1494" y="222" on="1"/>
        <pt x="1566" y="222" on="0"/>
        <pt x="1643" y="305" on="0"/>
        <pt x="1643" y="387" on="1"/>
        <pt x="1643" y="498" on="0"/>
        <pt x="1506" y="694" on="0"/>
        <pt x="1341" y="797" on="1"/>
        <pt x="1502" y="1023" on="1"/>
        <pt x="1714" y="906" on="0"/>
        <pt x="1928" y="595" on="0"/>
        <pt x="1928" y="409" on="1"/>
        <pt x="1928" y="392" on="1"/>
        <pt x="1927" y="384" on="0"/>
        <pt x="1927" y="375" on="1"/>
        <pt x="2001" y="293" on="0"/>
        <pt x="2136" y="222" on="0"/>
        <pt x="2209" y="222" on="1"/>
        <pt x="2281" y="222" on="0"/>
        <pt x="2358" y="305" on="0"/>
        <pt x="2358" y="387" on="1"/>
        <pt x="2358" y="498" on="0"/>
        <pt x="2221" y="694" on="0"/>
        <pt x="2056" y="797" on="1"/>
        <pt x="2217" y="1023" on="1"/>
        <pt x="2429" y="906" on="0"/>
        <pt x="2643" y="595" on="0"/>
        <pt x="2643" y="409" on="1"/>
        <pt x="2643" y="207" on="0"/>
        <pt x="2414" y="-26" on="0"/>
        <pt x="2209" y="-26" on="1"/>
        <pt x="2107" y="-26" on="0"/>
        <pt x="1929" y="45" on="0"/>
        <pt x="1843" y="124" on="1"/>
        <pt x="1784" y="49" on="0"/>
        <pt x="1610" y="-26" on="0"/>
        <pt x="1494" y="-26" on="1"/>
        <pt x="1381" y="-26" on="0"/>
        <pt x="1191" y="60" on="0"/>
      </contour>
      <contour>
        <pt x="842" y="998" on="1"/>
        <pt x="827" y="1096" on="0"/>
        <pt x="701" y="1204" on="0"/>
        <pt x="600" y="1204" on="1"/>
        <pt x="528" y="1204" on="0"/>
        <pt x="453" y="1142" on="0"/>
        <pt x="453" y="1086" on="1"/>
        <pt x="453" y="1037" on="0"/>
        <pt x="480" y="1006" on="1"/>
        <pt x="554" y="1023" on="0"/>
        <pt x="640" y="1023" on="1"/>
        <pt x="747" y="1023" on="0"/>
      </contour>
      <contour>
        <pt x="640" y="222" on="1"/>
        <pt x="776" y="222" on="0"/>
        <pt x="929" y="372" on="0"/>
        <pt x="929" y="500" on="1"/>
        <pt x="929" y="631" on="0"/>
        <pt x="776" y="792" on="0"/>
        <pt x="640" y="792" on="1"/>
        <pt x="506" y="792" on="0"/>
        <pt x="352" y="635" on="0"/>
        <pt x="352" y="510" on="1"/>
        <pt x="352" y="377" on="0"/>
        <pt x="504" y="222" on="0"/>
      </contour>
      <contour>
        <pt x="1729" y="-285" on="1"/>
        <pt x="1744" y="15" on="1"/>
        <pt x="1984" y="15" on="1"/>
        <pt x="1999" y="-285" on="1"/>
      </contour>
      <contour>
        <pt x="1355" y="-50" on="1"/>
      </contour>
    </TTGlyph>
    <TTGlyph name="glyph00183" xMin="56" yMin="-199" xMax="2088" yMax="1583">
      <component glyphName="uni0C1E" x="0" y="0" flags="0x200"/>
      <component glyphName="uni0C3F" x="2251" y="0" flags="0x0"/>
    </TTGlyph>
    <TTGlyph name="glyph00184" xMin="73" yMin="-50" xMax="1713" yMax="1583">
      <component glyphName="glyph00682" x="0" y="0" flags="0x200"/>
      <component glyphName="uni0C3F" x="1758" y="0" flags="0x0"/>
    </TTGlyph>
    <TTGlyph name="glyph00185" xMin="68" yMin="-50" xMax="1213" yMax="1435">
      <contour>
        <pt x="262" y="908" on="1"/>
        <pt x="195" y="988" on="0"/>
        <pt x="195" y="1114" on="1"/>
        <pt x="195" y="1260" on="0"/>
        <pt x="406" y="1435" on="0"/>
        <pt x="599" y="1435" on="1"/>
        <pt x="752" y="1435" on="0"/>
        <pt x="979" y="1313" on="0"/>
        <pt x="1099" y="1083" on="0"/>
        <pt x="1099" y="938" on="1"/>
        <pt x="1099" y="896" on="0"/>
        <pt x="1090" y="849" on="1"/>
        <pt x="1151" y="778" on="0"/>
        <pt x="1213" y="596" on="0"/>
        <pt x="1213" y="486" on="1"/>
        <pt x="1213" y="248" on="0"/>
        <pt x="912" y="-26" on="0"/>
        <pt x="640" y="-26" on="1"/>
        <pt x="371" y="-26" on="0"/>
        <pt x="68" y="248" on="0"/>
        <pt x="68" y="483" on="1"/>
        <pt x="68" y="617" on="0"/>
        <pt x="168" y="835" on="0"/>
      </contour>
      <contour>
        <pt x="842" y="998" on="1"/>
        <pt x="827" y="1096" on="0"/>
        <pt x="701" y="1204" on="0"/>
        <pt x="600" y="1204" on="1"/>
        <pt x="528" y="1204" on="0"/>
        <pt x="453" y="1142" on="0"/>
        <pt x="453" y="1086" on="1"/>
        <pt x="453" y="1037" on="0"/>
        <pt x="480" y="1006" on="1"/>
        <pt x="554" y="1023" on="0"/>
        <pt x="640" y="1023" on="1"/>
        <pt x="747" y="1023" on="0"/>
      </contour>
      <contour>
        <pt x="640" y="222" on="1"/>
        <pt x="776" y="222" on="0"/>
        <pt x="929" y="372" on="0"/>
        <pt x="929" y="500" on="1"/>
        <pt x="929" y="631" on="0"/>
        <pt x="776" y="792" on="0"/>
        <pt x="640" y="792" on="1"/>
        <pt x="506" y="792" on="0"/>
        <pt x="352" y="635" on="0"/>
        <pt x="352" y="510" on="1"/>
        <pt x="352" y="377" on="0"/>
        <pt x="504" y="222" on="0"/>
      </contour>
      <contour>
        <pt x="641" y="642" on="1"/>
        <pt x="703" y="642" on="0"/>
        <pt x="783" y="568" on="0"/>
        <pt x="783" y="503" on="1"/>
        <pt x="783" y="438" on="0"/>
        <pt x="705" y="364" on="0"/>
        <pt x="641" y="364" on="1"/>
        <pt x="577" y="364" on="0"/>
        <pt x="498" y="439" on="0"/>
        <pt x="498" y="503" on="1"/>
        <pt x="498" y="569" on="0"/>
        <pt x="576" y="642" on="0"/>
      </contour>
      <contour>
        <pt x="640" y="-50" on="1"/>
      </contour>
    </TTGlyph>
    <TTGlyph name="glyph00186" xMin="68" yMin="-50" xMax="1651" yMax="1583">
      <component glyphName="glyph00684" x="0" y="0" flags="0x200"/>
      <component glyphName="uni0C3F" x="1381" y="0" flags="0x0"/>
    </TTGlyph>
    <TTGlyph name="glyph00187" xMin="68" yMin="-285" xMax="1651" yMax="1583">
      <component glyphName="glyph00685" x="0" y="0" flags="0x200"/>
      <component glyphName="uni0C3F" x="1381" y="0" flags="0x0"/>
    </TTGlyph>
    <TTGlyph name="glyph00188" xMin="64" yMin="-50" xMax="1809" yMax="1583">
      <component glyphName="uni0C23" x="0" y="0" flags="0x200"/>
      <component glyphName="uni0C3F" x="1840" y="0" flags="0x0"/>
    </TTGlyph>
    <TTGlyph name="glyph00189" xMin="65" yMin="-50" xMax="1741" yMax="1465">
      <contour>
        <pt x="1399" y="938" on="1"/>
        <pt x="1330" y="1134" on="0"/>
        <pt x="1088" y="1211" on="1"/>
        <pt x="1093" y="1184" on="0"/>
        <pt x="1093" y="1151" on="1"/>
        <pt x="1093" y="1029" on="0"/>
        <pt x="932" y="894" on="0"/>
        <pt x="788" y="894" on="1"/>
        <pt x="650" y="894" on="0"/>
        <pt x="474" y="1046" on="0"/>
        <pt x="474" y="1167" on="1"/>
        <pt x="474" y="1308" on="0"/>
        <pt x="692" y="1465" on="0"/>
        <pt x="900" y="1465" on="1"/>
        <pt x="1118" y="1465" on="0"/>
        <pt x="1487" y="1298" on="0"/>
        <pt x="1696" y="993" on="0"/>
        <pt x="1696" y="797" on="1"/>
        <pt x="1696" y="778" on="0"/>
        <pt x="1692" y="744" on="1"/>
        <pt x="1741" y="647" on="0"/>
        <pt x="1741" y="512" on="1"/>
        <pt x="1741" y="243" on="0"/>
        <pt x="1307" y="-26" on="0"/>
        <pt x="873" y="-26" on="1"/>
        <pt x="478" y="-26" on="0"/>
        <pt x="65" y="257" on="0"/>
        <pt x="65" y="513" on="1"/>
        <pt x="65" y="708" on="0"/>
        <pt x="305" y="944" on="0"/>
        <pt x="500" y="944" on="1"/>
        <pt x="646" y="944" on="0"/>
        <pt x="841" y="775" on="0"/>
        <pt x="841" y="646" on="1"/>
        <pt x="841" y="504" on="0"/>
        <pt x="655" y="348" on="0"/>
        <pt x="486" y="348" on="1"/>
        <pt x="417" y="348" on="0"/>
        <pt x="337" y="388" on="1"/>
        <pt x="385" y="307" on="0"/>
        <pt x="660" y="222" on="0"/>
        <pt x="875" y="222" on="1"/>
        <pt x="1163" y="222" on="0"/>
        <pt x="1435" y="319" on="0"/>
        <pt x="1471" y="428" on="1"/>
        <pt x="1378" y="348" on="0"/>
        <pt x="1240" y="348" on="1"/>
        <pt x="1099" y="348" on="0"/>
        <pt x="932" y="501" on="0"/>
        <pt x="932" y="644" on="1"/>
        <pt x="932" y="777" on="0"/>
        <pt x="1132" y="944" on="0"/>
        <pt x="1309" y="944" on="1"/>
        <pt x="1356" y="944" on="0"/>
      </contour>
      <contour>
        <pt x="855" y="1247" on="1"/>
        <pt x="850" y="1247" on="0"/>
        <pt x="844" y="1248" on="1"/>
        <pt x="832" y="1248" on="1"/>
        <pt x="698" y="1248" on="0"/>
        <pt x="698" y="1164" on="1"/>
        <pt x="698" y="1086" on="0"/>
        <pt x="782" y="1086" on="1"/>
        <pt x="827" y="1086" on="0"/>
        <pt x="879" y="1128" on="0"/>
        <pt x="879" y="1164" on="1"/>
        <pt x="879" y="1206" on="0"/>
      </contour>
      <contour>
        <pt x="1467" y="652" on="1"/>
        <pt x="1426" y="742" on="0"/>
        <pt x="1316" y="742" on="1"/>
        <pt x="1258" y="742" on="0"/>
        <pt x="1180" y="686" on="0"/>
        <pt x="1180" y="639" on="1"/>
        <pt x="1180" y="592" on="0"/>
        <pt x="1241" y="544" on="0"/>
        <pt x="1295" y="544" on="1"/>
        <pt x="1348" y="544" on="0"/>
        <pt x="1438" y="600" on="0"/>
      </contour>
      <contour>
        <pt x="323" y="583" on="1"/>
        <pt x="384" y="545" on="0"/>
        <pt x="452" y="545" on="1"/>
        <pt x="522" y="545" on="0"/>
        <pt x="594" y="598" on="0"/>
        <pt x="594" y="648" on="1"/>
        <pt x="594" y="691" on="0"/>
        <pt x="539" y="742" on="0"/>
        <pt x="488" y="742" on="1"/>
        <pt x="429" y="742" on="0"/>
        <pt x="336" y="657" on="0"/>
      </contour>
      <contour>
        <pt x="903" y="-50" on="1"/>
      </contour>
    </TTGlyph>
    <TTGlyph name="glyph00190" xMin="68" yMin="-285" xMax="1499" yMax="1435">
      <contour>
        <pt x="357" y="919" on="1"/>
        <pt x="298" y="997" on="0"/>
        <pt x="298" y="1114" on="1"/>
        <pt x="298" y="1257" on="0"/>
        <pt x="529" y="1435" on="0"/>
        <pt x="741" y="1435" on="1"/>
        <pt x="909" y="1435" on="0"/>
        <pt x="1159" y="1309" on="0"/>
        <pt x="1290" y="1080" on="0"/>
        <pt x="1290" y="938" on="1"/>
        <pt x="1290" y="907" on="0"/>
        <pt x="1284" y="869" on="1"/>
        <pt x="1389" y="785" on="0"/>
        <pt x="1499" y="550" on="0"/>
        <pt x="1499" y="410" on="1"/>
        <pt x="1499" y="210" on="0"/>
        <pt x="1291" y="-26" on="0"/>
        <pt x="1123" y="-26" on="1"/>
        <pt x="997" y="-26" on="0"/>
        <pt x="846" y="57" on="0"/>
        <pt x="783" y="150" on="1"/>
        <pt x="723" y="66" on="0"/>
        <pt x="571" y="-26" on="0"/>
        <pt x="430" y="-26" on="1"/>
        <pt x="266" y="-26" on="0"/>
        <pt x="68" y="208" on="0"/>
        <pt x="68" y="410" on="1"/>
        <pt x="68" y="572" on="0"/>
        <pt x="217" y="837" on="0"/>
      </contour>
      <contour>
        <pt x="1032" y="992" on="1"/>
        <pt x="1013" y="1090" on="0"/>
        <pt x="856" y="1204" on="0"/>
        <pt x="736" y="1204" on="1"/>
        <pt x="651" y="1204" on="0"/>
        <pt x="556" y="1141" on="0"/>
        <pt x="556" y="1086" on="1"/>
        <pt x="556" y="1036" on="0"/>
        <pt x="585" y="1004" on="1"/>
        <pt x="684" y="1023" on="0"/>
        <pt x="783" y="1023" on="1"/>
        <pt x="915" y="1023" on="0"/>
      </contour>
      <contour>
        <pt x="652" y="393" on="1"/>
        <pt x="915" y="393" on="1"/>
        <pt x="933" y="307" on="0"/>
        <pt x="1018" y="222" on="0"/>
        <pt x="1075" y="222" on="1"/>
        <pt x="1215" y="222" on="0"/>
        <pt x="1215" y="436" on="1"/>
        <pt x="1215" y="600" on="0"/>
        <pt x="994" y="792" on="0"/>
        <pt x="797" y="792" on="1"/>
        <pt x="776" y="792" on="1"/>
        <pt x="580" y="792" on="0"/>
        <pt x="352" y="599" on="0"/>
        <pt x="352" y="437" on="1"/>
        <pt x="352" y="222" on="0"/>
        <pt x="492" y="222" on="1"/>
        <pt x="555" y="222" on="0"/>
        <pt x="633" y="304" on="0"/>
      </contour>
      <contour>
        <pt x="783" y="695" on="1"/>
        <pt x="851" y="695" on="0"/>
        <pt x="925" y="631" on="0"/>
        <pt x="925" y="571" on="1"/>
        <pt x="925" y="511" on="0"/>
        <pt x="847" y="447" on="0"/>
        <pt x="783" y="447" on="1"/>
        <pt x="718" y="447" on="0"/>
        <pt x="640" y="511" on="0"/>
        <pt x="640" y="571" on="1"/>
        <pt x="640" y="631" on="0"/>
        <pt x="714" y="695" on="0"/>
      </contour>
      <contour>
        <pt x="648" y="-285" on="1"/>
        <pt x="663" y="15" on="1"/>
        <pt x="903" y="15" on="1"/>
        <pt x="918" y="-285" on="1"/>
      </contour>
      <contour>
        <pt x="783" y="-50" on="1"/>
      </contour>
    </TTGlyph>
    <TTGlyph name="glyph00191" xMin="68" yMin="-50" xMax="1499" yMax="1435">
      <contour>
        <pt x="357" y="919" on="1"/>
        <pt x="298" y="997" on="0"/>
        <pt x="298" y="1114" on="1"/>
        <pt x="298" y="1257" on="0"/>
        <pt x="529" y="1435" on="0"/>
        <pt x="741" y="1435" on="1"/>
        <pt x="909" y="1435" on="0"/>
        <pt x="1159" y="1309" on="0"/>
        <pt x="1290" y="1080" on="0"/>
        <pt x="1290" y="938" on="1"/>
        <pt x="1290" y="907" on="0"/>
        <pt x="1284" y="869" on="1"/>
        <pt x="1389" y="785" on="0"/>
        <pt x="1499" y="550" on="0"/>
        <pt x="1499" y="410" on="1"/>
        <pt x="1499" y="210" on="0"/>
        <pt x="1291" y="-26" on="0"/>
        <pt x="1123" y="-26" on="1"/>
        <pt x="997" y="-26" on="0"/>
        <pt x="846" y="57" on="0"/>
        <pt x="783" y="150" on="1"/>
        <pt x="731" y="65" on="0"/>
        <pt x="572" y="-26" on="0"/>
        <pt x="430" y="-26" on="1"/>
        <pt x="266" y="-26" on="0"/>
        <pt x="68" y="208" on="0"/>
        <pt x="68" y="410" on="1"/>
        <pt x="68" y="572" on="0"/>
        <pt x="217" y="837" on="0"/>
      </contour>
      <contour>
        <pt x="585" y="1004" on="1"/>
        <pt x="684" y="1023" on="0"/>
        <pt x="783" y="1023" on="1"/>
        <pt x="915" y="1023" on="0"/>
        <pt x="1032" y="992" on="1"/>
        <pt x="1013" y="1090" on="0"/>
        <pt x="856" y="1204" on="0"/>
        <pt x="736" y="1204" on="1"/>
        <pt x="651" y="1204" on="0"/>
        <pt x="556" y="1141" on="0"/>
        <pt x="556" y="1086" on="1"/>
        <pt x="556" y="1036" on="0"/>
      </contour>
      <contour>
        <pt x="652" y="413" on="1"/>
        <pt x="915" y="413" on="1"/>
        <pt x="927" y="320" on="0"/>
        <pt x="1013" y="222" on="0"/>
        <pt x="1075" y="222" on="1"/>
        <pt x="1215" y="222" on="0"/>
        <pt x="1215" y="436" on="1"/>
        <pt x="1215" y="600" on="0"/>
        <pt x="994" y="792" on="0"/>
        <pt x="797" y="792" on="1"/>
        <pt x="776" y="792" on="1"/>
        <pt x="580" y="792" on="0"/>
        <pt x="352" y="599" on="0"/>
        <pt x="352" y="437" on="1"/>
        <pt x="352" y="222" on="0"/>
        <pt x="492" y="222" on="1"/>
        <pt x="560" y="222" on="0"/>
        <pt x="642" y="320" on="0"/>
      </contour>
      <contour>
        <pt x="783" y="-50" on="1"/>
      </contour>
    </TTGlyph>
    <TTGlyph name="glyph00192" xMin="68" yMin="-285" xMax="1499" yMax="1435">
      <contour>
        <pt x="357" y="919" on="1"/>
        <pt x="298" y="997" on="0"/>
        <pt x="298" y="1114" on="1"/>
        <pt x="298" y="1257" on="0"/>
        <pt x="529" y="1435" on="0"/>
        <pt x="741" y="1435" on="1"/>
        <pt x="909" y="1435" on="0"/>
        <pt x="1159" y="1309" on="0"/>
        <pt x="1290" y="1080" on="0"/>
        <pt x="1290" y="938" on="1"/>
        <pt x="1290" y="907" on="0"/>
        <pt x="1284" y="869" on="1"/>
        <pt x="1389" y="785" on="0"/>
        <pt x="1499" y="550" on="0"/>
        <pt x="1499" y="410" on="1"/>
        <pt x="1499" y="210" on="0"/>
        <pt x="1291" y="-26" on="0"/>
        <pt x="1123" y="-26" on="1"/>
        <pt x="997" y="-26" on="0"/>
        <pt x="846" y="57" on="0"/>
        <pt x="783" y="150" on="1"/>
        <pt x="723" y="66" on="0"/>
        <pt x="571" y="-26" on="0"/>
        <pt x="430" y="-26" on="1"/>
        <pt x="266" y="-26" on="0"/>
        <pt x="68" y="208" on="0"/>
        <pt x="68" y="410" on="1"/>
        <pt x="68" y="572" on="0"/>
        <pt x="217" y="837" on="0"/>
      </contour>
      <contour>
        <pt x="1032" y="992" on="1"/>
        <pt x="1013" y="1090" on="0"/>
        <pt x="856" y="1204" on="0"/>
        <pt x="736" y="1204" on="1"/>
        <pt x="651" y="1204" on="0"/>
        <pt x="556" y="1141" on="0"/>
        <pt x="556" y="1086" on="1"/>
        <pt x="556" y="1036" on="0"/>
        <pt x="585" y="1004" on="1"/>
        <pt x="684" y="1023" on="0"/>
        <pt x="783" y="1023" on="1"/>
        <pt x="915" y="1023" on="0"/>
      </contour>
      <contour>
        <pt x="652" y="413" on="1"/>
        <pt x="915" y="413" on="1"/>
        <pt x="927" y="320" on="0"/>
        <pt x="1013" y="222" on="0"/>
        <pt x="1075" y="222" on="1"/>
        <pt x="1215" y="222" on="0"/>
        <pt x="1215" y="436" on="1"/>
        <pt x="1215" y="600" on="0"/>
        <pt x="994" y="792" on="0"/>
        <pt x="797" y="792" on="1"/>
        <pt x="776" y="792" on="1"/>
        <pt x="580" y="792" on="0"/>
        <pt x="352" y="599" on="0"/>
        <pt x="352" y="437" on="1"/>
        <pt x="352" y="222" on="0"/>
        <pt x="492" y="222" on="1"/>
        <pt x="560" y="222" on="0"/>
        <pt x="642" y="320" on="0"/>
      </contour>
      <contour>
        <pt x="648" y="-285" on="1"/>
        <pt x="663" y="15" on="1"/>
        <pt x="903" y="15" on="1"/>
        <pt x="918" y="-285" on="1"/>
      </contour>
      <contour>
        <pt x="783" y="-50" on="1"/>
      </contour>
    </TTGlyph>
    <TTGlyph name="glyph00193" xMin="56" yMin="-50" xMax="1539" yMax="1465">
      <contour>
        <pt x="871" y="1173" on="1"/>
        <pt x="871" y="1164" on="1"/>
        <pt x="871" y="1029" on="0"/>
        <pt x="713" y="888" on="0"/>
        <pt x="563" y="888" on="1"/>
        <pt x="420" y="888" on="0"/>
        <pt x="252" y="1037" on="0"/>
        <pt x="252" y="1167" on="1"/>
        <pt x="252" y="1300" on="0"/>
        <pt x="461" y="1465" on="0"/>
        <pt x="642" y="1465" on="1"/>
        <pt x="901" y="1465" on="0"/>
        <pt x="1310" y="1204" on="0"/>
        <pt x="1539" y="746" on="0"/>
        <pt x="1539" y="487" on="1"/>
        <pt x="1539" y="234" on="0"/>
        <pt x="1301" y="-26" on="0"/>
        <pt x="1078" y="-26" on="1"/>
        <pt x="929" y="-26" on="0"/>
        <pt x="700" y="107" on="0"/>
        <pt x="570" y="255" on="1"/>
        <pt x="500" y="334" on="0"/>
        <pt x="442" y="377" on="0"/>
        <pt x="409" y="377" on="1"/>
        <pt x="379" y="377" on="0"/>
        <pt x="338" y="329" on="0"/>
        <pt x="338" y="293" on="1"/>
        <pt x="338" y="192" on="0"/>
        <pt x="431" y="61" on="1"/>
        <pt x="143" y="-26" on="1"/>
        <pt x="56" y="139" on="0"/>
        <pt x="56" y="301" on="1"/>
        <pt x="56" y="440" on="0"/>
        <pt x="253" y="624" on="0"/>
        <pt x="403" y="624" on="1"/>
        <pt x="515" y="624" on="0"/>
        <pt x="701" y="532" on="0"/>
        <pt x="832" y="388" on="1"/>
        <pt x="931" y="279" on="0"/>
        <pt x="1033" y="222" on="0"/>
        <pt x="1098" y="222" on="1"/>
        <pt x="1254" y="222" on="0"/>
        <pt x="1254" y="468" on="1"/>
        <pt x="1254" y="693" on="0"/>
        <pt x="1050" y="1075" on="0"/>
      </contour>
      <contour>
        <pt x="634" y="1246" on="1"/>
        <pt x="618" y="1248" on="0"/>
        <pt x="590" y="1248" on="1"/>
        <pt x="533" y="1248" on="0"/>
        <pt x="476" y="1203" on="0"/>
        <pt x="476" y="1164" on="1"/>
        <pt x="476" y="1125" on="0"/>
        <pt x="520" y="1086" on="0"/>
        <pt x="560" y="1086" on="1"/>
        <pt x="605" y="1086" on="0"/>
        <pt x="657" y="1128" on="0"/>
        <pt x="657" y="1164" on="1"/>
        <pt x="657" y="1207" on="0"/>
      </contour>
      <contour>
        <pt x="803" y="-50" on="1"/>
      </contour>
    </TTGlyph>
    <TTGlyph name="glyph00194" xMin="56" yMin="-50" xMax="1520" yMax="1583">
      <component glyphName="glyph00692" x="0" y="0" flags="0x200"/>
      <component glyphName="uni0C3F" x="1092" y="0" flags="0x0"/>
    </TTGlyph>
    <TTGlyph name="glyph00195" xMin="56" yMin="-285" xMax="1520" yMax="1583">
      <component glyphName="glyph00695" x="0" y="0" flags="0x200"/>
      <component glyphName="uni0C3F" x="1092" y="0" flags="0x0"/>
    </TTGlyph>
    <TTGlyph name="glyph00196" xMin="63" yMin="-50" xMax="1671" yMax="1465">
      <contour>
        <pt x="833" y="150" on="1"/>
        <pt x="760" y="55" on="0"/>
        <pt x="589" y="-26" on="0"/>
        <pt x="441" y="-26" on="1"/>
        <pt x="267" y="-26" on="0"/>
        <pt x="74" y="136" on="0"/>
        <pt x="74" y="267" on="1"/>
        <pt x="74" y="385" on="0"/>
        <pt x="213" y="530" on="0"/>
        <pt x="402" y="607" on="1"/>
        <pt x="505" y="649" on="0"/>
        <pt x="560" y="705" on="0"/>
        <pt x="560" y="740" on="1"/>
        <pt x="560" y="778" on="0"/>
        <pt x="508" y="821" on="0"/>
        <pt x="459" y="821" on="1"/>
        <pt x="346" y="821" on="0"/>
        <pt x="346" y="736" on="1"/>
        <pt x="346" y="694" on="0"/>
        <pt x="365" y="660" on="1"/>
        <pt x="110" y="588" on="1"/>
        <pt x="88" y="624" on="0"/>
        <pt x="63" y="725" on="0"/>
        <pt x="63" y="767" on="1"/>
        <pt x="63" y="881" on="0"/>
        <pt x="276" y="1023" on="0"/>
        <pt x="464" y="1023" on="1"/>
        <pt x="472" y="1023" on="1"/>
        <pt x="452" y="1054" on="0"/>
        <pt x="433" y="1126" on="0"/>
        <pt x="433" y="1167" on="1"/>
        <pt x="433" y="1298" on="0"/>
        <pt x="635" y="1465" on="0"/>
        <pt x="814" y="1465" on="1"/>
        <pt x="1065" y="1465" on="0"/>
        <pt x="1456" y="1217" on="0"/>
        <pt x="1671" y="778" on="0"/>
        <pt x="1671" y="531" on="1"/>
        <pt x="1671" y="265" on="0"/>
        <pt x="1407" y="-26" on="0"/>
        <pt x="1169" y="-26" on="1"/>
        <pt x="1054" y="-26" on="0"/>
        <pt x="898" y="57" on="0"/>
      </contour>
      <contour>
        <pt x="815" y="1247" on="1"/>
        <pt x="796" y="1248" on="1"/>
        <pt x="726" y="1252" on="0"/>
        <pt x="657" y="1208" on="0"/>
        <pt x="657" y="1164" on="1"/>
        <pt x="657" y="1086" on="0"/>
        <pt x="741" y="1086" on="1"/>
        <pt x="786" y="1086" on="0"/>
        <pt x="838" y="1128" on="0"/>
        <pt x="838" y="1164" on="1"/>
        <pt x="838" y="1206" on="0"/>
      </contour>
      <contour>
        <pt x="797" y="894" on="1"/>
        <pt x="819" y="863" on="0"/>
        <pt x="842" y="793" on="0"/>
        <pt x="842" y="753" on="1"/>
        <pt x="842" y="662" on="0"/>
        <pt x="767" y="550" on="0"/>
        <pt x="618" y="461" on="0"/>
        <pt x="507" y="417" on="1"/>
        <pt x="419" y="382" on="0"/>
        <pt x="359" y="331" on="0"/>
        <pt x="359" y="297" on="1"/>
        <pt x="359" y="222" on="0"/>
        <pt x="487" y="222" on="1"/>
        <pt x="675" y="222" on="0"/>
        <pt x="702" y="413" on="1"/>
        <pt x="965" y="413" on="1"/>
        <pt x="977" y="328" on="0"/>
        <pt x="1064" y="222" on="0"/>
        <pt x="1157" y="222" on="1"/>
        <pt x="1386" y="222" on="0"/>
        <pt x="1386" y="526" on="1"/>
        <pt x="1386" y="738" on="0"/>
        <pt x="1206" y="1078" on="0"/>
        <pt x="1041" y="1173" on="1"/>
        <pt x="1042" y="1162" on="1"/>
        <pt x="1046" y="1112" on="0"/>
        <pt x="1005" y="991" on="0"/>
        <pt x="891" y="906" on="0"/>
      </contour>
      <contour>
        <pt x="869" y="-50" on="1"/>
      </contour>
    </TTGlyph>
</ttFont>
